<svg xmlns="http://www.w3.org/2000/svg" xmlns:xlink="http://www.w3.org/1999/xlink" width="755.1" height="690.1" viewBox="0 0 199.8 182.6"><defs><linearGradient id="a"><stop offset="0" stop-color="gray"/><stop offset="1" stop-color="#fff"/></linearGradient><linearGradient xlink:href="#a" id="c" x1="104" y1="226.6" x2="104.1" y2="75.4" gradientUnits="userSpaceOnUse" gradientTransform="translate(-4.2 -50.2)"/><clipPath id="b"><path d="M86.5 6.6c-4 .6-7.6.7-11.6 0-5.7.2-11.6-.7-16.3 3.3-2.8 2-5.9 3.2-8.7 5.2-4.4 3-7.4 5-12.2 7-2.5 1.4-6.5 4-8.5 4.8C26.6 29 24 28.8 22 32a72 72 0 0 0-3.7 6.6c-.1 1-2 2.2-2.9 5-.5 2.3-3.1 4.1-4 6.5L10.3 53c-.6.4-2 2.7-3.1 4.7-1.2 5.6 0 11.3-.5 16.9-.6 3.8.3 7.3 2.4 10.3 2.6 3.9 2.5 4 4.1 6.8 2.2 3.4 6.3 6 10.3 6.6 3.7.6 8 .5 10.8-3 3.5-4-.9-9-4.6-6.2-3-3.8-.1-8.7 2.5-11.7 4-2 7.6-5.7 12.5-4.7 4 .4 8.5-.7 12.2.6 6.4 3.9 13.4 7.3 19.5 11.5C82 95.2 88.7 105.4 94 115.9l.1 60h11.5l.2-60.5C112 105 117.6 94 124.3 84c6.8-3.6 13.3-8 20.2-11.3 5.2.2 10.6-.4 15.6.3 3.8 2.5 8.7 3.7 10.3 8.4 2.4 2.2.8 10.4-2.6 7-6.5 0-2.6 9.3 2 9.8 4 .4 8.2.8 11.6-2.4 3.7-.8 6.4-5.1 6.8-7 .6-.1 2.7-4.5 4-6.4 2.4-3.8.4-9.2.8-13.2-.3-4.4 1.8-10-1.5-13.5-.8-2.2-1.8-2-2.3-3.4-.3-1.8-1.3-2.6-2.5-5-2-2-2.5-4.7-4-7-1.6-1.2-.1-1.5-2.1-3-1.4-3.2-3-7.2-6.6-8.3-1-.7-3.5-2.4-5.6-3.2-4-1.9-8-6-12.8-6.2-2-3.8-7-5.4-10.8-7-3-2.7-6.8-4.7-10.5-6-5 .6-10-.7-14.9.9-5.1-1.5-10.6-.5-16-.7-1.5.2-3.4 3-5.6.7-2.2-1.5-7.9-.2-11.3-.9zm11.4.9s.2 0 0 0zm3.9 0s.2 0 0 0zm68.7 19.3s.2.1 0 0zm3.8 2.2s.2 0 0 0zm7.7 10.4c0 .1 0 0 0 0zm0 0c.7 1-.2-1 0 0zm6.5 11s.1.2 0 0zm-177.2 0s0-.2 0 0zm6.5-11s0 .1 0 0zm0 0c.3-1.1-.8 1.2 0 0zM25.4 29s.2 0 0 0zm3.8-2.1s.2-.2 0 0zm46.4-20c.6 0 .4 0 0 0zm39 0c1.3.1-.3 0 0 0zm-29.4 0c.3 0-1.3.2 0 0zm39 0c.2 0-.8 0 0 0zm-.3 0h-.1zm-43.2.6c0 .2-.5-.2 0 0zm38.4 0c.5-.2 0 .2 0 0zm1.3.6c.1 0 0 .1 0 0zm-21.5.1l.4 1zm2 0l-.4 1zM86.7 9.6c1.4-.3 0 .9 0 0zM74 9.6c-.4.6-.7-.2 0 0zm39 0c0 1-1.1-.4 0 0zm12.8 0c.9-.3.2.7 0 0zm-42.5 0c0 .4-.3.7 0 0zm.3 0c.3 0-.2 1 0 0zm32.6 0c.1 1-.3 0 0 0zm6.5 0c.4.3-.5.8 0 0zm-31.4 0c1.3.5-.9.2 0 0zm17.2 0c.5.5-.9.2 0 0zM95 9.7c.2 0 0 .6 0 0zm9.8 0c-.1.7-.2 0 0 0zm-27.7.2c1 1.3-.3.3 0 0zm-11 0c.3.4-.8.9 0 0zm67.5 0c.6.5-.2.5 0 0zm-3 0h-.3.3zm-61.4 0c.4 0 .5.2 0 0zm-9.5.2c-.2.6-.1 0 0 0zm80.4 0c.1 0 .1.6 0 0zm-45.5 0c.4.5 0 .2 0 0zm10.6 0c0 .2-.4.5 0 0zm-33.6.6c.7.6-.5.9 0 0zm56.6 0c.5.9-.7.6 0 0zm-39 .1c.6.8-.7.9 0 0zm21.5 0c.6.8-.7.9 0 0zm-51.1 0v.1zm25.7 0c2 .5-2.1 3.4 0 0zm-9.8.1c1.9 2-2 .9 0 0zm-18.2 0c0 .2-.3.2 0 0zm85.2 0c.3.2 0 .2 0 0zm-18.4.2c.7 1.6-1 .7 0 0zm-66.5 0c.8.4 1 .4 0 0zm84.6 0c-1.3.7-.7.3 0 0zm-28.2.1c1.8 0 .2 1 0 0zm-56.8 0c-.2 1-.3 0 0 0zm85.4 0c.3 0 .2 1 0 0zm-85.6.5zm46.6 0c-.3.8-.3.1 0 0zm8.6.5c0 .5-.6 1.1 0 0zm14.3 0c.7 1 0 .8 0 0zm-35.8 0c.1.5-.7 1.1 0 0zm18.4 0c.3.5 0 .2 0 0zm-21.5 0c.7 1.5-.3-.2 0 0zm42 0c.3 1-.7.8 0 0zm-56.4.1c.1.4-.7 1 0 0zm-3 0c.6 1-.1.6 0 0zm39.2.6zm-17.2.4c-.1.3-.5 0 0 0zm48.4 0c.5.3 0 1.3 0 0zm-17.5 0c.5.5-.4 1.2 0 0zm-63.9 0c.2.3-.6.4 0 0zm17.5 0c.5 1.2-.5.6 0 0zm-17.1.1c.7.5-.4 1.4 0 0zm80.6 0c.6 1.3-.7.5 0 0zm-56.1.1c.3.5-.3.7 0 0zm31.6 0c.2.4-.2.8 0 0zm31.6.2c.5 0 .1 0 0 0zm-94.8 0h-.2.2zm92.3 0c-.1.3-.3.6 0 0zm-46.7.1c1 .4 0 .8 0 0zm3.6 0c.5.4-1.4.7 0 0zm-46.6 0c.1.3 0 .2 0 0zm30.4 1.1c.5.7-1.2 1 0 0zm28.8 0c1.2 1.1-.7.7 0 0zm10.3.2c0 .9-1.3.5 0 0zm-49.4 0c1.5.7-.2.6 0 0zm41.8.1c.1.8-.6.1 0 0zm-34.2 0c.7 0-.2.7 0 0zm-5 0c.8.2-.5.6 0 0zm68.6 1.7c-.6.9-1.2.5 0 0zm-92.7.2c.5.3-.8.2 0 0zm4.7.5c.3 0-.3 0 0 0zm5.1.1c.4.1 0 .2 0 0zm36.4 0c1.3 1.3-1.3 1.5 0 0zm2.6 0c.7 1-1.4 1.2 0 0zm33.7 0c0 .1-.1 0 0 0zm-39 0c1.6 1-.6 1.2 0 0zm-34 0c-.6.7 0 .1 0 0zm-17 0c-.4.1-.2 0 0 0zm11.8 0c.5.3-.3.4 0 0zm83.8 0c.2.4-.2.1 0 0zm-15.4.2c0 .6-1.1 0 0 0zm-53 0c1 0 0 .6 0 0zm80.8 0zm-108.6 0zm81.3 0c.1.5-.6.4 0 0zm-54 0c.5.3 0 .7 0 0zm-15.2 0c.1.2-.2.2 0 0zm84.3.2c.3 0-.1.1 0 0zm-5.7 0c.7.7-.4.3 0 0zm-72.8.1c.2.3-.5.4 0 0zm73.6 0c0 .4-.4 0 0 0zm-74.3.2c0 .1-.2-.1 0 0zm-7.9.6c.5.2-.7 0 0 0zm90.1 0c.6.2-.7 0 0 0zm-100.2.4c-.9 1-.5 0 0 0zm110.3 0c.4.2.7 1 0 0zm-12.5.4c1.5 1.5-1.6 1.1 0 0zm-85.4 0c1.6 1-1.3 1.7 0 0zm-7.6.2c.8.8-.6 1 0 0zm100.6 0c.8.6-1 1.3 0 0zm-24.6 0c1.3.5-.5.9 0 0zm-51.5.2c.5.6-1.1.3 0 0zm73 0c2 .9-2.3 1.6 0 0zm-94.9.1c2.5.7-.2 1.8 0 0zm100.3.1c.2.5-1 .3 0 0zm.3 0s0 .1 0 0zm-66 .3c.8 0-.4.4 0 0zm-39.7.1c1.4.2.4.9 0 0zm105.7 0c-.3.7-1.7.4 0 0zm-36.7.1c1.2 0-1.7.7 0 0zm-32.2 0c1.1.8-1.1 0 0 0zm39 .1c1.9 1.2-1 0 0 0zm33.2 0c.1.1 0 .1 0 0zM43.7 21c0 .1 0 .1 0 0zm115.7 0c.6.6-1.7.1 0 0zm-119 0c.5 0-.5.2 0 0zm.6.2h.1zm35.3.3c.2.1-.5.2 0 0zm-16.4.3c.7.2 1.2 1.1 0 0zm80 0c-1.3 1.2-.6.2 0 0zm-27.5.5c1.4.1-1.3.6 0 0zm-51.8 0c4.6-.2 7 4.5 8.3 8.1.4 4.5-.9 8.7-.2 1.7-.1-3-3-5-2.7-5.8-.8-2.1-3.6-2.8-5.4-4zm76.9 0c5-.6-6.1 3.6-3.5 4.3a9.5 9.5 0 0 0-2.9 8c.8 5.4-1.6-4.5.6-6.2 1.3-2.7 2.8-5 5.8-6zm-37.9 0c2.5.5 1.6 7.7 0 6.8a6.4 6.4 0 0 1 0-6.7zm-11.9.1c.5 1-1.8-.3 0 0zm-7.3.3c1.4 2.6-1.4 2.7-2.3 5.9-2.3 3.5-1 9-.6 12.9 1.4 1.2.9 3.5 4 5.8-.6 6.4-7.1-5.5-7-9.6 0-4-1-8.3 2-11.6.6-2 2.3-2.5 3.9-3.4zm39 0c3.3 1.2 4.8 4.6 6 7.6.8 7-1 16.7-6.5 19.2-2.1-2.1 3.7-6 2.7-7.2 2.5-1.8.8-8.9 1-12.3-1.1-2-2.9-4.7-3-4.9-.5-.5-1.6-2.2-.2-2.4zm-80.4 0c.2.8-.2.1 0 0zm121.8 0c.2.1-.2.8 0 0zm-117.3.1c.4.8-.7 1.2 0 0zm113.2 0c.4 0 0 .6 0 0zm-.4 0c1.1 1-.8.8 0 0zm-27.5.4c.4 0-.1.9 0 0zm-57.8 0c0 1-.3 0 0 0zm13.5.4c.5.3-.8.7 0 0zm30.8 0c.8.7-.7.1 0 0zm-20 .3c0 .2-.5 0 0 0zm9.2 0c.5 0 0 .2 0 0zm-14.7.2c.5.6-1.5.6 0 0zm20 .1c1.6.3 0 .7 0 0zm-68.2.2c-.2.2-.1 0 0 0zm12 0c1.2 1.3-1.8.8 0 0zm92.5.1c1.8.3-.7 1.8 0 0zm11.8.3c.9.4-.5.5 0 0zm-116 0c.5.5-.7.4 0 0zM144 25c.4 1.3-.8 1 0 0zm-88.5 0c1.3.2-.9 2 0 0zm-23 .3c.3.3-.6.5 0 0zm134.6 0c.6.5-.3.4 0 0zm-119.7.2c.6.4-.3.5 0 0zm104.8 0c.3.5-.6.4 0 0zm-17.3.1l-.9.3.9-.3zm-50.7.3c1.9 0-1 1 0 0zm31.2 0c1 1-2 .2 0 0zm-35.3 0c-.8 1.2-.6-.4 0 0zm39.4 0c.6-.4.8 1.2 0 0zm48 .2zm0 0zm-88 .1c0 .3-.7.2 0 0zm40.6 0c.7.2 0 .3 0 0zm23.8 0c.2.2 0 0 0 0zm-107 .2c.8.5-.3 1.1 0 0zm125.9 0c.2 1.2-.8.4 0 0zm-126.4 0c0 .2-.2.7 0 0zm126.9.1c0 .1 0 .3 0 0zm-42.8.1c.3.2.2 1.1 0 0zm-41.4 0c-.2 1.1-.3.2 0 0zm31 .2c1.8-.4 0 2 0 0zm-20.6 0c-.2 2.2-1.9-.8 0 0zm-49 .2c1.4 1.9-1.7 1 0 0zM159 27zm0 0c2.1.5-1 2.6 0 0zm-102.2.2s-.2.1 0 0zm60.7 0c.6.7-.3.7 0 0zm-35.2 0c.3.8-.5.6 0 0zm-19 .3s-.2 0 0 0zm15.5.2zm42.2 0c.1 0 .2.3 0 0zm-42.2 0c-.2.4-.1 0 0 0zm-.1.2c-.4.9-.7.1 0 0zm42.4 0c.7 0 .5 1 0 0zm-57.7.1c-.3.2-.2 0 0 0zm73.1.1c.5 0 0 .1 0 0zm-51.9 0c.3 0 0 .1 0 0zm.7 0c0 .2-.2 0 0 0zm47.3.3c-.4 1.5-.5.1 0 0zm-65.4 0c.5.1.4 1.5 0 0zm-.4.3zm25.6.1c6.6 1.8 1.4 7.2-.5 2.5 0-.9-.2-1.7.5-2.5zm15 0c4.1 4.6-7.4 6.3-2.2 1.4l.7-.5zm-28.8.2c-.4.6-.5-.3 0 0zm42.6 0c.5-.3.4.6 0 0zm-43 .1c-.2.5-.6 0 0 0zm43.4 0c.6 0 .2.5 0 0zm-43.8.1c.1.3-.7.3 0 0zm44.2 0c.7.3-.1.3 0 0zm-72.3.2c1.9 2.1 1 2.7 0 0zm100.4 0c-1 2.7-1.9 2.1 0 0zm-118.9.2c.7.1-.7 0 0 0zm137.4 0c.7 0-.7.1 0 0zm-91.2 0c-.2 1.1-.3.2 0 0zm45 0c.2.2.2 1.1 0 0zm52.9.1l.4 1zm-150.8 0l-.4 1zM169 30c-.1 1-1.2.3 0 0zm-138.2 0c1.3.3 0 1 0 0zm37.3 0c0 .1.2.5 0 0zm63.6.1c-.1.3-.1 0 0 0zm-51.1.2c.4.1 0 .3 0 0zm38.6 0c0 .3-.4.1 0 0zm25 0c1.8 2.6-2 1.6 0 0zm-88.7 0c1.9 1.4-1.7 2.3 0 0zm9.5.3c-.2.6-.9.8 0 0zm99 0c.2 0 0 .3 0 0zm-83.6 0c.6.7-.4.3 0 0zm39 0c.3.3-.5.5 0 0zm45 .2c.2.6-.4 0 0 0zm.3.2c.5.2-.4.4 0 0zm12.2 0c.5-.1 1 1.6 0 0zM23 31c-1 1.6-.5-.1 0 0zm42.4 0c.1.2-.8.5 0 0zm69.5.3c0 .1-.3 0 0 0zm-88.3.3c1.3.5-.6.9 0 0zm106.8 0c.8.9-1.5.5 0 0zm9 .2s-.2 0 0 0zm-130.1.2c.7.4-.8 0 0 0zm135.6 0c0 .3-.4 0 0 0zm-35.6 0c-.3.7-.3.2 0 0zm-64.5.1c.2 0 .3.7 0 0zm110.2.3c.2.3-.2.2 0 0zm-156 0c.2.2-.2.3 0 0zm134.9 0c.4 1-1.3.7 0 0zM43 32.6c1.7.7.2 1.3 0 0zm-21.1 0c.1 1.4-.4.2 0 0zm156 0c.4.2-.1 1.4 0 0zm-155.6.3zm153 .6c-.5.2-.4 0 0 0zm-151 .3c1.2.2-.2.4 0 0zm151.1.1c-.1.5-1.2-.3 0 0zm3.3.3l.6.6zM21 34l-.6.6.6-.6zm58.2 0zm52.6 0c.5.5 0 .2 0 0zm-64.1 0c0 .5-.3.1 0 0zm-.2.2c.1.2-.1.1 0 0zm-20.2.7c2.9-.7 1 2.6 0 0zm38.8 0c1.2 3-4.7-.8 0 0zm27.2 0c6-2.4-.8 3.5 0 0zm38 0c3.4.4-2.8 1.9 0 0zm15.3 0c.6.4.5.6 0 0zM33.1 35c-.5.6-.6.4 0 0zm101.8 0c0 1-.8.3 0 0zm-70 0c1 .1-.1 1 0 0zm25.6.1c1.4.2-.7 1.3 0 0zm18.8 0c.6 1.1-1.3.3 0 0zm-44.7 0c1.7 1.8-1.4 0 0 0zm-31.2 0zm102 0c1.4.2-2.4 1.5 0 0zm26.4.2c2.4 3.8-.3 8.2-2.7 11.2-5 3.4-7.3 3.4-2.3 1 3-1.4 3.3-5.3 4.2-5.5 1.5-1.8.7-4.5.8-6.7zM155 48.6zm-117-13.3c-1.3 4 1.6 7.4 1.4 7.9 1 2.2 3.8 4.9 5.4 5.2 4.2 2.6-3-1.1-4.4-2.2-2-3.3-4.8-7-2.3-10.9zm7 13.3zm121.6-13c.7.2.2.4 0 0zm13.4 0c.6.2.3 1.8 0 0zm-160 0c-.3 1.8-.6.2 0 0zm23.8.3c1.8.8-.8.4 0 0zm123.3 0c.1 0 0 0 0 0zm-35 .6c0 .2 0 0 0 0zm-64.1 0c0 .2-.2.3 0 0zm109 .1c.4.4-.2.2 0 0zm-154 0c-.3.5 0 .2 0 0zM61 37.7c0 .7 0 .5 0 0zm77.6 0c0 .5 0 .2 0 0zm-84.1.1c3.7-.5 6.8.2 9.6 2.4 4 1.3 6.1 4.4 7.8 8 2 4 5.7 7.7 4.7 12.6v15.4c-5.8-3.5-12.1-6.5-17.5-10.4-2.4-4.6-5.6-9-7.5-13.6.5-4.4-1-8.9 1.8-12.5zm85 0c4.5-1 7.9.9 8.5 5.8-.9 3.9 1.5 8.6-1.6 12-3.1 4.3-4.3 10.5-9.5 12.6l-13.9 8c.3-6.7-.4-13.8.3-20.4 2.7-4.3 4.9-9.2 8-13.2 2.6-1.8 5.8-2.7 8.1-4.8zm-1 .1c0 .3 0 .3 0 0zm-77.5.3zm77.6 0zm-38.8 0c3.7 2.5 9.7 3.8 9.4 9 3.3 2.8 6.5 7.3 6.4 11.8-.2 7.1.4 14.4-.3 21.3L100 107.1c-4.8-9.4-11.3-18.3-15.8-27.8.2-7.8-.4-15.9.3-23.6 1.5-4.4 6.3-7.1 6.7-11.5 1.8-3 6-4 8.8-6zm75.3.2c.2 0-.3.4 0 0zM22.6 39c1.1 0-.3.9 0 0zm154.6 0c-1 1 .2 0 0 0zm-26.7.1c1 .6-2 .3 0 0zm-87 .7zm72.9 0zm-72.9 0h.2zm55.7.2c.7-.1 0 .6 0 0zm-38.6 0c-.4.5-.3 0 0 0zm77.7 0c.5 0 0 .5 0 0zM41.5 40c.2.5-.5.1 0 0zm116.4.1c.6.5.2.8 0 0zm-116.1 0c.7.4-1 .7 0 0zm-21.5.1c.2-.3-.3.9 0 0zm159.2 0c.1.3 0 .2 0 0zm-158.9 0c.5.6-.8.7 0 0zm158.6 0c.8.6-.5.5 0 0zm3.1.1c.3.2-.2 1 0 0zm-164.8 0c.1.9-.2.2 0 0zm101.5 0c.7.3 0 .5 0 0zm-38.2 0c0 .4-.7.3 0 0zm-60.6.2zm92 0c1.2 1.1-.2.8 0 0zm-24.6.1c.4.9-1 .4 0 0zm-49.4.1c.7 1.1-.1.2 0 0zm39 0c.7 1.1-.2.2 0 0zm45.4 0c.2.2-.7 1.1 0 0zm39 0c.1.2-.7 1.1 0 0zm20.7 0s0 .1 0 0zm-165.6.4c-.4 1.5-.5.2 0 0zm166.4 0c.4.2.4 1.5 0 0zm-6.3.2c-1.2.4-.4-.1 0 0zm-153.2 0c-1-.1-.2.2 0 0zm146.4 0c-.2.3-.1.1 0 0zm-140.2.1c.1 0 .2.2 0 0zm-1.6 0c.1 0 .2.2 0 0zm143.4 0c-.2.2-.1 0 0 0zm-133 0c.3-.1.3.6 0 0zm39 0c.3-.2.3.7 0 0zm44.6 0c-.3.7-.3-.2 0 0zm39 0c-.3.6-.3-.1 0 0zm-.5.1zM26 41.5c-.6 1.6-.4.2 0 0zm52 0c1 .8-.6.3 0 0zm43.6 0c0 1 0 .6 0 0zm52 0c.4.2.6 1.6 0 0zm-1.6 0c.5.2.2 1 0 0zm-144.4 0c-.3 1.3-.5.2 0 0zm133 0c-.2 1.3.2-.2 0 0zM39 41.6c1 .7-.5.4 0 .2zm-8.5.3c.2 0 .3.8 0 0zm138.6 0c-.3.8-.2 0 0 0zm-148 .3c2 2-2.1.9 0 0zm157.3 0c2.2.6-1.8 2.2 0 0zm-147.7 0zm138.2 0zm-142.7.2c0 .1 0 0 0 0zm147.2 0s0 .1 0 0zm-157.4.1c-.6.6-.4.4 0 0zm167.6 0c.5.5.4.5 0 0zm-165 .8s-.1 0 0 0zm162.2 0c0 .5-.5.3 0 0zm-162 0c.5.3.3.8 0 0zm24.2.1c.1.2 0 0 0 0zm113.6 0zm-138 .4c.5.4-.2.2 0 0zm162.4 0c.4.2-.6.3 0 0zm-153.4 0c.4.7-.2 1.6 0 0zm.5 0c.3.5-.2 0 0 0zm50.8 0c1.3 1.4-.5.6 0 0zm41.8 0c.5.6-1.3 1.4 0 0zm54.4.4c.7 0-.5.7 0 0zm-150.6 0c1 1-.8 0 0 0zm155.6 0c.1.2 0 .1 0 0zm-8 .2c.2.6-.6-.1 0 0zm-149.7.5c1.1.6-.7.2 0 0zm154.8 0c.6.3-.9.4 0 0zm-129.8.1c.8 1.2-.7 1.2 0 0zm104.7 0c.7.4-.7 2.1 0 0zm-122.4.5c.4 1.2-1.5.7 0 0zm140.2 0c1.4.5-.4 1.1 0 0zm-129 .3c.2.4 0 .1 0 0zm117.9 0c0 .1-.3.4 0 0zm-68.2 0c.6 0-1 2.6 0 0zm18.4 0l.1 1zm43.7 0c0 .4-.1.2 0 0zm-33 .1s-.2.2 0 0zm-39.8 0c.2.2 0 0 0 0zm-47.8 0c.1 0 0 .2 0 0zm-.3.1c.1.3-1 .3 0 0zm135.8.4c.7.6-.3.3 0 0zm-135.6 0c0 .3-.4.4 0 0zm136.3.1c.2.3-.2 0 0 0zm-137 0c.2 0-.2.4 0 0zm-8 .3c.1.6-.8-.1 0 0zm153 0c.8 0-.2.6 0 0zm10 .8c.6-.2 1 1.6 0 0zm-173.1 0c-.9 1.2-.4.1 0 0zm157.3 1c1.8 1-.3.4 0 0zm13.7 0c.2 0-.2.3 0 0zm-.4 0c.3.5-1.3.2 0 0zM15.7 49c.6.2-.2.3 0 0zm168.5 0c-.1.2 0 .1 0 0zM16.6 49c.4.3-.7 0 0 0zM188 50c.7.2-.3 2.1 0 0zM11.8 50c.2 2.1-.7.2 0 0zm172.1.8c.7 2-2.3 0 0 0zm-168 0c2.5 0-.7 2.2 0 0zM31 51c3.9-.2 7.7-.3 10.8 2.4 4.6 1.3 12.1 12.2 8.2 13-4.7-.4-10 1.2-13.9-2.3a12.3 12.3 0 0 1-7-7c-1.7-2.4-1.1-5.3 2-6zM162 51c3.1.3 7.8-1 9.4 2.2.5 3.2-1.9 6-3.7 8.5-4 2-7.7 5.7-12.5 4.7-6.6.8-9.6-.4-4-6.6 1.6-4.9 7-6.2 10.8-8.8zm-143.5.1c1.6.3 0 .8 0 0zm162.8 0c0 .8-1.6.3 0 0zM14 51.7c.8.2-.6.8 0 0zm171.8 0c.6.9-1 0 0 0zm2.3.1c1.5 0-1.4.3 0 0zm-176.4 0c1.3.2-1 .1 0 0zm-1.4.7c-1.6.8-.4 1.8 0 0zm179.2 0c.4 1.8 1.6.8 0 0zm-169.8.7c0 .2-.1 0 0 0zm160.4 0c.6 0 .8.7 0 0zm3.9.4c-.4.8-.6.3 0 0zm-168.1 0c.7.5.2.7 0 0zm-6.3.4c1 .3-1 .9 0 0zm180.6 0c.7.9-.7.3 0 0zM13.8 54c1.3.5-.5.8 0 0zm172.2 0c.6.8-1.2.3 0 0zm4.6.3c.6.3 0 .3 0 0zm-181.4 0c0 .3-.6.3 0 0zm16.2.1c0 2-.1.5 0 0zm149 0c.2 1.2 0 1 0 0zm-165.6.3c-.2 1.2-.3.3 0 0zm182.2 0c.3.3.2 1.2 0 0zm-179 .7c.2.6-.6.6 0 0zm175.8 0c.7.6-.2.6 0 0zM21.2 56c.3.5-2.2.7 0 0zm157.4 0c2.2.7-.3.4 0 0zm12.8 0s.2.3 0 0zm-183 0c-.2.3 0 0 0 0zm183.1 0c.7.2.4 1 0 0zM8.3 56c-.4 1-.7.2 0 0zm6.6.3c0 .8-1.2-.2 0 0zm170.6.1c-1.2 0-.3.1 0 0zm-8.8.2c1.4 1.8-1.2.3 0 0zm-153.6 0c1.2.7-1.3 1.4 0 0zm-2 0c0 .3-1.2.3 0 0zm157.7 0c1.2.3-.2.4 0 0zm-170.6.6c-.4.6-.4-.3 0 0zm183.4 0c.4-.3.4.6 0 0zm-183.8.1c-.2.5-.5 0 0 0zm184.2 0c.5 0 .2.5 0 0zm-184.5.1c0 .3-.8.3 0 0zm184.8 0c.8.3 0 .3 0 0zM7 57.8c-.2 1.2-.2.3 0 0zm185.8 0c.2.3.2 1.2 0 0zm-182.6.7c.2 0 .2.3 0 0zm179.4 0c-.7.5.3 0 0 0zm.2.3c0 .5 0 0 0 0zM10 58.8c.4.3-.2.3 0 0zm166.2 2.4zm-165.7.2zm3.8 3.2c0 .1 0 0 0 0zm171.2 0s0 .1 0 0zM16 65.7c.2.3-.2.2 0 0zm167.9 0c.1.2-.2.2 0 0zM10.3 66c1 1-.8 0 0 0zm179.2 0c-.1 1 0 .3 0 0zm-177 0c.4.7-.7 0 0 0zm175 0c-.1.8-.6 0 0 0zM25.9 66c6-.4 11.4 4.6 3.5 6.7-3.8.4-9.2 1-11.2-3.2 1.5-2.7 4.7-4 7.7-3.5zm148 0c3.5-1.1 11.6 3.7 5 6.1-.6 1.8-2.3.2-4.8.8-4.6.7-13-4.3-4.4-6.1 1.1-1.2 2.8-.6 4.2-.8zm16 .2c.3.6-1.3 1 0 0zM10 66.5c.6.5-.5 0 0 0zm5 .6c1 1.8-2 .6 0 0zM192 69c.2-.1.4.5 0 0zM7 69.5c.2.3-.5.8 0 0zm185.3.3c0 .4-1.4.3 0 0zM7 69.9c0 .1 0 .4 0 0zm7.9 1.2c1.7 1.4-1.7.2 0 0zm170.6 0c.3 0 0 .4 0 0zM9 71.5c-.1.2-.1.1 0 0zm180.7 1l.3.3zm-179.6 0c-.5.7-.3 0 0 0zm.4 0c.4 1.2-1.3.7 0 0zm178.8.2c1.2.5-.4.9 0 0zm-176.8.2c.4.5-.6.3 0 0zm174.8 0c.8.4-.5.4 0 0zm-3.4.5s0 .2 0 0zm-167.6.3c.1.4-.4.9 0 0zm167.2 0c.7.4-.5.8 0 0zm.7.4c0 .2-.1 0 0 0zm-165 2.2s-.2.1 0 0zm161.4 0c.2.1 0 0 0 0zM22.5 77.8c5.2-1.5 2.4 3.3-.6 4.3-6.6 3-3.5-3.1.6-4.3zm154.8 0c5.8 1.6 5 7.7-.4 3.7-2.5-1.7-4.6-4.8.4-3.7zM10.2 80c.2.8-1 0 0 0zm179.4 0c1 0-.2.8 0 0zm-179.2.4c0 .3-.8.3 0 0zm179 0c.7.3 0 .3 0 0zm3 .5c.6.4-.6 1.2 0 0zm-185 0c.7 1.1-.6.5 0 0zm.5.3c.5 1-.7.3 0 0zm184 0c.7.4-.5 1 0 0zm.5.4c0 .4-.1 0 0 0zm-185 0c.1 0 0 .4 0 0zm184.6.1c.5.3-.4.6 0 0zm-184.2 0c.4.4-.5.4 0 0zm184.3.4c0 .1 0 0 0 0zm-184.4 0s0 .1 0 0zm6.8.4c1.2.1-1 .4 0 0zm170.8 0c.8.3-1 .1 0 0zm-177.4 0c1 .8 0 .5 0 0zm184 0c0 .5-1 .8 0 0zM8.3 83c.2.2 0 0 0 0zm183.2 0s-.2.2 0 0zm-179.7.2c.6.7-.2.1 0 0zm176.2 0c.2.1-.5.6 0 0zm-179.4.5c.7 1.2-.2.3 0 0zm182.6 0c.2.3-.7 1.2 0 0zM14 84.5c1 .2-1.1.8 0 0zm176.8 0c-.2.5-.3-.2 0 0zM9 84.5c.3-.2.2.5 0 0zm176.8 0c1.4 1.2-1.4 0 0 0zm4.7.1c0 .4-1.4.3 0 0zm-181.2 0c1.4.3 0 .4 0 0zm174.3.3c.4.4-.1.1 0 0zm-167.4 0c.1.1-.3.3 0 0zm-6.7.4zm180.8 0c0 .1 0 0 0 0zm-174.4 0c0 .2-.3.3 0 0zm168 0c.3.2 0 .2 0 0zm-174.3.2c.1.3 0 0 0 0zm180.6 0s-.1.3 0 0zM24 86.1c-.2 4.1-4.4 3.5 0 0zm151.8 0c3.3 1 2 7.5 0 0zM14 87c1 .5-.3.5 0 0zm170 2.9c1.2.6-1.5-.2 0 0zm-168 0c.4.1-.8.4 0 0zm.4.1zm17.5.2c0 .4-.1 0 0 0zm-17.6.2c-.3.7-.6-.5 0 0zm-.6 0c0 .3-.2.1 0 0zM187 91c0 .4-1.2 1 0 0zM12.8 91c1.2 1 0 .4 0 0zM168 92.5c-.2.5-.5.2 0 0zm-136 0c.7 0-.2.7 0 0zm-.5.1c.1 0 0 .1 0 0zm3.6 1c0 .1-.3.3 0 0zm147.9.5c-.6 1.5-.7 1.5 0 0zm-166 0c.7 1.5.6 1.5 0 0zm1 .2c.9 1.9-.5.4 0 0zm164 0c.5.4-.9 1.9 0 0zM24.6 95c.1 0 0 .5 0 0zm147.4 0c.2 0 0 .4 0 0zm3.2 0c.2.3-.3.4 0 0zM27.7 95c0 .4 0 .1 0 0zm-3.6.1c.5.4-.2.4 0 0zm4.1 0c.2.2-.3.3 0 0zM20 95c.2.2-.5.4 0 0zm159.8 0c.5.4-.2.2 0 0zM21.5 96.9c.8 1.4.6 1.5 0 0zm9.3 0c-.8 1.9-.7 1.3 0 0zm138.2 0c.7 1.3.8 1.8 0 0zm9.3 0c-.6 1.5-.7 1.3 0 0zm-4.2.2c0 .5-1.2 1.5 0 0zM30 97c0 .5-1.2 1.5 0 0zm147.5 0c0 .5-1.2 1.5 0 0zM25.2 97c.7.4.4 1.8 0 0zm149.4 0c-.2 1.4-1 1 0 0zm-2 0c1.1.7-.5 1 0 0zM27.2 97c.5 1-1.1.6 0 0zm1.3 0c-.2.8-1 1.2 0 0zm-4.6.1c1 .7 0 .8 0 0zm152 0c0 .8-1 .7 0 0zm-151 0c-.1.8-1 1 0 0zm147.5 0c-.2.8-1 1 0 0zm-150.2.2c0 .1.1.2 0 0zm5.2 0c0 .2 0 .2 0 0zm143.9 0c0 .2 0 .2 0 0zm-.7 0c.6.5 0 .3 0 0zm2.5 0c.1.2-.5.5 0 0zm-144 0c.2.2-.4.5 0 0zm-2.4 0c.5.5 0 .3 0 0zm-4.4.1c.5.6 0 .1 0 0zm3.5 0c.6.6 0 .1 0 0zm144 0c.5.5 0 .1 0 0zm1.6 0c.6.6 0 .2 0 0zm-144 0c.7.7.1.2 0 0zm147.5 0c.7.6 0 .2 0 0zm-148 .2c.3.1-.7.6 0 0zm146 0c.7.6-.3.2 0 0z" fill="#fff" stroke="#fff" stroke-width="0" stroke-linejoin="round"/></clipPath></defs><path d="M95.5 144.8V115L86.9 100l-9.2-15.9-.6-1-10.4-6-10.4-6H39.7L35.1 74l-4.6 2.7-1.8 3.1-1.8 3.1v4.7l.8 1.4c.6 1 1 1.4 1.6 1.8 1.4.8 3 .5 3-.5l.3-.4c.3-.3 1 .1 1.2.7.3.8.3 2.3 0 2.4-.1 0-.2.1-.1.2 0 .1 0 .2-.2.3s-.3.3-.3.5 0 .4-.2.4-.1.1 0 .2c0 .2-1.5 1.1-2.4 1.5a2 2 0 0 0-.5.4l-.5.2-.3.2c0 .3-.4.2-.5 0-.1-.2-.1-.2-.1 0s-.5.2-.7 0c0-.2 0-.2-.2 0l-.3.2a.4.4 0 0 1-.3-.2c-.1-.2-.1-.2-.1 0s-.6.3-.6 0c0-.1-.1-.2-.3-.2l-.4.2-.2.2c-.2 0-.3-.1-.3-.2 0-.2-.1-.1-.3 0-.2.2-.3.2-.4 0-.2-.2-.2-.2-.3 0l-.3.2a.4.4 0 0 1-.4-.2c0-.2 0-.2 0 0s-.6.3-.6 0l-.2-.2a29.8 29.8 0 0 0-2.6-1.5l-.8-.5c0-.1 0-.3-.2-.4-.2-.1-.3-.2-.3 0l-.2.1-.3-.1c0-.1 0-.2-.2-.2a29.8 29.8 0 0 0-2.6-1.5c-.5-.2-.8-.5-.8-.6l-.1-.2-.2-.3c0-.2 0-.5-.2-.6-.2-.1-.3-.3-.2-.4l-.2-.2c-.2 0-.2-.2-.2-.5.1-.2 0-.4-.2-.4s-.4-.3-.4-.4c0-.2-.1-.4-.3-.5-.1 0-.2-.1-.1-.2s-.1-.4-.4-.7l-.4-.7c0-.8 0-1.1-.5-1.2-.2 0-.4-.2-.4-.3 0-.3 0-.4-.3-.5a.3.3 0 0 1-.1-.4c0-.2 0-.3-.2-.3s-.3-.1-.3-.4c0-.1 0-.3-.2-.3s-.1-.2-.1-.4c0-.3-.2-.6-.4-.7-.2 0-.3-.2-.3-.3l-.1-.3c-.2 0-.3-.2-.2-.3 0-.2 0-.4-.2-.4l-.2-.4-.2-.2c-.1 0-.2-1-.2-2.4s0-2.4.2-2.4c0 0 .2 0 .2-.2s-.1-.3-.2-.3-.2-1-.2-2.4 0-2.4.2-2.4c0 0 .2 0 .2-.2 0-.1 0-.3.3-.4.3 0 .3-.1 0-.3-.2-.1-.3-.4-.3-.5 0-.2-.1-.3-.2-.3s-.2-1-.2-2.3c0-1.4 0-2.3.2-2.3 0 0 .2-.1.2-.3l-.2-.2c-.1 0-.2-1-.2-2.4 0-1.5 0-2.4.2-2.4l.2-.4c0-.2 0-.3.2-.3s.3-.1.2-.3c0-.1 0-.3.2-.4.1 0 .2-.1.1-.2l.3-.3c.2-.2.4-.4.4-.7l.1-.4.2-.4c0-.2.1-.3.3-.3.2 0 .2-.1.2-.3l.1-.3c.2-.1.2-.3.2-.4 0-.2 0-.3.3-.4.2 0 .3-.1.3-.2s.1-.1.2 0c.2 0 .3-.4.2-1l.4-.8c.3-.3.5-.6.5-.8 0-.1 0-.2.2-.2s.1-.1 0-.3c0-.2 0-.3.4-.4.3-.2.4-.3.3-.6 0-.2 0-.3.2-.4l.2-.3s0-.2.2-.3l.2-.6.2-.3c.1 0 .2 0 .1-.2l1-.7 1-.6v-1.1l.1-1.2c.2 0 .2-.2.2-.3l.1-.2c.2 0 .3-.3.3-.6l.2-.4.2-.2c0-.2.1-.3.3-.4.3 0 .4-.2.3-.5 0-.2 0-.4.2-.4l.2-.4.1-.3c.2 0 .3-.3.3-.4 0-.2 0-.4.2-.4s.1-.1.1-.3c0-.2.2-.4.3-.4.5 0 .8-.5.8-1.1 0-.4 0-.7.2-.7s.2 0 .2-.2 0-.3.2-.3.3 0 .2-.3c0-.1 0-.3.2-.3.1 0 .2-.2.1-.4l.3-.4c.2-.1.4-.4.4-.6l.1-.5c.1 0 .2 0 .2-.2 0-.1.1-.3.3-.3.1-.1.2-.3.1-.4 0-.2 0-.3.2-.4.2 0 .3-.2.2-.2 0-.2 1.6-1.3 1.9-1.3l.1-.1.2-.2 1-.5c.3-.2.7-.4.8-.3 0 0 .4-.1.7-.4.2-.3.8-.7 1.2-.9l.7-.4.4-.2.8-.5a2 2 0 0 1 1.3-.2c.6 0 .7 0 .7-.3 0-.2 0-.4.2-.4s.2 0 .2-.2 3.4-2.3 3.8-2.4a56.6 56.6 0 0 1 .5 0c.1 0 .2-.1.2-.3 0-.3 1.7-1.2 2-1 .1 0 .2 0 0-.1 0-.1.3-.4.8-.7.7-.4 1-.5 2.2-.5a4 4 0 0 1 1.5.1c.2.3.4.2.3-.2 0-.2 0-.4.2-.4l.2-.3s0-.2.2-.3.2-.4.2-.6c0-.2.1-.3.2-.3s.2 0 0-.2l.8-.6a77.2 77.2 0 0 0 3.3-1.8c.4 0 .7 0 .6-.2-.1-.2 1.5-1.3 1.7-1.3 0 0 .6-.2 1-.6.9-.5 1.2-.6 1.8-.5.5 0 .7 0 .7-.2l.2-.4c.2 0 .3-.1.2-.2 0-.2.7-.9.9-.8 0 .1 0 0 0 0l.6-.4c.3 0 .5-.1.5-.2 0-.2 1.6-1 2-1 .6 0 .7 0 .6-.3 0-.2 2-1.5 3-2 .8-.4 1.6-.5 1.8-.2h.3c.2-.2 1-.2 1.4 0h.5c.3-.2 1.2-.2 1.3 0h.3c.3-.2 1-.2 1.6.1.4.2.6.2.9 0 .4-.3 3-.4 3.2-.1h.5l1.5-.2c1.2 0 1.4 0 2.3.6l.9.4.2-.1.8-.5c.6-.3.9-.4 2-.4l1.5.2h.5a7 7 0 0 1 3.2 0c.4.3.5.3 1 0a7 7 0 0 1 3.1 0h.4a6 6 0 0 1 1.6-.1c1 0 1.4 0 2 .3l.8.5.2.1c0 .1 0 .2.2.2l1 .5.9.6.9-.6 1-.5c.1 0 .2 0 .2-.2s.1-.1.2-.1l.8-.5c.6-.3 1-.4 2-.3l1.6.1h.4a7 7 0 0 1 3.2 0c.4.3.5.3.9 0a7 7 0 0 1 3.2 0h.5l1.5-.2c1.1 0 1.4 0 2 .4l.8.5.2.1c0 .1.4 0 1-.4.8-.5 1-.6 2.2-.6l1.5.2h.5c.3-.3 2.8-.2 3.2 0 .3.3.5.3.9.1.6-.3 1.4-.3 1.6-.1h.3c.2-.2 1-.2 1.4 0h.5c.3-.2 1.2-.2 1.3 0h.3c.3-.2 1-.2 1.7.2 1.1.5 3 1.8 3 2 0 .2.1.2.7.3.4 0 2 .8 2 1 0 0 .2.2.5.2l.5.3c0 .2 0 .2.1.1s1 .6.9.8c0 0 0 .2.2.2l.2.4c0 .2.2.2.7.2.6 0 1 0 1.7.5l1 .6c.3 0 1.9 1.1 1.8 1.3 0 .1.2.2.6.2a77 77 0 0 0 4 2.5l.3.4c0 .2 0 .4.2.6.2 0 .3.2.2.3 0 .1 0 .2.2.3.2 0 .2.2.2.4-.1.4.1.5.3.2l1.5-.1c1.1 0 1.5 0 2.2.5.5.3.8.6.7.7 0 .1 0 .1 0 0 .4-.1 2 .8 2 1.1 0 .2.2.3.3.3h.5a17.5 17.5 0 0 1 4 2.6l.2.4c0 .3.1.3.7.3s1 0 1.3.2a9.8 9.8 0 0 0 1.2.7l.7.4c.4.2 1 .6 1.2.9.3.3.6.4.7.4.1 0 .5 0 .9.3l.9.5s.2 0 .2.2 0 .1.1.1c.3 0 2 1.1 1.9 1.3l.2.2.2.4c-.1.1 0 .3.1.4.2 0 .3.2.3.3 0 .1 0 .2.2.2s.1.2.1.5c0 .2.2.5.4.6.2.1.3.3.3.4s0 .3.1.4c.2 0 .2.2.2.3 0 .2 0 .3.2.3.1 0 .2.1.2.3l.2.2c.1 0 .2.3.2.7 0 .6.3 1.1.8 1.1.1 0 .3.2.3.4l.1.3.2.4.3.4c.1 0 .2.2.1.3 0 .2 0 .3.2.4.2 0 .2.2.2.4 0 .3 0 .4.3.5.2 0 .3.2.3.4l.2.2.2.4.2.6c.2 0 .3.1.2.2 0 .1 0 .2.2.3.1 0 .2.4.1 1.2v1.1l1 .6 1 .7v.2c.2 0 .3.2.3.3 0 .2 0 .5.2.6.2.1.3.3.2.3 0 .1 0 .2.2.3.2 0 .2.2.2.4-.1.3 0 .4.3.6.3 0 .4.2.3.4l.1.3.2.2.5.8.4.7c0 .7 0 1.1.2 1h.2c0 .2.1.3.3.3.3.1.4.2.3.4 0 .1 0 .3.2.4.1 0 .2.2.1.3 0 .2 0 .3.2.3s.3.1.3.3c0 .2 0 .4.2.4s.1.2.1.4c0 .3.2.5.4.7.2 0 .3.2.3.3l.1.2c.2.1.2.3.2.4 0 .2 0 .3.2.3.1 0 .2.1.2.3l.2.4c.1 0 .2 1 .2 2.4s0 2.4-.2 2.4c0 0-.2 0-.2.2s.1.3.2.3.2.9.2 2.3 0 2.3-.2 2.3c0 0-.2.1-.2.3 0 .2 0 .4-.3.5-.3 0-.3 0 0 .3.2.1.3.3.3.4l.2.2c.1 0 .2 1 .2 2.4 0 1.5 0 2.4-.2 2.4 0 0-.2.1-.2.3l.2.2c.1 0 .2 1 .2 2.4s0 2.4-.2 2.4l-.2.2c0 .2 0 .3-.2.4-.2 0-.2.2-.2.4 0 .1 0 .3-.2.3-.1 0-.2.2-.1.3l-.3.3c-.2.1-.4.4-.4.7l-.1.4c-.1 0-.2.1-.2.3 0 .2-.1.4-.3.4-.2 0-.2 0-.2.3l-.1.4c-.3 0-.3.2-.3.5l-.4.3c-.5 0-.6.4-.5 1.2l-.4.7c-.3.3-.4.6-.4.7l-.1.2c-.2.1-.3.3-.3.5l-.4.4c-.3 0-.3.2-.2.4 0 .3 0 .4-.2.5-.2 0-.2.2-.2.2l-.2.4-.2.5-.2.4c-.1 0-.2 0-.1.2 0 0-.3.4-.8.6a29.9 29.9 0 0 0-2.6 1.5c-.1 0-.2 0-.2.2l-.3.1c-.1 0-.2 0-.2-.2h-.3l-.2.5-.8.5a29.8 29.8 0 0 0-2.6 1.5l-.2.2c0 .3-.5.2-.6 0 0-.2 0-.2 0 0-.1.2-.6.2-.7 0 0-.2-.1-.2-.3 0-.1.2-.2.2-.4 0-.2-.1-.3-.2-.3 0 0 0-.1.2-.3.2l-.2-.2-.4-.2c-.2 0-.3.1-.3.2 0 .3-.5.2-.6 0 0-.2-.1-.2-.1 0s-.5.2-.6 0c-.1-.2-.2-.2-.2 0l-.4.2a.4.4 0 0 1-.3-.2c0-.2 0-.2-.1 0 0 .2-.5.3-.5 0l-.3-.2a1 1 0 0 1-.5-.2 2 2 0 0 0-.5-.4c-1-.4-2.4-1.3-2.3-1.5l-.1-.2-.2-.4c0-.2-.2-.5-.3-.5-.2 0-.2-.2-.2-.3l-.1-.2c-.2-.1-.2-.4-.2-1 0-1.3.2-1.7.7-2 .5-.4 1-.2 1 .4 0 1 1.7 1.2 3 .4.7-.4 1-.7 1.6-1.8l.8-1.4v-4.7l-1.8-3.1-1.8-3.1-4.6-2.7-4.6-2.7h-16.6l-10.4 6-10.4 6-.6 1-9.2 15.9-8.6 14.9v59.6h-8.8zm8-40.7a15920 15920 0 0 1 8.5-15l5.2-8.9V55.8l-2.2-3.7c-2.3-4-2.8-4.9-3.2-4.9a.8.8 0 0 1-.5-.2 2 2 0 0 0-.5-.4c-.2 0-.3-.2-.3-.3v-.4c-.4 0-.3-1 0-1.1.1-.1 0-.5-.5-1.3-.3-.7-.7-1.4-.9-1.5l-4.7-3-4.5-2.5-4.5 2.6a59.8 59.8 0 0 0-4.7 2.9c-.2.1-.6.8-1 1.5-.4.8-.5 1.2-.4 1.3.3.1.4 1 0 1.1 0 0-.1.2 0 .4 0 .1 0 .3-.3.3a2 2 0 0 0-.5.4l-.5.2c-.4 0-.9.8-3.2 5l-2.2 3.6v24.4l5.2 9a15970.6 15970.6 0 0 1 8.6 14.9l3.5 6 3.5-6zm-80.3-9H23l-.2.4c0 .3 0 .3.2 0l.2-.3zm1.4.5c.1-.7 0-1.6-.2-1.6s-.4.8-.3 1.3c.1.4.5.6.5.3zm3.6-.3c.1-.5 0-1.3-.3-1.3-.2 0-.3 1-.2 1.6 0 .3.4.1.5-.3zm1.2 0c-.2-.4-.3-.3-.1.2l.2.2-.1-.4zm141.2-.2l-.1.1-.2.5.2-.1.1-.5zm1.5.5c0-.7 0-1.6-.2-1.6-.3 0-.4.8-.3 1.3 0 .4.4.6.5.3zm3.6-.3c.1-.5 0-1.3-.3-1.3-.2 0-.3 1-.2 1.6 0 .3.4.1.5-.3zm1.2 0c0-.2-.1-.3-.2-.2v.4l.2.2v-.4zm-145.4-1c0-.2-.1-.3-.2-.3v.3c.2.3.3.2.2 0zm137-.2c0-.1-.2 0-.2.2-.1.2-.1.2 0 0 .2 0 .2-.2.2-.2zM23 93.9c.6-.6.8-1 .8-1.8 0-.6 0-.6-.4-.4l-.4.5c0 .5-.3 1-.8 1.3-.4.4-.4.8.1.8l.7-.4zm3.5 0c1-1 1-2.4.2-4l-.6-1-.7 1c-.4.7-.6 1.1-.6 1.9 0 1 .4 2 .9 2.3.4.3.4.3.8-.2zm3.6-.2c0-.8-.5-1.6-1.2-2l-.5-.2v.6c0 1 .7 2.2 1.4 2.2.3 0 .3-.1.3-.6zm140.3.4a3 3 0 0 0 .8-2v-.6l-.5.3c-.7.3-1.2 1.1-1.2 1.9 0 .7.3.8.9.4zm3.5 0c.5-.4.9-1.3.9-2.3 0-.8-.2-1.2-.6-2l-.7-1-.6 1.1c-.9 1.6-.8 3 .2 4 .4.5.4.5.8.2zm3.8 0c0-.1 0-.3-.3-.6a2 2 0 0 1-.8-1.3l-.4-.5c-.4-.2-.4-.2-.4.4 0 1.4 1.4 2.8 1.9 2zm-145.5-1c0-.4-.6-.9-1-.9-.5 0-.4.3.1.7.5.4 1 .5 1 .1zm136.1-.2c.5-.4.6-.7.2-.7-.5 0-1.1.5-1.1.8 0 .4.4.3.9-.1zm-152-1.5l-.2.2c0 .3 0 .3.1.1.1 0 .2-.2.1-.3zm16.7.3h-.4l.2.1h.2zm134 0h-.4l.2.1h.2zm16.5-.1c0-.2-.2-.2-.2-.2v.3c.2.3.3.2.2-.1zm-165.4-.4l.2-.6c.1 0 .2-.1.2-.3 0-.2.1-.4.3-.4.3-.1.4-.3.4-.6 0-.4 0-.4-.5-.2-.8.4-1.3 1.2-1.3 2 0 .5 0 .6.4.6.3 0 .3-.1.3-.5zm164-.2c0-.7-.4-1.5-1.2-1.9-.5-.2-.5-.2-.5.2 0 .3.1.5.4.6.2 0 .3.2.3.4s0 .3.2.3.2.3.2.6c0 .4 0 .5.3.5s.4-.1.4-.7zM23 90.7c.7-.4 1-.7 1.7-1.9l.8-1.4v-2l-.1-1.8-1.8 1c-1.6.9-1.7 1-2.5 2.3-.6 1.1-.8 1.5-.8 2.3 0 .5.2 1.1.3 1.4.2.5.4.6 1 .6.3 0 1-.3 1.4-.5zm156.2 0l.2-1.5c0-.8 0-1.2-.7-2.3-.8-1.3-1-1.4-2.5-2.4l-1.8-1v4l.7 1.3c.7 1.1 1 1.5 1.7 1.9.5.3 1 .5 1.5.5s.7-.1.9-.6zm-162.8-.5c.3-.2.5-.5.4-.5-.2-.2-1.4.4-1.4.7 0 .4.5.3 1-.2zm168 .2c0-.3-1.2-1-1.4-.7-.1.1.8 1 1.1 1 .2 0 .3-.2.3-.3zM18.4 88c.6-.4 1-.8 1.4-1.4l.5-1c0-.1-.2-.2-.6-.2-.4 0-.6 0-.5.2 0 0 0 .2-.2.3l-.2.2c.1.1-.3.4-.7.7-.7.4-1 .5-1.6.5-.7 0-.7 0-.7.4 0 .6 0 .7 1 .7.6 0 1.1-.1 1.7-.4zm165.6-.2c0-.6 0-.6-.7-.5-.5 0-.9 0-1.6-.5l-.8-.7-.1-.2c-.2 0-.3-.2-.2-.3 0-.1-.1-.2-.5-.2l-.6.1.5 1c.7 1.3 1.7 1.9 3 1.9 1 0 1 0 1-.6zm-169.7-.6c0-.1 0-.2-.2-.3-.3 0-.5 0-.5.3 0 .2.5.2.7 0zm171.9 0c0-.2-.2-.4-.5-.3l-.2.3c.2.2.7.2.7 0zM17.5 86l-.2-.1s-.1 0 0 .1l.1.2.1-.2zm165 0c.1 0 0-.1 0-.1l-.2.1v.2s.2 0 .2-.2zm-166.4-.6c.2-.2.2-.3 0-.6s-.2-.3-.4-.2c-.1.3-.2 1 0 1l.4-.2zm168.1-.2l-.1-.6c-.2-.1-.2-.1-.4.2-.2.3-.2.4 0 .6.4.2.5.1.5-.2zm-169.7-.6c.3-.2.4-.4.3-.4-.1-.2-1 .3-1.1.6-.1.3.3.2.8-.2zm171.6.2c0-.3-1-.8-1.1-.6-.2.1.6.8 1 .8 0 0 .2-.1.1-.2zM23.1 83l2.2-1.2 1.5-2.7 1.6-2.8H22.1l-2 1.1C18 78.7 18 78.7 17.1 80c-.6 1.2-.7 1.5-.7 2.3v1l.8.5c.7.4 1 .5 2.3.5h1.5zm159.4.7l.8-.5v-1c0-.8 0-1.1-.7-2.3-.8-1.3-.8-1.3-2.8-2.5l-2.1-1.2h-3.2l-3.1.1 1.6 2.8 1.5 2.7 2 1.2 2.2 1.2h1.4c1.3 0 1.6 0 2.4-.5zM12 83.4c0-.4-.4-.3-.5 0-.1.3 0 .3.2.3s.3 0 .3-.3zm176.3 0c-.1-.3-.5-.4-.5 0 0 .2.1.3.3.3.2 0 .3 0 .2-.2zM15 83c-.2-.4-.6-.5-.7-.2-.2.3 0 .5.5.5.4 0 .4 0 .2-.3zm170.5 0c0-.4-.5-.4-.7 0-.2.3-.2.3.2.3.3 0 .5-.2.5-.3zM12.7 81.5c0-.1 0-.3.2-.3l.2-.4c0-.3 1.6-1 2.3-1 .5 0 .6 0 .8-.5l.3-.6h-1.2c-.8 0-1.3 0-1.9.4-1.4.7-2 2-1.4 2.5.4.3.8.3.7 0zm175.1 0c.7-.4 0-1.7-1.4-2.4-.6-.4-1-.5-2-.5l-1 .1.2.6c.2.4.3.5.8.5.7 0 2.3.7 2.3 1l.2.4c.2 0 .3.2.2.3-.1.4.3.4.7 0zM10.6 80.5c.6-.4.7-.7.2-.7-.4 0-1.2.7-1.1.9.1.2.2.2.9-.2zm179.5.2c.1-.2-.7-1-1.1-1-.5 0-.4.4.2.8.6.4.8.4 1 .2zM9.5 79.2H9l.2.1h.3zm181.3 0h-.5l.3.1h.2zm-178.4-.8c.5-.3.6-.4.3-.6-.2-.1-.4-.2-.6 0h-1.5c-.2-.3-.7-.3-.8 0-.1.5.6 1 1.4 1l1.2-.4zM74 48.8l-4-7-3-1.7c-1.6-1-3.1-1.7-3.4-1.7-.4 0-1.1-.4-1.1-.7l-1-.8-.9-.6h-7L52 39.4c-1.7 3-1.7 3.1-1.7 4.2 0 .7 0 1.2.2 1.2s.3 1 0 1.1c-.2.1-.2 1-.2 3.7V53l4 7.1 4.2 7.2 9.8 5.7 10 5.7V56zM131.7 73l9.8-5.7 4-7 4.1-7.2v-3.5c0-2.4 0-3.6-.2-3.6-.3-.1-.3-1 0-1.2.2 0 .2-.4.2-1.2 0-1 0-1.2-1.7-4.2l-1.8-3.1h-7l-1 .6-.9.8c0 .3-.7.7-1.1.7-.3 0-1.8.7-3.4 1.7l-3 1.7-4 7-4.1 7v11.6l.1 11.4 10-5.8zm57.9 5.5l.4-.5c0-.3-.4-.5-.7-.3-.3.2-1.2.2-1.6 0l-.6.1c-.3.2-.2.3.3.6.7.5 1.6.5 2.2.1zM19 76.4l1.7-1-.8-.5c-1-.5-1.2-.6-1-.3 0 0 0 .2-.3.3l-.4.2c0 .1 0 .1-.1 0l-.2.1c0 .3-1 .6-1 .4 0-.1-.2 0-.4 0-.2.2-.3.2-.4 0-.1-.2-.2-.2-.4 0-.3.2-.4.2-.4 0 0-.1-.2-.1-.4 0-.1.2-.3.2-.3.1l-1-.5-.7-.5c0-.3-.7-.1-.9.2-.3.6.1 1.4 1.2 2 .8.4 1 .5 2.5.5h1.5zm167.6.5c1-.6 1.5-1.3 1.1-2-.1-.3-.8-.5-.8-.2l-.8.5-.9.5h-.3c-.2-.2-.3-.2-.4 0 0 .1-.1.1-.4 0-.2-.3-.3-.3-.4 0-.1.1-.2.1-.4 0-.2-.2-.3-.2-.4 0 0 .1-1-.2-1-.5h-.2-.1c0-.2-.2-.3-.4-.3s-.3-.2-.3-.3c.2-.3 0-.2-1 .3l-.8.5 1.7 1 1.7 1h1.6c1.4 0 1.7 0 2.5-.5zm-177.4 0l-.1-.1h-.2c0 .2 0 .2.2.2h.1zM191 77v-.2c-.1 0-.2 0-.2.2-.1 0 0 .1 0 .1l.2-.1zm-176.2-3l-.4.3c-.2.4-.2.4.2.2l.2-.5zm1.6-.1c0-.3-.1-.5-.4-.5-.3 0-.4.4-.2 1 .1.4.6 0 .6-.5zm1 .3c-.1-.4-.2-.2 0 .2 0 .2.1.3.2.2l-.1-.4zm165.3-.1c0-.1 0-.1-.2 0l-.1.5.1-.1.2-.4zm1.6-.3c0-.2 0-.4-.3-.4-.4 0-.5.7-.2 1 .3.3.5 0 .5-.6zm1.2.5c0-.2-.2-.3-.3-.3 0 0 0 .3.2.4.3.4.4.3.1-.1zM33.6 72l4.2-2.4-4-2.4a69.7 69.7 0 0 1-4.2-2.5c0-.1-1.7-.2-3.8-.2h-3.6l-2.1 1.3c-2 1.1-2.1 1.2-2.9 2.5l-.7 1.2.4.8c.3.3.6.9.7 1.2.2.4.9.9 2.3 1.7l2 1.2h7.5l4.2-2.4zm146.3 1.2c1.4-.8 2-1.3 2.3-1.7.1-.3.4-.9.7-1.2l.4-.8-.8-1.2c-.7-1.3-.7-1.3-2.8-2.5l-2.1-1.3h-3.7c-2 0-3.6 0-3.7.2l-4.2 2.5-4 2.4s2 1 4.2 2.4l4.2 2.4h7.4l2-1.2zm-169.3-.4c0-.5-.3-.6-.6-.4-.4.3-.2.8.3.8.3 0 .3-.1.3-.4zm2 .2v-.2c-.1 0-.2 0-.3.2l.1.2.2-.2zm175 0l-.2-.1c-.1-.1-.2 0-.2 0l.2.3.2-.1zm2.4-.1c0-.3-.3-.7-.6-.6l-.2.5c0 .3 0 .4.3.4.2 0 .4-.2.5-.3zm-174.7-1c.1-.4.1-1.6 0-1.6l-.6.4c-.7.4-1.2 1.1-.8 1.3.5.2 1.3 0 1.4-.2zm170.6.1c.4-.2 0-.9-.8-1.3l-.6-.4v1.5c.1.3.8.4 1.4.2zM9.4 71.6c0-.1-.1-.2-.3-.2-.1 0-.2 0-.2.2s.1.2.2.2c.2 0 .3-.1.3-.2zm181.5 0l-.2-.2c-.2 0-.3 0-.3.2s.1.2.3.2l.2-.2zM13 71h-.3c-.2 0-.1.1 0 .1h.3zm174.4 0h-.3c-.1 0-.1.1.1.1h.2zM14.1 69.8l.4-.2-.4-.3c-.4-.2-1.6-.3-2.1 0-.3 0-.4.4 0 .6.3.1 1.6 0 2-.1zm173.7 0c.2 0 .3-.1.3-.3 0-.4-1.5-.6-2.4-.2l-.4.2.4.2c.4.3 1.6.4 2.1.2zM15.3 67.5c0-.3-.2-.4-.7-.4l-.8.1c-.2.2.4 1 1 1.3.5.3.5.3.6-.1v-.9zm170.6.3c.3-.6.2-.7-.6-.7s-1 .2-1 1.1v.6l.7-.2.9-.8zm-173 .2l-.1-.2c-.1 0-.2 0-.3.2l.2.1.2-.1zm174.4 0l-.3-.2-.1.2c0 .2 0 .1.2.1s.3 0 .2-.1zm-132.7-.6a2026.5 2026.5 0 0 1-7-12c-.3-.4-2-1.5-5-3.2l-4.4-2.6h-7.5l-2 1.1-1.8 1.1v4.5l1.8 3.2 1.8 3.1 4.6 2.7 4.6 2.6H55l-.4-.5zm110-2.1l4.7-2.7 1.8-3.1 1.8-3.2v-4.5l-1.9-1-2-1.2h-7.4l-4.5 2.6c-3 1.7-4.6 2.8-4.9 3.1a174.5 174.5 0 0 0-7 12l-.4.7H160zM9.5 67.4H9l.1.1h.3zm181.5 0h-.4l.1.1h.3zm-180.3-1c0-.4-.1-.5-.3-.5-.5 0-.7.5-.3.7.3.3.5.2.6-.3zm179.2.2c.4-.2.2-.7-.3-.7-.2 0-.3.4-.2.9 0 0 .3 0 .5-.2zm-177.2-.5l-.2-.2c-.1 0-.1.1 0 .2l.1.2V66zm174.9 0l-.1-.2-.2.2v.2l.3-.2zm-171.2-.8c0-.5-.5-1-.6-.5-.2.6-.1 1 .2 1 .3 0 .4-.2.4-.5zm168 .1c0-.6-.3-1-.5-.7-.4.3-.4 1 0 1 .3 0 .4 0 .4-.3zm-169.8-.7c-.4-.3-.4-.3-.2.1.2.3.3.4.4.3l-.2-.4zm171 .1c.2-.3.2-.3-.1-.1-.2.1-.3.3-.3.4 0 .2.2.1.4-.3zm-168-.2s-.2 0-.2.2c-.1.3-.1.3 0 .1.2-.1.2-.2.2-.3zm165 .2c0-.2-.1-.3-.2-.2v.3c.2.2.3.2.2-.1zm-162.7-.6l1-.5-1.8-1-1.7-1h-1.6c-1.4 0-1.7 0-2.4.5-1.1.6-1.6 1.3-1.2 1.9.2.4.8.6.8.2l.2-.1.9-.4c.6-.5 1.3-.5 1.7-.3h.3c.2-.3 2.2.1 2.2.5l.4.2c.2 0 .3.2.3.3-.2.3 0 .2 1-.3zm161.1.3c0-.1 0-.2.3-.3l.4-.2c0-.4 2-.8 2.2-.5h.3c.4-.2 1-.2 1.7.3l.9.4.2.1c0 .4.6.2.8-.2.4-.6 0-1.3-1.2-2-.7-.3-1-.4-2.4-.4h-1.6l-1.7 1-1.7 1 .8.5c1 .5 1.2.6 1 .3zM28.4 62.6L27 60.1l-.6.2c-.6.3-1.4.3-1.6.1h-.3c-.4.4-2-.1-2.7-.8a11 11 0 0 0-1.8-1c-.2 0-.4-.2-.4-.4s0-.2-.1-.2l-.2-.4c0-.3-.1-.5-.3-.6l-.2-.2-.1-.3c-.2 0-.2-.2-.2-.4.1-.3 0-.4-.2-.5-.3 0-.4-.2-.4-.4s-.2-.1-.7.2c-.7.4-.7.4-.7 1.3s0 1.2.7 2.4c.8 1.2.9 1.3 2.8 2.4l2 1.2h6.4zm151.3-1c2-1.2 2-1.2 2.8-2.5.7-1.2.8-1.5.8-2.4 0-1 0-1-.7-1.3-.5-.3-.7-.4-.7-.2s-.1.3-.4.4c-.2 0-.3.2-.2.5 0 .2 0 .4-.2.4-.1 0-.2.2-.1.3 0 0 0 .2-.2.2-.2.1-.3.3-.3.6 0 .2 0 .4-.2.4s-.1.1-.1.2c0 .2-.2.3-.4.4-.3 0-1.6.8-1.8 1-.6.7-2.3 1.2-2.7.8h-.3c-.2.2-1 .2-1.6 0l-.6-.3-1.4 2.5s1.3.2 3 .2h3.2l2.1-1.2zm-170.6.6c.1 0 0-.2 0-.2l-.2.2v.2c.1 0 .2 0 .2-.2zm181.8 0s0-.2-.2-.2-.1.1 0 .2l.1.2.1-.2zm-180.3-.9s.2-.1.4 0c.2 0 .4 0 .6-.2h.3c0 .3.4.4.8.1.3-.2.2-.2-.3-.6-.3-.2-.9-.3-1.2-.3-1 0-1.9.8-1.2 1.1h.6zm177.3-.2h.3c.2.1.4.2.6.1l.4.1c.3.3.8.1.8-.2 0-.4-.8-.8-1.4-.8-.3 0-.9.1-1.2.3-.5.4-.6.4-.3.6.4.3.8.2.8 0zM16.3 60c-.3-.5-.5-.6-1-.6-.8 0-2.4-.9-2.3-1.1V58l-.2-.4c0-.2-.1-.3-.2-.3-.4 0-.9.4-.9.7 0 .5.8 1.4 1.6 2 .7.4 1 .4 2 .4h1.3zm170 .1c1.5-.8 2.2-2 1.5-2.5-.4-.3-.8-.3-.8.1 0 .2 0 .4-.2.4v.2c.1.2-1.5 1.1-2.3 1.1-.5 0-.7.1-1 .6l-.3.6h1.2c1 0 1.3-.1 2-.5zM9.6 59.8H9l.2.1h.3zm181.3 0h-.5l.3.1h.2zM11 59.2c0-.3-1.3-1-1.5-.8-.2.2.8 1 1.2 1 .3 0 .4 0 .3-.2zm12.2-.2s0-.1-.1 0l-.2.2c0 .1 0 .2.2.1l.1-.3zm1.6-.6c0-.4-.1-.7-.2-.7-.2 0-.4 1-.2 1.5s.5 0 .4-.8zm1.2.5c-.3-.3-.3-.3-.1.1.1.2.2.4.3.3l-.2-.4zm147.7.1c.2-.4.2-.4 0-.1-.2 0-.3.3-.3.3 0 .3.1.2.3-.2zm1.6-.6c0-.4-.2-.7-.3-.7-.2 0-.3 1-.2 1.5.2.5.5 0 .5-.8zm1.3.6c-.2-.1-.2-.1-.2 0 0 .2.2.4.3.3l-.1-.3zm13.1 0l.4-.6c-.2-.2-1.4.5-1.5.8-.2.4.6.2 1.1-.2zM21.3 57.9v-.3l-.3.3v.3l.3-.3zm157.5 0l-.2-.3c-.1 0-.2.2-.1.3l.3.3v-.3zm-155.6 0c.3-.3 1-1.3.8-1.4l-1-.6c-.5.6-.7 1-.7 1.5 0 .6.2.7.9.4zm154.3-.5c0-.5-.2-.9-.6-1.5l-1.1.6c-.2 0 .5 1.1.8 1.3.6.4 1 .2 1-.4zM21 56.7l.7-.6c0-.2 0-.2-.4-.1-.5 0-1.1.5-1.1.8 0 .2.3.2.8-.1zm158.6 0c0-.2-.6-.6-1-.7-.5-.1-.5-.1-.5.1.2.5 1.5 1 1.5.7zM15 56.6v-.3c.2-.2 0-.3-.2-.3-.4 0-.6.2-.4.5 0 .2.6.3.6.1zm170.6-.3c0-.1-.1-.3-.4-.3-.4 0-.4 0-.2.4 0 .4.6.3.6 0zM12 55.7c0-.2-.1-.4-.3-.4-.4 0-.4.1 0 .5.3.3.3.3.3-.1zm176.3-.1c.1-.2 0-.3-.2-.3s-.3.2-.3.4c0 .4.4.3.5-.1zm-162.9-1v0zm149 0v0zM15 54.8c0-.1-.8-.7-1-.7-.4 0-.3.4.2.6.6.3.8.4.8.1zm170.7 0c.5-.3.7-.7.4-.7-.3 0-1 .6-1 .7 0 .3 0 .2.6 0zm-169.3-.9c0-.1-.6-.4-.7-.2v.5c.2.5.2.5.4.2l.3-.5zm168 0c0-.3-.2-.4-.6-.2-.2.2-.2.3 0 .6s.2.3.4.1l.1-.5zm-160.4 0c.3-.2.7-.8 1-1.2l.4-.9H24c-1.1 0-1.7.2-2.6.8-.1.1.6 1 1.1 1.3.7.5 1 .5 1.4 0zm153.4 0c.5-.3 1.2-1.2 1-1.3-.8-.6-1.4-.8-2.5-.8h-1.3l.5.9c.4.8 1.2 1.6 1.5 1.6l.8-.4zm-157.6-.7l.4-.3h-.5c-.4 0-.5 0-.4.3v.4l.5-.4zm161 0c0-.2-.1-.3-.5-.3-.5 0-.5 0-.1.3.4.5.5.5.5 0zm-98.5-3.1a62 62 0 0 0 1.8-3.2l-.3-.3a9.5 9.5 0 0 1-2.3-1.4l-.3-.4c-.1-.1-.2-.3-.1-.5 0-.1 0-.2-.2-.2s-.3-.2-.3-.3c0-.2 0-.3-.2-.3s-.2-.2-.2-.5 0-.5-.3-.6c-.2 0-.3-.2-.3-.3l-.1-.4a.3.3 0 0 1-.2-.4c0-.1 0-.2-.2-.2s-.3-.2-.3-.4l-.1-.3c-.2 0-.2-1-.2-2.3 0-1.5 0-2.3.2-2.3l.1-.3-.1-.3c-.2 0-.2-.9-.2-2.3s0-2.4.2-2.4l.1-.4c0-.2.1-.3.3-.3.2 0 .3-.1.2-.3 0-.2 0-.3.2-.4 0 0 .2-.1.1-.2 0-.1 0-.3.3-.4.2 0 .3-.3.3-.6l.2-.4.2-.4c0-.2.1-.3.3-.3.2 0 .2-.1.2-.3-.1-.2 0-.3.1-.4.2 0 .3-.2.3-.4s.2-.3.4-.4c.4-.1.6-.4.5-1.2 0-.2 0-.4.2-.4.2-.1.2-.2.2-.3 0 0 0-.2.2-.3.6-.2.2-.7-1.1-1.5l-1.4-.8-2 1.2-2 1.2-1.7 3-1.8 3v11l1.8 3.2 5.7 9.8 1.8-3.1zM123 47a738 738 0 0 0 3.7-6.4c.1-.3.2-2.2.2-5.9v-5.5l-1.8-3-1.7-3-2-1.2-2-1.2-1.4.8c-1.3.8-1.7 1.3-1 1.5 0 0 .2.2.1.3 0 0 0 .2.2.3l.2.4c0 .8 0 1 .5 1.2.2 0 .4.2.4.4s.1.4.3.4c.1 0 .2.2.1.4 0 .2 0 .3.2.3s.3.1.3.3c0 .2 0 .4.2.4s.2.2.2.4c0 .3.1.5.3.6.2.1.3.3.3.4l.1.2c.2 0 .3.2.2.4 0 .2 0 .3.2.3.1 0 .3.1.3.3l.1.4c.2 0 .2.9.2 2.4 0 1.4 0 2.3-.2 2.3l-.1.3.1.3c.2 0 .2.8.2 2.3 0 1.4 0 2.3-.2 2.3l-.1.3c0 .2-.2.4-.3.4-.2 0-.3 0-.2.2 0 .2 0 .3-.2.4-.1 0-.2.2-.1.4 0 .1 0 .3-.3.3-.2 0-.3.3-.3.6s-.1.5-.2.5l-.2.3c0 .1-.1.3-.3.3-.2 0-.2 0-.2.2l-.1.5-.3.4c0 .2-1.8 1.3-2.3 1.4l-.3.3c0 .2 3.6 6.3 3.7 6.2L123 47zm-75.4.5c-.2-.3-.3-.3-.6 0h-.3c0-.2-.2-.2-.4 0H46l-1-.5-.7-.5-.1-.1c-.3 0-2-1.1-2-1.2.1 0 0-.2 0-.4-.2-.1-.3-.3-.2-.4 0-.1 0-.2-.2-.3l-.3-.3c0-.2 0-.3-.2-.3s-.1-.2-.1-.5c0-.4-.1-.5-.4-.6-.3 0-.4-.2-.3-.3l-.1-.4c-.2 0-.2-.2-.2-.4 0-.1 0-.2-.2-.2l-.2-.4c0-.2-.1-.3-.2-.3s-.2-1-.2-2.3c0-1.5 0-2.3.2-2.3l.2-.3-.2-.3c-.1 0-.2-.3-.2-.7v-.7h-2.3l-.7 1.3-.7 1.2v4.9l1.8 3 1.7 3.1 4.3 2.5 4.3 2.5V50c0-1.8 0-2.3-.2-2.5zm112.7 0c.2-.1 1-1.6 2-3.3l1.8-3v-4.9l-.7-1.2-.7-1.3h-2.3v.7c0 .4 0 .7-.2.7s-.2.2-.2.3l.2.3c.1 0 .2.8.2 2.3 0 1.4 0 2.3-.2 2.3 0 0-.2.1-.2.3 0 .2 0 .4-.2.4s-.3 0-.2.2c0 .2 0 .3-.2.4-.1 0-.2.2-.1.4 0 .1 0 .2-.3.3-.3 0-.4.2-.4.6l-.1.5c-.1 0-.2.1-.2.3 0 .1-.1.3-.3.3l-.2.3-.1.4-.2.4c.1 0-1.6 1.1-1.9 1.1l-.1.2-.8.5-.9.5h-.3c-.2-.2-.3-.2-.4 0h-.3c-.3-.3-.4-.3-.6 0-.2.2-.3.7-.3 2.5v2.3l4-2.3a239 239 0 0 0 4.4-2.5zm-146 4.3c-.2-.2-.7-.2-.7 0s.2.4.5.3l.2-.3zm171.8 0c0-.2-.2-.1-.4 0-.3 0-.3 0 0 .2.2.2.6 0 .4-.3zM16.8 51c0-.7-.1-.8-.7-.5-.2.1-.3.4-.3.7 0 .4 0 .5.5.4.4 0 .5 0 .5-.6zm2.3.4l-.6-.4.2.4.7.3-.3-.3zm162 0l.2-.4-.6.4-.3.3.7-.3zm3-.2c0-.3-.2-.6-.4-.7-.6-.3-.7-.2-.7.5 0 .6 0 .6.5.6s.5 0 .5-.4zm-162.7 0l.4-.2-.5-.2c-.4-.2-.5-.2-.6 0-.1.3 0 .7.2.7 0 0 .3 0 .5-.2zm157.8.1l-.1-.5c-.1-.2-.2-.2-.6 0l-.5.2.4.3c.5.3.6.3.8 0zm-154.4-.9l-.5-.9c-.5-1-1.7-1.7-2.7-1.7-1.4 0-1.2 1.2.4 2.1a3 3 0 0 0 1.8.6h1zm153-.5c1.6-1 1.8-2 .4-2-1 0-2.2.7-2.7 1.6l-.5 1h1a3 3 0 0 0 1.8-.6zm-151-.8c.8-1.4.8-1.8 0-2.3l-1.3-.4c-.6 0-.6 0-.6.9 0 .7.2 1.1.6 1.8l.7 1 .6-1zm147.5 0c.4-.7.6-1.1.6-1.8 0-.9 0-.9-.6-.9-.8 0-2 .7-2 1.2 0 .4 1.1 2.5 1.3 2.5l.7-1zm-157.5.2c0-.4-.7-1-1.2-1-.4 0-.2.6.4.8.6.3.8.4.8.2zm167-.2c.5-.2.8-.7.4-.7-.5 0-1.2.5-1.2.9 0 .2.1.2.8-.2zm-154.5-.6c0-.2-.3-.1-.7.2l-.4.4.6-.3.5-.3zm141.9.2c-.4-.3-.7-.4-.7-.3l1 .7s0-.2-.3-.4zM16.3 47.4c-.2-.2-.2-.2 0 0l.1.3v-.3zm167.3 0s0-.1-.1 0l-.2.2c0 .2.2.2.3-.1zm-159.7-.3c0-.5-.1-.6-.4-.6-.5 0-.6.4-.2.8.6.4.6.4.6-.2zm13.2.4l-1.5-2.8L34 42l-2-1.2-2.2-1.2h-1.4c-1.3 0-1.6.1-2.3.5-.8.4-.8.5-.8 1.2 0 .6 0 .8.2.8l.4.2c0 .2.1.2.5 0s.5-.2.7 0c0 .2.1.2.1 0 0 0 .1-.2.3-.2l.3.2h.3c.3-.2.4-.2.5 0 .2.2.2.2.2 0 0 0 .1-.2.3-.2l.2.2.2.2 1 .5 1.7 1c.4.2.7.5.7.6l.1.2c.1 0 .2.1.2.3l.3.5.2.4.1.2c.2 0 .3.3.2.6v.7h3.1zm128.7-.6c0-.3 0-.6.2-.7.1 0 .2-.1.1-.2l.2-.4c.2 0 .3-.3.3-.5s0-.3.2-.3.1-.1 0-.2l.8-.7a30 30 0 0 0 2.6-1.4c.2 0 .3-.1.3-.2l.2-.2c.2 0 .3.1.3.2 0 .2 0 .2.2 0 .1-.2.2-.2.5 0h.3l.3-.2c.2 0 .3.1.3.2 0 .2 0 .2.1 0 .2-.2.3-.2.7 0 .4.2.5.2.5 0l.4-.2c.1 0 .2-.2.2-.8 0-.7 0-.8-.8-1.2-.7-.4-1-.5-2.3-.5H170l-2.1 1.2-2.1 1.2-1.6 2.7-1.5 2.8h3.1zm11 0c0-.2-.3-.3-.5-.3-.3 0-.4 0-.4.5s0 .5.4.3l.4-.5zM33 47.3h-.2.2zm134 0h-.2.2zM30.2 45.4c0-.5 0-.6-.3-.6-.4 0-.8.3-1.1.9-.3.5-.3.5.2.8l.6.4.3-.4c.2-.2.3-.7.3-1zm1.7 1.2c.5-.3.6-.8.2-.8-.3 0-1.2.7-1.2 1 0 .2.6.1 1-.2zm137 .1c0-.2-1-.9-1.2-.9-.4 0-.3.5.1.8.5.3 1 .4 1 .1zm2.2-.4c.4-.3-.6-1.5-1.2-1.5-.4 0-.4 1 0 1.6.2.5.5.5 1.2 0zm-125-.6l-.4.3c-.2.4-.2.4.1.1.2-.1.3-.3.3-.4zm1.6-.2c0-.3-.1-.6-.3-.7-.2-.2-.2-.2-.3.2v1c0 .3.1.3.3.2.2-.1.3-.5.3-.7zm105.1 0c0-.6-.2-1-.4-.7-.3.2-.4 1 0 1.3.2.3.4 0 .4-.6zm1.2.5c0-.2-.2-.3-.3-.3l.2.4c.3.4.4.3.1-.1zM23 45l-.5-.2c-.2 0-.2 0 0 .2l.6.3c.2 0 .2 0 0-.3zm154.3 0c.2-.2.2-.2 0-.2-.1 0-.4 0-.6.2-.2.2-.3.3 0 .3l.6-.3zM24.6 45v-.6c.2-.2 0-.2-.2-.1-.4 0-.4.2-.2.6 0 .4.4.4.4 0zm3.6 0v-1.4c-.2-.2-.3-.2-.4 0-.1.1-.2.4-.1.6v.7c0 .4.3.4.5 0zm3.3 0v-.2l-.2.2c0 .3.1.2.2 0zm12.5-.2h-.2l-.2.3h.2l.2-.3zm39 0h-.2l-.2.3h.2l.2-.3zm34 0c0-.1-.2-.1-.2 0 0 .2.2.4.4.3 0 0 0-.2-.2-.3zm39 0c-.1-.1-.2-.1-.2 0 0 .2.2.4.3.3v-.3zm12.4 0c-.2-.2-.2-.1-.1.1 0 .2.1.3.2.2l-.1-.3zm3.7.1v-.7-.6c-.4-.5-.7.6-.5 1.3.2.4.4.4.5 0zm3.5 0c.2-.4.2-.5-.2-.6-.3 0-.4 0-.3.1l.1.6c0 .3.3.3.4 0zm-129.9 0c.6-.3 1.1-1.3 1.1-2V42c-.4 0-1.4.8-1.6 1.3-.6 1.2-.3 1.8.5 1.4zm39.2-.1c.5-.4.9-1.2.9-2v-.6l-.6.3c-.6.3-1.4 1.4-1.4 2 0 .6.4.7 1 .3zm31-.2c.1-.6-.6-1.8-1.3-2l-.6-.4v.6c0 .8.4 1.6 1 2 .5.3.8.2 1-.2zm39 0c.1-.5-.5-1.7-1.2-2l-.6-.4c-.3 0 0 1.4.3 1.9.5 1 1.4 1.2 1.5.5zm-136.8.1h-.4l.2.1h.2zm164 0h-.4l.2.1h.2zM19.8 44c0-.3-1.1-1-1.3-.8-.2.2 0 .6.5.8.5.3.8.3.8 0zm161 0c.4-.2.7-.6.5-.8-.2-.2-1.3.5-1.3.8 0 .3.2.3.8 0zm-151.3-.6l-.2.1-.1.5.1-.1.2-.5zm141 .2c-.2-.4-.3-.3-.1.2l.2.2-.1-.4zm-126.8 0c.2 0 .4-.3.5-.5.2-.3.1-.3-.3-.2-.3 0-.6.3-.8.5l-.4.3h.4l.6-.1zm39.2-.2l.4-.4c0-.3-.8 0-1.3.4l-.3.3h.4c.2 0 .6-.1.8-.3zm34.9 0c-.5-.4-1.3-.7-1.3-.4 0 .3.7.7 1.2.7h.4l-.3-.3zm39 0l-.9-.5c-.4-.1-.5-.1-.3.2.2.4.5.6 1 .6h.5l-.4-.3zM21.5 43c.3-.2.3-.2 0-.3-.1-.1-.2-.3-.1-.4 0-.3-.5-.4-.8 0-.2.1-.3.8 0 1 0 .1.5 0 1-.3zm157.7-.2a1 1 0 0 0-.2-.6c-.3-.2-1-.3-.8 0l-.1.4c-.3.2-.3.3.2.5.7.3.9.3.9-.3zM87.9 40c0-.2-.3 0-.6.6-.6 1.2-.6 1.6 0 .6.4-.5.6-1 .6-1.2zm24.6.6c-.3-.5-.5-.8-.6-.6 0 .2.2.7.5 1.1.6 1.1.7.6 0-.5zm-66.6.7l.9-.5s-1-2-1.2-2c-.4 0-1.8 1-2.1 1.5-.4.6-.5 1.2-.2 1.3.7.3 1.8.1 2.6-.3zm39 0c.7-.4 1-.7 1.4-1.4l.5-1-1.2-.1c-1 0-1.3 0-2 .5-1.2.7-2 2-1.3 2.3.6.3 1.8.1 2.6-.3zm32.5.4c.7-.3 0-1.7-1.2-2.4-.7-.5-1-.5-2-.5H113l.5 1a3.6 3.6 0 0 0 3 2l1-.1zm39 0c.7-.3 0-1.8-1.2-2.5a5 5 0 0 0-1-.4l-1.2 2c1 .8 2.6 1.2 3.4.9zm-132.7-.5l.2-.4h-1c-.1.2-.1.3 0 .4.4.3.5.3.8 0zm153.1 0c.2-.1.2-.2 0-.3-.3-.2-.9-.2-.9 0l.5.5c.1 0 .3 0 .4-.2zm-156.1-.8a.3.3 0 0 0-.3-.2c-.2 0-.3.2-.1.4.2.2.4.1.4-.2zm21.6-.2c.3-.4.3-.4 0-.4-.6 0-1 .3-1.2.7-.1.2 0 .2.4.1l.8-.4zm7.5-.8l.6-1.2c-.8 0-2 1.7-1.6 2.2.2.4.2.4 1-1zm31.5.8c.3-.4.3-.4 0-.4-.6 0-1 .3-1.2.7-.1.2 0 .2.3.1.3 0 .7-.2.9-.4zm38.4.2c-.1-.3-.6-.6-1.1-.6-.3 0-.4 0-.2.3.5.5 1.5.8 1.3.3zm31-1c-.3-.6-.9-1.1-1.3-1.2l.6 1.3c.7 1.1.8 1.2 1 1 .2-.3.1-.5-.2-1zm8 1c-.1-.3-.6-.6-1.1-.6-.4 0-.4 0-.2.3.5.5 1.5.8 1.3.3zm20.9 0c0-.1 0-.2-.2-.2a.3.3 0 0 0-.3.3c0 .3.4.2.5-.1zM34 39.3c0-.7 0-1-.2-1 0 0-.5 0-.8-.3l-1-.5-.1-.2c0-.2 0-.3-.2-.3s-.2-.2-.2-.4c0-.3 0-.5-.2-.5-.2-.1-.3-.2-.2-.3l-.1-.2c-.3-.1-.3-2.1 0-2.3.3 0-.3-.5-1-.5-.6 0-1 .5-1 1.9 0 1 .2 1.2.8 2.4.7 1.2.8 1.3 2.4 2.3l1.8 1v-1.1zm134-.3c.9-.5 1.1-.8 1.8-2 .6-1 .7-1.3.7-2.3 0-1.4-.3-2-1-2-.6 0-1.2.5-.9.6.3.2.3 2.2 0 2.3 0 0-.1 0 0 .2l-.3.3c-.1 0-.2.2-.2.5l-.2.4c-.1 0-.2.1-.2.3 0 .1 0 .2-.2.2l-.9.5c-.3.2-.7.4-.8.3-.1 0-.2.4-.2 1v1l.7-.3a224 224 0 0 1 1.7-1zm-144.5.6c-.1-.3-1-.7-1.1-.6-.2.2.6.8 1 .8l.1-.2zm153.4-.1c.2-.2.4-.4.3-.5-.1-.1-1 .3-1.1.6-.1.3.3.3.8-.1zm-152.2-1c-.3-.2-.5 0-.3.6l.1.5.2-.4v-.6zm150.6.2c0-.1 0-.3-.2-.3s-.4.3-.2.7c0 .3.1.4.2.2l.2-.6zm-134.6.5H40.5h.3zm39 0h-.2.2zm40.6 0h-.2.2zm39 0H159.3h.3zm-89-5v-4.8l-1.8-3.2-1.8-3-2-1.3-2-1.1h-3l-.6 1-.6 1 .6.2.5.5c0 .3.2.3.6.3a15 15 0 0 1 4 2.4l.1.2.2.4c0 .2.1.3.2.3l.2.4c0 .1 0 .3.2.4.2 0 .2.2.2.5-.1.2 0 .4.3.4.2 0 .3.2.3.4l.2.2.2.4c0 .3.1.5.3.6.1 0 .2.1.1.2l.1.3c.3 0 .3 2 0 2.2-.1 0-.1.1 0 .2.3.2.4 2.1 0 2.2v.3s0 .2-.2.3c-.2 0-.3.2-.3.4 0 .3.4.7 1.9 1.5l2 1.1.1-4.9zM93 37.8l2.4-1.4H94c-1.2-.1-1.4 0-2.5.5-1.1.7-1.1.7-1.1 1.5v.7l2.5-1.3zm16.5.6c0-.8 0-.8-1.1-1.5-1.1-.6-1.3-.6-2.5-.6h-1.3l2.3 1.4 2.5 1.4.1-.7zm22-.4c1.6-.8 2-1.2 2-1.5 0-.2-.1-.4-.3-.4-.1-.1-.2-.2-.1-.3l-.1-.2c-.4-.2-.4-2.1 0-2.3.1 0 .1 0 0-.2-.3-.2-.4-2.1 0-2.2v-.3s0-.2.2-.2.3-.3.3-.6c0-.2 0-.4.2-.4s.2 0 .2-.2.1-.3.3-.4c.3 0 .4-.2.3-.4 0-.3 0-.5.2-.5l.2-.4.2-.4c.1 0 .2-.1.2-.3l.2-.4c.2 0 .1 0 .1-.2 0-.1.5-.5 1.1-.8a15 15 0 0 1 3-1.6c.3 0 .5 0 .5-.3l.5-.5.6-.3-.6-1-.6-1h-3l-2 1.2-2 1.2-1.8 3.1-1.8 3.2v9.8l2-1.2zm-87.6.5l.5-.5c0-.2-.7-.3-.9-.2-.3.2-1.4.3-1.4 0 0-.2-.7 0-.8.3-.1.6 1.7.9 2.6.4zm39 0l.5-.5c0-.2-.7-.3-1-.2-.2.2-1 .2-1.2 0-.1-.2-.7-.1-.9.1 0 .1 0 .4.3.5.5.5 1.6.5 2.3 0zm36.5 0c.2-.2.4-.5.3-.6-.2-.2-.8-.3-.9 0h-1.3c-.2-.2-1 0-1 .1l.6.5c.6.4 1.8.4 2.3 0zm38.9 0c.3 0 .4-.3.4-.4 0-.3-.8-.5-.8-.2 0 .2-1 .1-1.4 0-.3-.2-1 0-1 .1l.5.4c.6.4 1.7.4 2.3.2zm-129-.2c-.6-1.3-1.2-2-2-2.5-1.5-.8-3-.7-2.8.3 0 .4.2.4.9.5.8 0 2.3.7 2.3 1 0 .2 0 .3.2.3l.1.2c0 .2.2.3.7.3.3 0 .6 0 .5-.1zm142.7-.2l.1-.2.2-.2c0-.4 1.4-1.1 2.3-1.1.7 0 .8-.1.9-.5.1-1-1.3-1.1-2.7-.3-.9.5-1.5 1.2-2 2.5l.5.1c.5 0 .7 0 .7-.3zM26.3 38l-.1-.2c-.1 0-.2 0-.2.2v.2l.3-.2zm147.5 0c0-.1 0-.2-.2-.2 0 0-.1 0 0 .2l.1.2.1-.2zM50.3 36.5l1.8-1-1.7-1-1.7-1h-3v.9c0 .8.1 1 1.2 2.7.5.7 1.4.6 3.4-.6zm37.6-1v-2h-1.7c-1.6 0-1.8 0-2.6.5-1.7 1-1.6 2 .1 3 .9.5 1 .5 2.5.5h1.6zM116 37c1.7-1 1.8-2 .1-3-.8-.5-1-.5-2.6-.5h-1.7v1.9l.1 2 1.6.1c1.4 0 1.6 0 2.5-.5zm37.3-.6c.5-.9.6-1.2.6-2v-1h-3l-1.6 1-1.7 1 1.7 1c1.5 1 1.9 1.1 2.5 1 .8 0 .8 0 1.5-1zm-119.8.5c.2-.5 0-.5-.2 0v.3l.3-.3zm132.8 0l-.3-.4c-.1.1.1.7.3.7.1 0 .1-.2 0-.4zm-143.5-.3c-.2-.2-.6-.1-.5.1 0 .2.2.2.3.2.2 0 .2-.2.2-.3zm21.5 0c-.3-.5-1-1-1-.7l1.2 1.1-.2-.4zm111.8-.5c.1-.3.1-.3-.2-.2l-.6.7-.3.4.4-.3c.3-.1.6-.4.7-.6zm21.2.4h-.4c-.2.1-.2.2 0 .3.2.2.6-.1.4-.3zm-144.1-.8c.2-.2.3-.3.2-.5-.2-.3-.2-.3-.6 0-.4.3-.5.7-.2.7.2 0 .4 0 .6-.2zm32.2 0c0-.3-.7-.8-1.2-.8s-.3.4.3.8c.6.3.9.3.9 0zm69.7 0c.6-.4.8-.8.3-.8s-1.2.5-1.2.8c0 .3.2.3.9 0zm32 0c0-.2-.1-.4-.3-.5-.4-.3-.4-.3-.6 0 0 .2 0 .3.2.5.4.3.8.3.8 0zm-76.3 0c.2-.2.2-.3-.1-.4-.4-.2-.4-.2-.4.1 0 .4.1.4.5.2zm18.5-.3c0-.3 0-.3-.4-.1-.3.1-.3.2 0 .3.3.2.4.2.4-.2zm-81.3-.8c0-.3-.1-.5-.4-.6-.3-.1-.4-.3-.4-.4v-.3s-.3-.2-.3-.5c0-.5 0-.6-.3-.5-.6 0-.6.5-.3 1.4.2.4.6.8 1 1l.7.4v-.5zm145.2-1c.4-.8.4-1.3-.2-1.3-.3 0-.4 0-.4.5l-.1.5c-.2 0-.2.1-.1.3 0 .1 0 .3-.4.4-.3.1-.4.3-.4.6v.5l.7-.4a2 2 0 0 0 1-1zm-141 .8h-.5l.2.1h.2zm23.5-1.1c1-.6 1.5-1 1.8-1.4l.3-.7-.6-1.1a3.6 3.6 0 0 0-2.3-2l-.7 1.3c-.6 1-.6 1.1-.6 3.1v2l.4-.2 1.7-1zm3.9.9c-.3-.5-1.7-.5-2.4 0l-.5.3h1.5c1.5 0 1.6 0 1.4-.3zm6.5.2h-.4l.1.1h.3zm32.5 0l-1.5-2.8c-1.5-2.5-1.6-2.6-2.5-3.2l-2-1.1-.9-.5-.7 1.3-.7 1.3v3.9l1 .6 1 .6h3.1c2.2 0 3.2 0 3.2-.2zm9.7-.5l1-.6v-4l-.7-1.2-.7-1.3-1 .5-1.9 1.1c-1 .6-1 .7-2.5 3.2a28 28 0 0 0-1.5 2.7c0 .2 1 .2 3.1.2h3zm25.7.5h-.4l.1.1h.3zm8.4-.2c-.7-.5-2.1-.5-2.4 0-.2.3-.1.3 1.4.3h1.5zm3-4.8l-.7-1.2-.9.3c-.5.3-1 .7-1.4 1.6l-.6 1 .3.8c.3.5.8.9 2.1 1.6l1.7 1v-2l.1-2zm22.5 5h-.4l.2.1h.2zM25.5 34c-.3-.4-1-.8-1.3-.6-.1.1 0 .3.4.6.8.4 1.1.5.9 0zm149.7 0c.4-.3.5-.5.4-.6-.2-.2-1 .2-1.3.6-.2.5.1.5.9 0zm-95.7 0v-.2c-.2 0-.2.1-.2.2v.2l.2-.2zm41 0s0-.2-.2-.2v.2l.2.2V34zm-85.1-.5l.5-.3-.5-.3c-.7-.4-1.6-.4-1.6 0 0 .9.7 1.2 1.6.6zm16-4.2c-.6-1.2-1-1.5-1.6-2-.8-.4-.8-.4-1.3 0-.6.2-.6.3-.6 1.2 0 .9 0 1.2.7 2.3.7 1.2 1 1.4 2.2 2.2l1.4.8v-1.6c0-1.5 0-1.5-.7-3zm13.7 4.2l.5-.3-.4-.3c-.5-.4-1.8-.4-2.6 0l-.5.3.5.3c.7.4 2 .4 2.5 0zm72 0l.6-.3-.6-.3c-.7-.4-2-.4-2.5 0l-.4.3.5.3c.5.4 1.8.4 2.5 0zm14-2.6c.7-1.2.8-1.5.8-2.4 0-1 0-1-.6-1.3-.5-.3-.5-.3-1.4.2-.6.4-1 .7-1.6 1.9-.8 1.4-.8 1.4-.8 3v1.5l1.4-.8c1.4-.8 1.5-.9 2.2-2.1zm14.8 2.6l.1-.6c0-.4-.9-.4-1.6 0l-.5.3.5.3c.6.4 1.2.4 1.5 0zm-121.6-.7c.1 0-1-.7-1.3-.7l-.2.4c0 .3 0 .4.2.4 0 0 .3 0 .4.2.2.2.3.2.6 0l.3-.3zm36.8.2c.3-.2.5-.2.5 0h.3c.2-.2.4-.2.4 0s.4.3.8 0c.3-.2.2-.2-.3-.6-.8-.4-1.7-.4-2.3 0-.4.3-.4.4-.2.6.3.4.3.4.8 0zm36.4 0c0-.2.2-.2.4 0h.3c0-.2.2-.2.5 0 .4.3.5.3.8 0 .2-.2.2-.3-.2-.6-.6-.4-1.5-.4-2.3 0-.6.4-.6.4-.3.6.4.3.8.2.8 0zm39 0c0-.2.1-.2.3-.1.2 0 .2 0 .2-.4 0-.5-.2-.5-1 0-.5.3-.6.3-.3.5.4.3.8.2.8 0zm-131.4-.8c0-.1-.2-.1-.2 0 0 .2.2.4.4.3 0 0 0-.2-.2-.3zm38-1.1c1-1.6-.5-2.2-2.4-1.1l-1 .5.5.8c.7 1.4.7 1.3 1.6.8.5-.2 1-.7 1.2-1zm76.5.2l.5-.8-1-.5c-1-.6-1.8-.7-2.3-.4-.8.4-.2 1.7 1.1 2.5 1 .5 1 .6 1.7-.8zm35.3 1c0-.2-.1-.2-.2-.1l-.2.2c0 .1 0 .2.2.1l.2-.3zm-136.4-.7c.2-.3 0-.9-.5-1.2-.4-.3-.7.3-.7 1.3v.8l.5-.3.7-.6zm62.8-1.4l1.2-2.2v-4.6l-.7-1.3-.8-1.3h-2.2L98 22l-.7 1.3V28l1.2 2.2 1.4 2.2 1.4-2.2zm61 .4c-.1-.4-.2-.4-.5-.3l-.5.6c-.2.5 0 .7.7 1.2l.4.3v-.6-1.2zM48 32.1l-.3-.6c-.2-.3-.4-.4-1-.4-.9 0-.9 0-.9.5v.6h2.1zm38.8-.5c-.3-.4-.5-.5-1-.5-.6 0-2.2-.7-2.2-1 0-.2 0-.3-.2-.3s-.2-.2-.2-.4l-.1-.3c-.4 0-1 .3-1 .6 0 .6.8 1.5 1.7 2 .8.4 1.1.5 2.1.5H87l-.3-.5zm29.4.1c.8-.5 1.6-1.4 1.6-2 0-.3-.5-.6-.9-.6l-.1.3-.2.4c-.1 0-.2 0-.2.2 0 .4-1.6 1.1-2.2 1.1-.5 0-.7 0-1 .5l-.3.6h1.2c1 0 1.3 0 2-.5zm38 0c0-.6 0-.6-.9-.6-.6 0-.8.1-1 .4l-.3.6 1 .1h1.1zM32.3 32H32c-.2 0-.1 0 0 0h.3zm3.5-1.5c-.4-.7-1-1-1.1-.6-.2.4.1 1.1.7 1.7l.6.5v-.5c0-.3 0-.8-.2-1.1zM66.2 32c-.1-.1-.3-.1-.4 0h.4zm67.9 0c0-.1-.2-.1-.4 0h.4zm30.8-1c.5-.9.3-1.5-.3-1.2-.4.2-.8 1-.8 1.7 0 .6 0 .6.4.3.2-.2.6-.5.7-.8zm3 1H167.7h.2zm-88-.4h-.3.2zm40.5 0h-.2.2zm-86.3-.1s0-.2-.2-.2h-.1l.1.2h.2zM44 30c-.4-.8-.6-1-.8-.6-.2.3 0 1 .6 1.6l.4.6.1-.5L44 30zM65 31.2c.5-.4.5-.7.1-.7l-.2.1-.4.3c-.3 0-.5.2-.6.4-.1.4.7.3 1.1-.1zm70.7 0l-.6-.3c-.2 0-.4-.2-.4-.3l-.2-.1c-.4 0-.4.3 0 .7.5.4 1.3.5 1.2 0zm20.7-1c.2-.4.2-1-.1-1-.3 0-1 1.4-1 2v.4l.5-.4c.2-.2.5-.6.6-1zm9.5 1.2v-.2s-.2 0-.2.2v.1l.2-.1zM81.6 31c0-.2-1-.9-1.3-.9-.3 0-.1.5.2.8.5.3 1 .4 1 .1zm5.8-2.6l-.5-.8v.9c0 .7 0 1 .4 1.8l.5.9v-1c.1-.7 0-1-.4-1.8zm25.5.1v-1l-.5 1c-.4.6-.5 1-.5 1.8v1l.5-1c.5-.7.6-1 .5-1.8zm6.4 2.4c.3-.3.5-.8.2-.8-.2 0-1.3.7-1.3.9 0 .3.6.2 1 0zm-87.9-.6c.3-.2.2-.7-.2-.7-.3 0-.5.2-.3.6 0 .3.2.3.5.1zm137.5-.1c.2-.4 0-.6-.3-.6-.4 0-.5.5-.2.7.3.2.4.2.5-.1zm-132-.4c0-.1 0-.2-.2-.2s-.3 0-.2.2l.2.1.1-.1zm48.2 0l-.1-.2-.2.2.1.1.2-.1zm30 0l-.2-.1h-.2c0 .2 0 .2.2.2h.2zm48.2 0c0-.1 0-.2-.2-.2-.1 0-.2 0-.1.2l.1.1.2-.1zM53.7 28c.2-.5.2-.6-.1-.8-.5-.3-.6-.3-.6 0 0 .2-.1.3-.2.3l-.2.3c0 .2 0 .4-.2.4l.2.5.3.5.3-.4.5-.8zm93.6.2l-.1-.4c0-.2-.1-.3-.2-.3s-.2-.1-.2-.3c0-.3-.1-.3-.6 0-.4.3-.3.4.2 1.3l.5.8.3-.5c.2-.3.2-.6.1-.6zm-86.8.6c.9-.5 1.5-2.1 1-2.5-.3-.2-.8.3-.7.7 0 .2 0 .4-.2.4 0 0-.1.2 0 .4 0 .1-.1.3-.4.3-.2 0-.3.3-.3.5 0 .5 0 .6.6.2zm79.4-.2c0-.2 0-.4-.3-.5-.3 0-.4-.2-.3-.3 0-.2 0-.3-.2-.4 0 0-.2-.2-.1-.4 0-.4-.4-.9-.6-.7-.6.4 0 2 .8 2.5.6.4.7.3.7-.2zm-108.1 0c-.1-.3-.2-.4-.3-.3l.1.3c.3.4.4.4.2 0zm26.8-1l-.3-.6v.5c0 .3 0 .7.2 1l.2.5v-.5c.1-.3 0-.7-.1-1zm83 0V27l-.3.5c-.2.2-.3.7-.3 1v.5l.3-.5.2-1zm26.7.7c0-.1-.2 0-.3.3-.2.4-.2.4 0 0 .3-.1.4-.3.3-.3zM41.1 28l.3-.6c.3-.2-.2-.6-.9-.6-.4 0-.6 0-.8.4-.4.5-.3.8.3 1.1.6.3 1 .2 1.1-.3zm22 .2c.7-.4.8-.7.4-.7-.5 0-1 .3-1.2.7-.2.5 0 .4.8 0zm74.4 0c-.2-.4-.7-.7-1.2-.7-.4 0-.3.3.3.7.8.4 1.1.5.9 0zm22.2.1c.7-.3.8-.6.4-1.1-.2-.3-.4-.4-.8-.4-.6 0-1.3.5-.9.6l.2.5c0 .7.3.8 1.1.4zM85.4 28c.2-.3.2-.3-.2-.3-.5 0-.7.2-.6.5.2.3.6.2.8-.2zm29.8 0c0-.2-.2-.3-.5-.3-.5 0-.5 0-.3.3.3.4.8.4.8 0zm-32.8-.5c0-.2-.2-.4-.4-.4-.3 0-.3.1 0 .5.4.3.4.3.4-.1zm35.6-.1c0-.2 0-.3-.3-.3-.1 0-.3.2-.3.4 0 .4.4.3.6-.1zm-45.6-1l.7-1.3-.6-.5-.4-.4-.2-.4c-.1-.1-.2-.3-.1-.5 0-.1 0-.2-.2-.2l-.3-.3c0-.1 0-.3-.2-.3l-.1-2.3.1-2.4c.1 0 .2-.1.2-.3l.3-.3c.2 0 .2-.2.2-.4l.1-.4c.2 0 .3-.1.2-.2 0-.1 0-.3.3-.4.2 0 .3-.3.3-.6l.2-.5-.5-.4-.7-.4-.8.4c-.7.3-1 .7-1.6 1.7l-.8 1.4v4.9L70 25l1.6 2.7.8-1.3zm17.3.3l-.6-.1c-.6 0-.6.1-.2.7l.3.4.2-.4.3-.6zm21.5 0l-.5-.1c-.6 0-.6 0-.4.6l.3.5.3-.4.3-.5zm19-2.7l1.1-1.7v-5l-.8-1.3c-.6-1-1-1.4-1.6-1.7l-.8-.4-.7.4-.5.4.2.5c0 .3.1.5.3.6.2.1.3.3.3.4 0 0 0 .2.2.2.1 0 .2.2.1.4 0 .2 0 .3.2.4l.3.3c0 .2 0 .3.2.3l.1 2.4-.1 2.3-.2.3-.3.3c-.2 0-.3 0-.2.2l-.1.5c-.2.2-.3.3-.2.4l-.4.4-.6.5.7 1.3.8 1.3.5-1 1.6-2.7zm-93 2.8c0-.3-.4-.6-.6-.5-.2.1-.3.7 0 .9l.7-.4zM57 27l-.1-.2-.2.2v.2c.2 0 .3 0 .3-.2zm39-.9c0-.8-.1-1-.3-1-.3.2-2-.9-2-1 .1-.2 0-.3 0-.2-.2 0-1 1.4-.8 1.5.1.2 2.9 1.8 3 1.8v-1zm10.9-.5l.4-.3-.4-.7-.6-.7s-.1 0 0 .1c0 .2-1.7 1.3-2 1.2-.2 0-.2.1-.2 1v1l1.2-.7 1.6-.9zm36.5 1.5l-.2-.2-.2.1.2.2h.2zm20.1-.4c0-.5-.3-.6-.7-.3-.2.2-.2.3 0 .5.5.3.7.2.7-.2zm-128-.4l-.4-.3s0 .3.2.4c.3.4.4.3.1-.1zm27.6-.3l-.3.3c-.2.4-.2.4 0 .2.3-.2.4-.4.3-.5zm22.3.5c0-.2-.8-.7-1-.7-.4 0-.1.4.3.7.5.2.7.2.7 0zm29.8 0c.5-.2.8-.7.4-.7-.3 0-1 .5-1 .7 0 .2.1.2.6 0zm22-.2l-.3-.3.1.4c.4.4.4.3.2-.1zm27.7-.3l-.3.3c-.3.4-.2.4 0 .2l.3-.5zM56 25.6c0-.3-.1-.6-.3-.7-.3 0-.4 0-.4 1 0 .7 0 .7.3.5.3-.2.4-.4.4-.8zm88.5-.5c-.1-.2-.3-.2-.4-.2-.4.2-.4 1.2 0 1.4.3.2.3.2.4-.4v-.8zm-102.2.8c0-.1 0-.3.2-.5.3-.2.3-.2 0-.8-.5-.6-1-1-1.3-1-.4.3-.2 1 .1 1 .2 0 .4.2.4.3 0 .2 0 .3.2.3s.1.2.1.4c0 .3.1.5.2.5s.2-.1 0-.2zm115.5-.3l.1-.4c.1 0 .2-.1.2-.3l.4-.3c.3 0 .5-.7.1-1-.2 0-.8.4-1.2 1-.4.6-.4.6 0 .8 0 .2.2.4.1.5v.2c.2 0 .3-.2.3-.5zm-110.1.1l-.2-.2c-.1 0-.1.1 0 .2l.1.2v-.2zm6.1-1c-.4-.8-.8-1-1-.8-.3.2.2 1 .9 1.6.6.5.7.1.1-.8zm93 0c.4-.6.3-1-.2-.8-.3 0-1 1.3-1 1.7 0 .3 0 .3.4 0 .3-.1.6-.6.8-.9zm5.6 1l-.1-.2-.2.2v.2c.1 0 .2 0 .3-.2zm-61.8-.5c.2-.3-1-2.1-1.4-2.1-.1 0-.2.1-.2.4 0 .3-.1.5-.3.5l.3.3.3.4.1.3c.4.4 1 .5 1.2.2zm19.7-.2l.2-.3s0-.2.3-.4l.3-.3c-.2 0-.3-.2-.3-.5s0-.4-.2-.4c-.4 0-1.6 1.8-1.4 2 .1.4.7.3 1.1 0zm-36.5-1.2c0-.1 0-.2-.2-.1l-.2.3s.1.1.2 0l.2-.2zm21.5 0c0-.1 0-.2-.2-.1l-.1.3s0 .1.1 0l.2-.2zm9.4 0c-.1-.2-.2-.2-.2 0 0 .1.2.4.3.2l-.1-.3zm21.5 0c-.1-.2-.2-.2-.2 0 0 .1.2.4.3.2v-.3zm-82.6-.9c0-.2-.2-.5-.3-.5-.2 0-.4.6-.3 1.2.1.4.1.4.4.1l.2-.8zm41 .7c0-.2-.6-.2-.6 0s.2.3.5.2c.1 0 .2-.1.1-.2zm31.1-.1h-.4c-.3.1-.3.1 0 .3.2.1.6-.1.4-.3zm41.1-.7c0-.3-.2-.4-.3-.4-.3.1-.3.8-.1 1.3.2.3.2.3.3 0 .1-.3.2-.6.1-.9zm-116.9.9l-.2-.2h-.1l.1.3.2-.1zm120.3-.1v-.2l-.2.2c-.1 0 0 .2 0 .2l.2-.2zM92 22.9c.3-.5.4-1 .4-2v-1.2h-.5c-.7 0-1 .7-1 2 0 .8.3 1.9.6 1.9l.5-.7zm16.9.2c.3-.7.4-2.2 0-2.9-.2-.4-.4-.5-.8-.5h-.5V21c0 1 0 1.4.4 2l.5.6.4-.5zm-66.9-.6c-.1-.1-.2-.1-.2 0 0 .2.2.4.3.3l-.1-.3zm116.2 0s0-.1-.2 0l-.1.2c0 .1 0 .2.1.1l.2-.3zm-84.3 0l.3-.5c0-.3-.6-.2-1.1.3l-.5.4h.4l.9-.3zm14.2 0c0-.1-.3-.3-.6-.3-.5 0-.6 0-.4.2.3.4 1.1.4 1 0zm24.8 0c.2-.3.1-.3-.4-.3-.3 0-.6.2-.6.3-.1.3.7.3 1 0zm14-.2c-.5-.5-1.1-.6-1.1-.3s.7.7 1.2.7h.4l-.5-.4zm-73.5-1l.2-1c0-.6 0-.6-.6-.6-.5 0-.7.1-.9.5-.4.8-.3 1.1.2 1h.4c0 .3.4.3.7 0zM66.1 16c-.6-1-1-1.4-1.7-1.8-1.1-.6-1.8-.6-2.2 0-.2.5-.2.6.3.9l1.1.6c.4.2.7.5.7.6l.1.2.2.4c0 .2.1.4.3.5l.2.4.1.2c.3.1.3 2 0 2.2-.1.1.1.3.7.7l1 .5v-4zm6.3 5.4h-.2.2zm5-.5c0-.2-.4-.1-.8.2l-.4.4.5-.3.6-.3zm45.8.2c-.4-.3-.7-.4-.7-.2l1 .6s0-.2-.3-.4zm4.6.3h-.2.2zm6.8-1.2c-.3-.2-.3-2 0-2.2.1 0 .2-.1.1-.2s0-.3.2-.4c.2-.1.3-.3.3-.5s0-.4.2-.4l.1-.2c0-.2.3-.4.7-.6l1.1-.6c.5-.3.5-.4.3-.9-.4-.6-1-.6-2.3 0-.7.4-1 .8-1.6 1.8l-.8 1.3v4.1l1-.5c.6-.3.8-.6.7-.7zm12.6 1h.4c.5.1.6-.2.2-1-.2-.4-.4-.5-.9-.5-.6 0-.6 0-.6.7s.2 1 .6 1l.3-.1zm-96.7-.1s-.1-.2-.3-.2c-.1 0-.2-.1-.2-.3l-.2-.4c-.1 0-.2-.2-.2-.5 0-.4 0-.5-.3-.5s-.4.1-.4.5c0 1 .4 1.5 1 1.5l.6-.1zm33.5-.2l-.5-.1c-.2 0 0 0 .2.2.4.3.7.2.3 0zm32.4 0c-.1-.2-.8 0-.8.2 0 .1.2.1.4 0l.4-.3zm34.2-.1c.2-.3.3-.7.3-1 0-.5-.1-.6-.4-.6-.3 0-.3.1-.3.5 0 .3-.1.5-.2.5l-.2.4c0 .2-.1.3-.2.3-.2 0-.3.1-.3.2l.5.1c.4 0 .7-.1.8-.4zm-102.5 0c0-.2-.8-.6-1.1-.6-.3 0-.2.4.1.7.4.3 1.1.3 1 0zm104.6 0c.3-.2.4-.6.1-.6-.3 0-1 .4-1.1.7-.1.3.6.3 1 0zm-94.8-.3l.5-.3c0-.2-1.3-.8-1.6-.8-.5 0-.6.4-.3 1 .3.4.7.5 1.4.1zm17-.4c0-.7 0-.7-.6-.7-.3 0-.8 0-1 .2-1 .5-.5 1.2.8 1.2h.8zm11.8.4c-.6-.3-.7-.3-.7 0 0 .2.1.3.5.3h.6zm27.1 0c0-.3-.1-.3-.7 0l-.4.3h.6c.4 0 .5-.1.5-.3zm13 0l.3-.3c0-.4-1-.8-1.6-.8-.5 0-.6 0-.6.7v.7h.8l1-.2zm16.4 0l.3-.7c0-.3-.1-.4-.5-.4-.3 0-1.7.6-1.7.8 0 .1 1 .6 1.4.6l.5-.3zM47.7 19c-.2-.1-.2-.1 0 .1l.1.3V19zm31.4-.5c-.8-1.2-.8-1.2-1.6-1.7l-.7-.4-.3.6-.2 1.2c0 1 .4 1.2 2 1.2h1.3zm5 .7c.4-.3.5-.5.5-1l-.3-1.2-.3-.5-.7.3c-.7.4-1 .7-1.6 1.8l-.5.8h1.2c.9 0 1.4 0 1.7-.2zm34-.6c-.6-1.1-.9-1.4-1.6-1.8l-.7-.3-.3.5-.3 1.2c0 1 .5 1.2 2.1 1.2h1.3zm5 .6c.3-.3.4-.5.4-1 0-.4 0-1-.2-1.2l-.3-.6-.7.4c-.8.5-.9.5-1.6 1.7l-.5 1h1.2c.9 0 1.4-.2 1.7-.3zm29 0c.1-.2.1-.3 0-.2l-.2.3c0 .2.2.2.3-.1zm-91-.8c.2-.1.2-.3 0-.6-.4-1-1.2-.6-1.2.7v.8l.5-.3.7-.6zm78.6-.8c-.2-.6-.5-.6-.9 0-.4.5-.3.7.4 1.2l.7.5v-.7c0-.3 0-.8-.2-1zM64.5 19H64h.5zm71.2 0h-.2.2zM55 18.9h-.3l.1.1c.2 0 .3 0 .2-.1zm3.5-1.3c-.4-1-1.3-1.4-1.3-.5 0 .5.6 1.4 1.1 1.7.4.2.4.1.5-.2l-.3-1zm14 1.3h-.3.2zm55.3 0h-.2.2zm14.4-.9c.6-1 .4-1.7-.3-1.3-.4.3-.9 1.3-.9 1.9 0 .4 0 .4.4.2.3-.1.6-.5.8-.8zm3 .9h-.4l.2.1.2-.1zm-45-.4c.1-.2-.1-.9-.3-.9-.2 0-.4.7-.3.9l.3.2.3-.2zm-43.6-.3l-.2-.2v.2l.1.3v-.3zm7 0c.2-.2.2-.6 0-.6-.5 0-1 .5-.8.7.1.2.5.2.7 0zm10.5.2c0-.2-.5-.6-.7-.6l-.4-.2c0-.2-.1-.2-.3 0-.1 0 0 .2.3.5.4.3 1.1.5 1.1.3zm7.3-2.6c0-1.8-1-2.7-1.7-1.6-.4.8-.4 2.4.2 3.4l.5.9.5-1c.4-.6.5-1 .5-1.7zM97.7 18c0-.2-.1-.4-.3-.5-.4 0-.4.4-.1.7.3.3.5.2.5-.2zm5 0c.1-.4 0-.6-.4-.4-.3 0-.4.8 0 .7l.3-.3zm17.7-2.3c0-1.8-1-2.7-1.7-1.5-.5.8-.4 2.2.2 3.3l.5.8.5-.8c.3-.6.5-1 .5-1.8zm6.4 2.3c.4-.3.4-.4.3-.6h-.3c0 .2-.2.3-.4.3s-.7.4-.7.6c0 .2.6 0 1-.3zm10.2.2c.2-.2-.3-.7-.7-.7-.3 0-.3.4 0 .7.2.2.6.2.7 0zm6.5 0l-.1-.3-.2.2.1.3c.1 0 .2-.1.2-.3zm-89.2-1.5c-.1-.3-.7-.4-.9 0l.1.4c.3.3 1 0 .8-.4zm92 0c0-.3-.7-.3-.8 0-.1.4.5.7.8.4.1-.2.2-.4 0-.5zm-86.9 0v-.3c-.2 0-.2.1-.2.2v.2s.2 0 .2-.2zm3.5-.2v-.1l-.2.2c0 .3.1.2.2 0zm74-.1c-.1-.2-.1-.2 0 0 0 .3.1.4.2.3l-.1-.3zm3.7.2l-.1-.2c-.1 0-.2.1-.1.2l.2.2v-.2zm-50.9-.3c0-.1.3-.4.7-.6l.7-.5c0-.2-.3-.5-1-1l-.8-.4-.8.3c-.6.3-.8.5-.6.6 0 .1.1.3 0 .4 0 .2.2.4.4.6.3.1.5.3.4.4-.2.1.7.5 1 .4 0 0 .1-.2 0-.2zm21.4-.2s.1-.3.4-.4c.2-.2.4-.4.3-.6l.1-.4c.2-.1 0-.3-.6-.6l-.8-.3-.7.4c-.8.5-1 .8-1 1 0 0 .2.3.6.5.4.2.7.5.6.6l.2.2c.3 0 1-.2.9-.4zm-43-.5c.1-.4.2-.6 0-.7v-.3c0-.1 0-.3-.2-.3-.3-.1-.3-2.1 0-2.2.1 0 .2-.2.1-.3 0-.2 0-.3.2-.4.3-.1.3-.1 0-.4-.4-.5-.7-.5-1.2.2-.4.5-.4.8-.4 1.8s0 1.3.5 2.1l.6 1 .4-.5zm10.3 0c0-.5-.5-.7-.8-.4-.1.2 0 .3.2.5.6.5.6.5.6 0zm43.8-.3l-.4-.2c-.2 0-.3.2-.4.5v.5l.5-.3c.2-.2.4-.4.3-.5zm10.5-.2c.4-.8.5-1.1.5-2.1s0-1.3-.4-1.8c-.5-.7-.8-.7-1.2-.2-.3.3-.3.3 0 .4l.2.4v.3c.4 0 .4 2 .1 2.2-.1 0-.2.2-.1.3l-.1.3c-.2.1-.1.3 0 .7l.4.5.6-1zm-49.7.6c.4-.3.3-.7-.2-.7-.3 0-.4.2-.4.5 0 .5.2.5.6.2zm34.4-.2c0-.3-.1-.5-.4-.5-.5 0-.6.4-.2.7.4.3.6.3.6-.2zm-63-.2c-.1-.3-.2-.3-.2 0 0 .2.2.5.3.4v-.4zm91.2 0c0-.3 0-.3-.2 0s-.2.5 0 .3l.2-.4zm-52.2 0c0-.2-.1-.2-.2-.2v.3c.3.3.4.2.2-.1zm13.2-.2s-.2 0-.3.2c0 .3 0 .3.1.1.2 0 .2-.2.2-.3zm-30.7.1l-.3-.4c-.3-.3-.3-.3-.4 0-.1.3 0 .6.5.6.1 0 .2 0 .2-.2zm9.5 0c.2 0 .3-.1.3-.3-.2-.3-.5-.3-.8.1-.2.4-.1.4.5.3zm29.5-.2c-.3-.4-.6-.4-.8 0 0 .2.2.3.7.4.2 0 .2 0 0-.4zm9.6.2c.1 0 .2-.2.1-.4-.1-.3-.1-.3-.4 0-.2.1-.3.3-.3.4 0 .2.3.2.6 0zm-47.7-1.6c0-.5 0-.5-.2-.3-.2.3-.2 1 0 1l.2-.7zm7.3-.2v0zm31.6 0v0zm7.5 0c-.2-.4-.2-.3-.2.1l.1.7c.2.2.3-.5.1-.9zm-63.3.2l-.3-.3c-.4-.3-.7 0-.5.5 0 .3.1.3.4.1.2 0 .4-.2.4-.3zm33.8.2s.2 0 .2.2 0 .1.2 0c.3-.5.2-2-.2-2.7-.5-.7-.9-.8-1.3-.4-.3.3-.3.3 0 .5.2.1.2.3.2.4l.1.3c.1 0 .2.4.2 1 0 .8 0 1.3.2 1 0-.2.2-.3.4-.3zm4.7 0l-.3-.2v.3c.3.3.5.2.3 0zm3.4-.1c-.2-.2-.5 0-.5.3h.3l.2-.3zm4.4 0l.2.3s.1.1.2 0l.1-1c0-.5 0-.9.2-1 .1 0 .2 0 .1-.2 0 0 0-.3.2-.4.3-.2.3-.2 0-.5-.4-.4-.8-.3-1.3.4-.2.4-.4.9-.4 1.4 0 1 .2 1.7.4 1.3 0-.1.1-.2.3-.2zm34.5-.5c-.2-.1-.3-.1-.5.1-.3.3-.3.3 0 .6.3.2.4.2.5-.1v-.6zm-82.7 0h-.3c0 .2.3.4.4.3l-.1-.3zm84 0h-.1l-.2.3h.2l.2-.3zm-76.7-.7c0-.7 0-1-.6-1.4-.6-.7-1-.8-1-.4-.2.2 0 .4.2.7.3.2.4.4.4.5l.1.1.2.5c0 .5.2.7.6.8l.1-.8zm27 .7c0-.1-.2-.1-.4 0h.4zm15.7 0c0-.1-.2-.1-.4 0h.4zm26.9 0c.2-.1.3-.4.3-.7 0-.2 0-.5.2-.5s.1 0 0-.1l.5-.5c.2-.3.4-.5.3-.7-.2-.4-.5-.3-1.1.4-.5.5-.6.7-.6 1.4 0 .8 0 .8.4.7zm-38.7-1l.2-.4.4-.4c.8-.5.5-1.1-.3-.8-.5.3-1.2 1.4-1.2 2 0 .3 0 .3.3.1l.6-.5zm8-.7c-.6-1-1.7-1.4-1.7-.6 0 .1.2.4.5.5l.4.4.4.6c.6.5.6.5.7.2l-.4-1zm-33.4.9c-.4-.6-.7-.6-.7-.1 0 .3 0 .4.4.4s.5 0 .3-.3zm2.4-.2c.1-.5-.2-.4-.6.2-.3.4-.3.4.1.3.3 0 .5-.2.5-.5zm15 .2c-.2-.5-.6-.6-.6-.2 0 .4.1.5.5.5.3 0 .3 0 .2-.3zm2.5-.2c0-.3 0-.4-.3-.2-.2.1-.4.3-.4.5-.1.2 0 .2.2.2.3 0 .5-.2.5-.5zm19 .2c-.2-.5-.6-.6-.6-.2 0 .4.1.5.5.5.3 0 .3 0 .2-.3zm2.5-.2c0-.3 0-.4-.3-.2-.2.1-.4.3-.4.5-.1.2 0 .2.3.2.2 0 .4-.2.4-.5zm15 .1c-.3-.5-.7-.6-.7-.1 0 .4.2.5.6.5.3 0 .3 0 .1-.4zm2.5 0c0-.5-.3-.5-.7 0-.2.4-.1.4.3.4.3 0 .4 0 .4-.4zm-53.4-1a.8.8 0 0 0-1.1-.5c-.4.2-.5.5-.2.5l.2.4c0 .3 0 .3.6 0 .4-.1.6-.3.5-.5zm9.2.6c0-.1 0-.3.2-.5.3-.3.3-.4-.1-.6-.3-.2-.5-.1-.8 0l-.4.5 1.2.7V12zm30-.6l-.5-.4c-.3-.2-.5-.3-.8-.1-.4.2-.4.3-.1.6l.2.4h.5l.6-.5zm9.3 0c.2-.1.1-.2-.1-.4-.5-.4-.6-.4-1 .1l-.4.4.6.3c.6.3.6.3.7 0l.2-.4zm-53 0l-.1-.8c-.1 0-.2.2-.2.6 0 .4 0 .8.2.8s.2-.3.2-.7zm17.5 0c0-.4 0-.7-.2-.7s-.1.3-.1.6l.1.7c.1 0 .2-.3.2-.7zm21.5 0l-.1-.7-.2.6c0 .4 0 .7.2.7s.1-.3.1-.7zm17.5-.2c0-.4 0-.6-.2-.6l-.2.7c0 .4.1.7.2.7l.2-.8zM66.2 10c0-.3-.2-.6-.3-.6-.2 0-.3.7-.1 1.3 0 .4.1.4.3.1 0-.1.1-.5 0-.8zM95 10l-.2-.6c-.2 0-.4 1-.2 1.5.1.2.1.2.3 0l.1-1zm10 0c0-.3 0-.6-.2-.6s-.3.7-.2 1.3c.2.6.5.2.5-.6zm29 0l-.2-.6c-.3 0-.4.7-.2 1.3 0 .4.1.4.3.1 0-.1.1-.5 0-.8zm-56.5.5c.1-.4 0-1.2-.3-1.2-.2 0-.3.8-.2 1.3.1.4.5.3.5-.1zm6-.4c0-.6 0-.8-.1-.7-.3 0-.4.8-.3 1.2.2.6.5.3.5-.5zm33 0c0-.4-.1-.7-.3-.7-.1-.1-.2.1-.2.7s0 .8.2.8.3-.4.3-.8zm6.1.5c.1-.5 0-1.3-.2-1.3s-.4.5-.4 1c0 .6.4.8.6.3zm-53-1c0-.2-.4-.2-.5.1 0 .2 0 .3.3.2l.2-.3zm4.2-.3s-.2 0-.3.2v.4c.3.1.5-.4.3-.6zm13.4.3l-.3-.3c-.2 0-.4.3-.2.5.1.3.6 0 .5-.2zm4.2 0c0-.3-.1-.3-.3-.1-.2.1-.1.2 0 .3.4.2.5.1.3-.2zm17.2 0c-.1-.2-.4-.2-.5.1 0 .2 0 .3.2.2.2 0 .3-.2.3-.3zm4.3-.2c-.2-.1-.3-.1-.4 0v.5c.4.2.6-.2.4-.5zm13.2.2c-.1-.4-.4-.3-.4 0s.1.4.3.3c.1 0 .2-.2.1-.3zm4.3 0c0-.3-.1-.3-.3-.1-.2.1-.2.2 0 .3.4.2.5.1.3-.2zm-66-.2c-.2-.1-.2-.1-.1.1 0 .2.1.3.2.3l-.1-.4zm14.4 0s-.2 0-.2.2c-.1.3-.1.3 0 .1.2-.1.2-.3.2-.3zm3.2.2c0-.2-.1-.3-.2-.3v.3l.2.2s.1 0 0-.2zm14.3 0v-.3l-.3.3v.2c.2 0 .3 0 .3-.2zm7.3 0c0-.2-.2-.3-.3-.3v.3l.2.2c.1 0 .1 0 0-.2zm14.3 0l-.1-.3s-.2.1-.2.3c-.1.1 0 .2 0 .2s.2 0 .3-.2zm3.1 0c0-.2-.1-.3-.2-.2v.2c.2.3.3.3.2 0zm14.3 0v-.2l-.2.3c0 .2.1.2.2-.1z" stroke="#000" stroke-width="16" stroke-linejoin="round"/><path clip-path="url(#b)" d="M-3.8-4h206.1v188.7h-206z" fill="url(#c)" paint-order="stroke fill markers"/></svg>