<svg xmlns="http://www.w3.org/2000/svg" xmlns:xlink="http://www.w3.org/1999/xlink" width="495.204" height="68.266" viewBox="0 0 131.023 18.062">
  <defs>
    <linearGradient xlink:href="#a" id="b" x1="135.305" y1="660.252" x2="135.714" y2="560.02" gradientUnits="userSpaceOnUse"/>
    <linearGradient id="a">
      <stop offset="0" stop-color="gray"/>
      <stop offset="1" stop-color="#fff"/>
    </linearGradient>
    <linearGradient xlink:href="#a" id="c" gradientUnits="userSpaceOnUse" x1="135.305" y1="660.252" x2="135.714" y2="560.02"/>
    <linearGradient xlink:href="#a" id="d" gradientUnits="userSpaceOnUse" x1="135.305" y1="660.252" x2="135.714" y2="560.02"/>
    <linearGradient xlink:href="#a" id="e" gradientUnits="userSpaceOnUse" x1="135.305" y1="660.252" x2="135.714" y2="560.02"/>
    <linearGradient xlink:href="#a" id="f" gradientUnits="userSpaceOnUse" x1="135.305" y1="660.252" x2="135.714" y2="560.02"/>
    <linearGradient xlink:href="#a" id="g" gradientUnits="userSpaceOnUse" x1="135.305" y1="660.252" x2="135.714" y2="560.02"/>
    <linearGradient xlink:href="#a" id="h" gradientUnits="userSpaceOnUse" x1="135.305" y1="660.252" x2="135.714" y2="560.02"/>
    <linearGradient xlink:href="#a" id="i" gradientUnits="userSpaceOnUse" x1="135.305" y1="660.252" x2="135.714" y2="560.02"/>
    <linearGradient xlink:href="#a" id="j" gradientUnits="userSpaceOnUse" x1="135.305" y1="660.252" x2="135.714" y2="560.02"/>
    <linearGradient xlink:href="#a" id="k" gradientUnits="userSpaceOnUse" x1="135.305" y1="660.252" x2="135.714" y2="560.02" gradientTransform="translate(-20)"/>
    <linearGradient xlink:href="#a" id="l" gradientUnits="userSpaceOnUse" x1="135.305" y1="660.252" x2="135.714" y2="560.02" gradientTransform="translate(-20)"/>
    <linearGradient xlink:href="#a" id="m" gradientUnits="userSpaceOnUse" x1="135.305" y1="660.252" x2="135.714" y2="560.02" gradientTransform="translate(-20)"/>
    <linearGradient xlink:href="#a" id="n" gradientUnits="userSpaceOnUse" x1="135.305" y1="660.252" x2="135.714" y2="560.02" gradientTransform="translate(-20)"/>
    <linearGradient xlink:href="#a" id="o" gradientUnits="userSpaceOnUse" x1="135.305" y1="660.252" x2="135.714" y2="560.02" gradientTransform="translate(-20)"/>
    <linearGradient xlink:href="#a" id="p" gradientUnits="userSpaceOnUse" x1="135.305" y1="660.252" x2="135.714" y2="560.02" gradientTransform="translate(-20)"/>
    <linearGradient xlink:href="#a" id="q" gradientUnits="userSpaceOnUse" x1="135.305" y1="660.252" x2="135.714" y2="560.02" gradientTransform="translate(-20)"/>
  </defs>
  <g font-weight="400" font-size="40" font-family="sans-serif" letter-spacing="0" word-spacing="0">
    <g style="line-height:125%" aria-label="INFINITE REGRESS" fill="none" stroke="#000020" stroke-width=".577">
      <path style="-inkscape-font-specification:'Bebas Neue'" d="M.288 17.577h2.687V.483H.288zm10.366 0h2.759V.483H11.02v10.233h-.049L8.261.483H4.89v17.094h2.417V5.197h.049zm7.393-14.652h4.42V.483H15.36v17.094h2.687V10.52h3.468V8.078h-3.468zm5.708 14.652h2.686V.483h-2.686zm10.365 0h2.76V.483h-2.393v10.233h-.05L31.728.483h-3.37v17.094h2.418V5.197h.049zm4.707 0h2.686V.483h-2.686zm3.845-14.652h2.809v14.652h2.686V2.925h2.808V.483h-8.303zm12.149 0h4.64V.483h-7.327v17.094h7.327v-2.442h-4.64V10.13h3.687V7.688H54.82z" font-size="192" font-family="Bebas Neue" word-spacing="30"/>
      <path style="-inkscape-font-specification:'AlternateGothic2 BT'" d="M69.171 2.827v5.009h1.049q.918 0 1.276-.549.358-.56.358-2.063 0-1.36-.382-1.872-.37-.525-1.347-.525zm0 7.5v7.25h-2.66V.335h3.9q2.194 0 3.172 1.18.977 1.181.977 3.805 0 1.621-.393 2.623-.393 1.002-1.288 1.622l1.956 8.012H72.08l-1.645-7.249z" font-family="AlternateGothic2 BT"/>
      <path style="-inkscape-font-specification:'Bebas Neue'" d="M79.035 2.925h4.64V.483h-7.327v17.094h7.326v-2.442h-4.64V10.13h3.688V7.688h-3.687zm10.31 7.57h1.22v3.151c0 1.221-.536 1.66-1.391 1.66s-1.392-.439-1.392-1.66V4.415c0-1.221.537-1.685 1.392-1.685.855 0 1.392.464 1.392 1.685v1.831h2.54v-1.66c0-2.735-1.368-4.298-4.005-4.298-2.638 0-4.006 1.563-4.006 4.297v8.89c0 2.735 1.368 4.298 4.005 4.298 2.638 0 4.005-1.563 4.005-4.298V8.053h-3.76z" font-size="192" font-family="Bebas Neue" word-spacing="30"/>
      <path style="-inkscape-font-specification:'AlternateGothic2 BT'" d="M97.884 2.827v5.009h1.05q.918 0 1.275-.549.358-.56.358-2.063 0-1.36-.381-1.872-.37-.525-1.348-.525zm0 7.5v7.25h-2.659V.335h3.9q2.193 0 3.171 1.18.978 1.181.978 3.805 0 1.621-.394 2.623-.393 1.002-1.287 1.622l1.955 8.012h-2.755l-1.645-7.249z" font-family="AlternateGothic2 BT"/>
      <path style="-inkscape-font-specification:'Bebas Neue'" d="M107.748 2.925h4.64V.483h-7.326v17.094h7.326v-2.442h-4.64V10.13h3.687V7.688h-3.687zm5.938 1.661c0 1.954.709 3.37 2.955 5.348 1.759 1.538 2.296 2.466 2.296 3.712 0 1.221-.537 1.66-1.392 1.66-.855 0-1.392-.439-1.392-1.66v-1.22h-2.54v1.049c0 2.735 1.368 4.298 4.005 4.298 2.638 0 4.005-1.563 4.005-4.298 0-1.954-.708-3.37-2.955-5.348-1.758-1.538-2.295-2.467-2.295-3.712 0-1.221.488-1.685 1.343-1.685s1.343.464 1.343 1.685v.708h2.54v-.537c0-2.735-1.343-4.298-3.956-4.298s-3.957 1.563-3.957 4.297zm9.11 0c0 1.954.709 3.37 2.955 5.348 1.759 1.538 2.296 2.466 2.296 3.712 0 1.221-.537 1.66-1.392 1.66s-1.392-.439-1.392-1.66v-1.22h-2.54v1.049c0 2.735 1.368 4.298 4.005 4.298 2.638 0 4.005-1.563 4.005-4.298 0-1.954-.708-3.37-2.954-5.348-1.759-1.538-2.296-2.467-2.296-3.712 0-1.221.488-1.685 1.343-1.685s1.343.464 1.343 1.685v.708h2.54v-.537c0-2.735-1.343-4.298-3.956-4.298s-3.957 1.563-3.957 4.297z" font-size="192" font-family="Bebas Neue" word-spacing="30"/>
    </g>
    <g style="line-height:125%" transform="translate(34.925 -66.4) scale(.12719)" aria-label="INFINITE REGRESS" fill="url(#b)">
      <path style="-inkscape-font-specification:'Bebas Neue'" d="M-272.32 660.252h21.12v-134.4h-21.12z" font-size="192" font-family="Bebas Neue" word-spacing="30" fill="url(#c)"/>
      <path style="-inkscape-font-specification:'Bebas Neue'" d="M-190.825 660.252h21.696v-134.4h-18.816V606.3h-.384l-21.312-80.448h-26.496v134.4h19.008v-97.344h.384z" font-size="192" font-family="Bebas Neue" word-spacing="30" fill="url(#d)"/>
      <path style="-inkscape-font-specification:'Bebas Neue'" d="M-132.7 545.052h34.752v-19.2h-55.872v134.4h21.12v-55.488h27.264v-19.2H-132.7z" font-size="192" font-family="Bebas Neue" word-spacing="30" fill="url(#e)"/>
      <path style="-inkscape-font-specification:'Bebas Neue'" d="M-87.82 660.252h21.12v-134.4h-21.12z" font-size="192" font-family="Bebas Neue" word-spacing="30" fill="url(#f)"/>
      <path style="-inkscape-font-specification:'Bebas Neue'" d="M-6.325 660.252h21.696v-134.4H-3.445V606.3h-.384l-21.312-80.448h-26.496v134.4h19.008v-97.344h.384z" font-size="192" font-family="Bebas Neue" word-spacing="30" fill="url(#g)"/>
      <path style="-inkscape-font-specification:'Bebas Neue'" d="M30.68 660.252H51.8v-134.4H30.68z" font-size="192" font-family="Bebas Neue" word-spacing="30" fill="url(#h)"/>
      <path style="-inkscape-font-specification:'Bebas Neue'" d="M60.911 545.052h22.08v115.2h21.12v-115.2h22.08v-19.2h-65.28z" font-size="192" font-family="Bebas Neue" word-spacing="30" fill="url(#i)"/>
      <path style="-inkscape-font-specification:'Bebas Neue'" d="M156.425 545.052h36.48v-19.2h-57.6v134.4h57.6v-19.2h-36.48v-39.36h28.992v-19.2h-28.992z" font-size="192" font-family="Bebas Neue" word-spacing="30" fill="url(#j)"/>
      <path style="-inkscape-font-specification:'AlternateGothic2 BT'" d="M269.25 544.283v39.375h8.25q7.219 0 10.031-4.312 2.813-4.407 2.813-16.22 0-10.687-3-14.718-2.906-4.125-10.594-4.125zm0 58.969v57h-20.906V524.689H279q17.25 0 24.938 9.282 7.687 9.28 7.687 29.906 0 12.75-3.094 20.625t-10.125 12.75l15.375 63h-21.656l-12.938-57z" font-family="AlternateGothic2 BT" fill="url(#k)"/>
      <path style="-inkscape-font-specification:'Bebas Neue'" d="M346.8 545.052h36.48v-19.2h-57.6v134.4h57.6v-19.2H346.8v-39.36h28.992v-19.2H346.8z" font-size="192" font-family="Bebas Neue" word-spacing="30" fill="url(#l)"/>
      <path style="-inkscape-font-specification:'Bebas Neue'" d="M427.86 604.572h9.6v24.768c0 9.6-4.224 13.056-10.944 13.056-6.72 0-10.944-3.456-10.944-13.056v-72.576c0-9.6 4.224-13.248 10.944-13.248 6.72 0 10.944 3.648 10.944 13.248v14.4h19.968v-13.056c0-21.504-10.752-33.792-31.488-33.792-20.736 0-31.488 12.288-31.488 33.792v69.888c0 21.504 10.752 33.792 31.488 33.792 20.736 0 31.488-12.288 31.488-33.792v-42.624H427.86z" font-size="192" font-family="Bebas Neue" word-spacing="30" fill="url(#m)"/>
      <path style="-inkscape-font-specification:'AlternateGothic2 BT'" d="M495 544.283v39.375h8.25q7.219 0 10.031-4.312 2.813-4.407 2.813-16.22 0-10.687-3-14.718-2.907-4.125-10.594-4.125zm0 58.969v57h-20.906V524.689h30.656q17.25 0 24.938 9.282 7.687 9.28 7.687 29.906 0 12.75-3.094 20.625-3.093 7.875-10.125 12.75l15.375 63h-21.656l-12.938-57z" font-family="AlternateGothic2 BT" fill="url(#n)"/>
      <path style="-inkscape-font-specification:'Bebas Neue'" d="M572.55 545.052h36.48v-19.2h-57.6v134.4h57.6v-19.2h-36.48v-39.36h28.992v-19.2H572.55z" font-size="192" font-family="Bebas Neue" word-spacing="30" fill="url(#o)"/>
      <path style="-inkscape-font-specification:'Bebas Neue'" d="M619.242 558.108c0 15.36 5.568 26.496 23.232 42.048 13.824 12.096 18.048 19.392 18.048 29.184 0 9.6-4.224 13.056-10.944 13.056-6.72 0-10.944-3.456-10.944-13.056v-9.6h-19.968v8.256c0 21.504 10.752 33.792 31.488 33.792 20.736 0 31.488-12.288 31.488-33.792 0-15.36-5.568-26.496-23.232-42.048-13.824-12.096-18.048-19.392-18.048-29.184 0-9.6 3.84-13.248 10.56-13.248 6.72 0 10.56 3.648 10.56 13.248v5.568h19.968v-4.224c0-21.504-10.56-33.792-31.104-33.792-20.544 0-31.104 12.288-31.104 33.792z" font-size="192" font-family="Bebas Neue" word-spacing="30" fill="url(#p)"/>
      <path style="-inkscape-font-specification:'Bebas Neue'" d="M690.867 558.108c0 15.36 5.568 26.496 23.232 42.048 13.824 12.096 18.048 19.392 18.048 29.184 0 9.6-4.224 13.056-10.944 13.056-6.72 0-10.944-3.456-10.944-13.056v-9.6h-19.968v8.256c0 21.504 10.752 33.792 31.488 33.792 20.736 0 31.488-12.288 31.488-33.792 0-15.36-5.568-26.496-23.232-42.048-13.824-12.096-18.048-19.392-18.048-29.184 0-9.6 3.84-13.248 10.56-13.248 6.72 0 10.56 3.648 10.56 13.248v5.568h19.968v-4.224c0-21.504-10.56-33.792-31.104-33.792-20.544 0-31.104 12.288-31.104 33.792z" font-size="192" font-family="Bebas Neue" word-spacing="30" fill="url(#q)"/>
    </g>
  </g>
</svg>
