<svg xmlns="http://www.w3.org/2000/svg" width="369.779505" height="356.779536" viewBox="0 0 97.837493 94.397918">
  <defs>
    <filter id="a" color-interpolation-filters="sRGB">
      <feFlood flood-opacity=".498039" flood-color="#000" result="flood"/>
      <feComposite in="flood" in2="SourceGraphic" operator="in" result="composite1"/>
      <feGaussianBlur in="composite1" stdDeviation="3" result="blur"/>
      <feOffset dx="1" dy="2.34375" result="offset"/>
      <feComposite in="SourceGraphic" in2="offset" result="composite2"/>
    </filter>
  </defs>
  <g transform="matrix(.60044 -.11672 .11672 .60044 -32.337368 -26.410496)" filter="url(#a)">
    <path fill="#ffff8a" paint-order="stroke fill markers" d="M57.32053 91.860214h99.971001v99.971001H57.32053z"/>
    <path d="M78.805322 124.168227c-.160426-.027555-.313835-.046435-.466391-.057958-.46681-.03527-1.502167-.146176-2.299922-.246555-3.087506-.388541-5.59669-.462262-7.191829-.2112-.418771.065908-.782992.151992-.809342.19209-.02638.040051.220482.20003.548854.355422.328366.155377.609825.292176.625125.303976.015126.0116.245867-.02011.513588-.069712.289781-.05378.898182-.01489 1.502976.09594.558668.10237 2.050807.285228 3.31628.406261 2.789234.266758 4.067823.482975 5.433563.919397.629757.201248 1.295337.331332 1.6923.330689.524229-.000877 1.0596.145978 2.697089.740317 2.117246.768482 2.619439.857798 3.462364.611088l.40165-.11815-.825362-.442734c-.453858-.24357-1.199806-.6453-1.657888-.892889-1.302952-.70429-2.340686-1.017525-3.120845-.94232-.581315.056097-.824175.002753-2.050013-.45187-.749755-.278052-1.290923-.439138-1.772197-.521792zm-11.604944-.398633c-.040392-.004348-.09596.009112-.163808.041314-.263852.125261-.824052.190147-2.03901.235347-.501209.018659-1.135129.079948-1.408608.135847-.844207.17286-.914148.227525-.594471.463654.25644.189383.894409.1747 1.775786-.04123.429622-.105322.976718-.194435 1.215746-.197438.495723-.006488 1.308143-.367458 1.283983-.570598-.004748-.04-.029227-.062543-.069618-.066896zm22.55468 4.588424c-.045307-.007142-.071945-.006732-.075534.003392-.045795.128538.499398.553269 1.17952.918667.362413.194701.758715.491598.880543.659158.147462.202802.446196.396325.895191.579386 1.379957.562586 2.78613 1.52868 5.083609 3.49442 1.713406 1.46601 3.262628 2.7019 3.87173 3.087568.206858.131004.435793.362722.508295.515366.07249.15272.452748.527869.8457.83398.68097.53032.726296.549221.959797.393133.207142-.13837.221377-.187775.092866-.322765-.08358-.087792-.580189-.671888-1.103359-1.29718-.817601-.977211-1.311338-1.448167-1.9804-1.890248-.07927-.052358-.34368-.337202-.5878-.633233-.648712-.786641-1.693892-1.58106-4.142127-3.148741-1.19762-.766891-2.284113-1.474892-2.414615-1.573594-.234556-.177328-1.621956-.767655-3.232872-1.375486-.342665-.129294-.644626-.222394-.780544-.243823zm-9.691561 3.779964c-.233605.110901-.436435.531659-.488934 1.014331-.03327.305708-.099575.573941-.147886.596942-.048298.022929-.203952-.02874-.345918-.115442-.141955-.08655-.560046-.1631-.929607-.172102-.36952-.008299-.813841-.039726-.987382-.069725-.173556-.0303-.335515-.045612-.359067-.034512-.048413.022981-.212719 1.55324-.175267 1.632144.013303.027998.109496.034716.213985.014915.104495-.01983.298367.030433.431057.111335.217248.132371.249028.197561.31701.65375.056053.37621.247287.85301.740845 1.85154.3656.73968.652705 1.37746.638426 1.41766-.061517.172697-1.154089-.3541-1.878321-.90562-.43261-.329438-.941873-.66952-1.131923-.756218-.190016-.086692-.372617-.215544-.405817-.285443-.033209-.06995-.056121-.58838-.050624-1.151922.005496-.563539-.048292-1.168337-.119923-1.344408-.115469-.284119-.196599-.334618-.718174-.445138-.699938-.14826-1.181848-.088619-1.84818.227694-.47958.227617-.51018.226542-1.106751-.022358-.395957-.165203-.809046-.443088-1.16355-.783887-1.818532-1.748171-1.755392-1.699781-2.05532-1.588954-.15317.05657-.469719.139834-.703676.184235-.403887.076508-.433807.063831-.582412-.249202-.086103-.181378-.195656-.344238-.243856-.36154l-.001659-.000322c-.223322-.07955-.898842.375082-1.376179.925339-.365687.421602-.655616.658192-1.036262.850271-.459341.230974-.577776.347448-.90583.887678-.68584 1.12941-.97006 1.322917-3.961574 2.705194-1.012236.467737-1.892958.89706-2.360181 1.143727l-.000622 5.47102c1.966547-.704115 4.168197-1.3445 6.48039-1.871301 1.80616-.411472 2.643011-.510224 4.09585-.482721 1.2701.02399 1.775802-.037989 3.079272-.375669 1.17943-.30545 1.84526-.283643 2.366436.077029l.361888.250222.2723-.293909.272455-.294737 1.141474.162507c1.53554.218311 2.486038.29022 4.109573.310022 1.276313.01548 1.399487.037724 1.904646.34959.892854.55122 1.768775.890231 3.784268 1.465462 2.310413.659431 3.350447 1.048517 4.185774 1.565027.412194.25486.819225.411198 1.181984.4544 1.205987.14377 2.833075.858073 5.17742 2.27246 3.171054 1.913172 4.367148 2.510376 4.405247 2.198098.028762-.23564-.27127-.807186-.705296-1.343736-.535508-.662039-.746874-1.142479-.664091-1.50699.06828-.300678.06529-.305635-.454502-.862934-.939748-1.007549-1.439197-1.72871-2.164522-3.125781l-.710574-1.369717-.454279-.146835c-.523148-.169301-1.063043-.591385-1.248424-.975955-.164014-.340141-.101046-.956327.12544-1.225278.154397-.183328.151252-.24422-.030712-.501703-.113783-.160977-.546834-.59652-.962566-.96772-.415734-.37121-.902308-.8767-1.081212-1.12333-.178912-.24664-.363094-.491761-.408713-.54506-.232507-.271851-1.083173.567441-.921123.9088.10204.215331-.099734.220798-.376388.010319-.144525-.109941-.512762-.51195-.818683-.89328-.698062-.870172-1.035155-1.17545-1.20747-1.09365-.074251.035258-.21432.249212-.31191.475552-.19181.444862-.407524.612318-.579476.448498-.05956-.05666-.377974-.114178-.706845-.12708-.531114-.020781-.616792-.056997-.77136-.322074-.144397-.247673-.251382-.303484-.626094-.329986-.248331-.017199-.498125-.027028-.555334-.021025-.05998.006138-.080672-.086063-.048893-.217783.030739-.124872.019944-.175816-.023132-.111218-.148757.223721-.497624.096205-.94729-.346808-.407948-.401899-.542602-.464331-1.402222-.64524-1.057558-.22259-1.540803-.478539-1.785092-.94688-.089997-.172538-.195901-.29897-.234642-.280568zm24.364531 6.71404c-.125387-.037837-.204736.051367-.291346.294506-.20834.584883.19934 1.32989 1.47157 2.688134 1.1517 1.229567 1.371515 1.529537 1.185616 1.617835-.265453.126012-.187523.513701.264407 1.313972.454728.80523.841526 1.22093 1.305736 1.402789.336917.132001.327446.31746-.010932.215618-.314229-.09482-.642712.067275-.54631.269043.215096.45057.942378.644888 1.333556.35649.26987-.198923 1.257895.461175 1.377194.920087.059279.228006.099449.253573.272158.171674l.202112-.096696-.658847-1.241752c-.809713-1.52692-1.676683-2.881066-2.835955-4.426784-.860386-1.14719-2.584438-3.152725-2.926869-3.405655-.054023-.039898-.100295-.066651-.14209-.079261zm-12.270585-1.087449c.171592.01536.503523.266946.677541.53019.132904.201052.120204.216782-.404164.480854l-.541317.27432-.143298-.303264c-.0866-.182422-.100109-.323356-.033396-.355056.060967-.02894.14587-.167681.188049-.307704l-.000828-.000161c.04215-.139989.130124-.28002.194663-.310719.017044-.00809.038235-.010652.06275-.00846zm-12.393173 1.464644c.067756.02577.113554.074952.150275.152287.054036.113845.166415.201824.249582.194826.083193-.00631.156287.058728.162987.144428.006935.090131.118992.173918.265182.198719.321416.05447.430532.273824.192463.386836-.290828.13804-.85373.083477-.866672-.084133-.006252-.081357-.165613-.218709-.353897-.30461-.188296-.08593-.391521-.26072-.452102-.38825-.11955-.251833-.121003-.250529.369783-.312829.124972-.015858.214648-.013042.282399.012726zm-16.776842-1.86273c.05259.018092.108944.083344.196947.204388.412404.56718.31284.97477-.219973.90137-.354484-.04881-.54305-.356009-.409202-.666507.049957-.115993.166211-.279226.258171-.362924.072329-.065883.121468-.094425.174057-.076328zm46.573373 10.066472c-.052893-.012415-.115723-.003429-.187556.030674-.2997.142268-.45816.4334-.819458 1.51036-.312063.930178-.332607 1.080584-.188873 1.383355.173528.365548.084857.625705-.329324.963595-.11718.095598-.230775.24455-.252873.33125-.03097.1216.048621.128872.350932.032071.215282-.0689.439554-.107965.498752-.086366.168381.06159.106673 1.528426-.084576 2.011244-.109264.275892-.294152.51776-.506904.663997-.350477.24078-.33065.446104.032132.335016.250458-.076691.286055-.023129.155506.23162-.077383.15122-.066124.198188.051195.214785.08275.011693.156221.09581.163222.187508.01853.240937-.386212.903955-.689624 1.130234-.304781.227181-.304268.23386.0231.350473.216911.077268.264589.147298.34709.51673.11458.513158.439689 1.047713 1.384818 2.271064 1.199792 1.553026 1.571943 2.533522 1.204653 3.18017-.122532.21571-.105369.266329.390312 1.157709.285129.512748.846779 1.463547 1.2486 2.112906.704959 1.139278 1.669638 3.19118 2.096997 4.460432.154831.459848.167083.471356.570955.520655.22719.027723.436476.098684.464279.157385.027869.05868-.01845.3133-.103153.56605-.262359.783206.045677 2.22761 1.120375 5.247417.773513 2.173688.839395 2.5573.775696 4.532349-.053139 1.648279.01953 2.206478.38891 2.98459.256988.54134.265516.612555.120277 1.041528-.27354.8079-.200377 1.987408.172612 2.786765l.156066.335009-.626685.297312c-.364001.17278-.737004.420246-.891355.591844-.316358.35179-.605637 1.07262-.510737 1.27259.0372.07836.310925.295044.607853.481355.29694.1863.578936.418847.626932.516047.008472.01717.009318.053508.01484.078624l2.59401-.000084c.153838-.353528.28152-.768844.31782-1.099234.0183-.165222.020865-.850307.005868-1.522206-.023499-1.05294-.05327-1.23263-.21564-1.303628-.492027-.21524-.591316-.367384-.508215-.776987.118387-.583627.112171-1.149615-.028291-2.754409-.069998-.799117-.121828-1.60234-.117825-1.784647.027707-1.045793.425954-2.014445 1.000381-2.432233.155882-.113438.277468-.218874.269465-.235077-.00765-.016099-.20818-.167306-.445857-.336256-.388439-.27612-.460694-.378848-.71576-1.010977-.348834-.86454-.36799-1.576408-.07905-2.980296.169578-.823971.17451-1.013964.030808-1.136952-.230007-.19685-.29294-.562769-.174642-1.014227.068491-.26137.04745-.476128-.0732-.730289-.093997-.198018-.237264-.66307-.318064-1.033501-.083261-.381279-.239133-.808143-.359552-.983903-.264991-.386667-.260374-.598133.050157-2.157362.344547-1.72499.34382-2.24514-.00393-2.999258l-.282155-.611691.362284-.106008c.31939-.09349.381499-.158658.52642-.547458.163376-.43827.161752-.448342-.285158-1.627836-.987918-2.6073-3.746694-8.016042-4.885484-9.578555-.575188-.78919-.832482-1.242817-1.366972-2.402718-.72031-1.56346-.97181-1.926613-1.47069-2.125955-.472339-.188758-.640682-.074617-.457941.31032.097998.206592.106369.331615.024368.370514-.234841.11148-.654148-.072833-.865787-.380881-.172-.25032-.197736-.395433-.137334-.763414.060883-.370664-.00634-.605881-.16502-.64314zm-49.066863-8.909932c.024648.012887.047672.040117.067546.081983.032972.069457.117055.180591.186905.247189.10263.097589.076582.137604-.137215.210005-.318147.107722-.4536-.004885-.351017-.292866.069948-.196391.159838-.284978.233781-.24631zm42.415075 11.93303c-.014697-.004844-.082908.022776-.214466.08052-.161428.07079-.279417.158836-.262715.195938.0169.037056.048472.169326.071171.293543.03341.182143.078048.20805.23005.135948.103636-.049208.169797-.129078.146498-.178077-.023241-.049297-.085747-.06852-.138747-.043324-.176853.083949-.130437-.20356.059642-.368812l.000161-.000828c.084088-.072869.123098-.110064.108406-.114908zm3.65708 4.085507c-.17124-.060992-.25009.119907-.163493.376165.085342.25254.346561.448232.500249.375234.091752-.04357-.204458-.704301-.336756-.7514zm-6.421675 3.202947c-.273527-.062672-.45744.073488-.35064.298474.122175.258141.746152.25383.72635-.00425-.006557-.08521-.120946-.199321-.253548-.254124l.00016-.000828c-.042118-.017406-.083245-.030318-.122322-.039272zm27.463993 23.000999c-.210254-.05544-.456118-.064633-.66063-.006207-.191732.05483-.395256.104794-.45206.111792-.056758.0062-.112041.011956-.122042.012422-.010061.000072-.07042.054577-.13372.12118-.323518.339597.51696.903329 1.192299.7998.33295-.050949.419494-.100342.551194-.316293.0859-.140856.117317-.337268.070216-.436467-.060967-.128448-.235004-.230783-.445257-.286227zm-35.84207-3.15474c-.485378-.075486-.917303.204182-1.226057.803906-.249946.485439-.25318.534991-.05819.945731.17652.37185.258977.446983.579295.530882.47471.124011.735275.087004 1.064057-.152045.441402-.32092.607715-1.154167.341838-1.714227-.060998-.128494-.269719-.281879-.49023-.36038-.07133-.025402-.141375-.043086-.210713-.053868zm-14.522601.757217c-.030347-.00422-.055213-.002317-.07353.00636-.27484.130461-.95629 1.182967-1.190805 1.840095-.296831.831692-.369826 1.832927-.213561 2.918255.179525 1.24696.463272 2.124775 1.190624 3.681787l.664965 1.422819.365516.032324c.200951.017679.58744-.046322.85915-.142823l.493795-.175976.008422-.587907c.004457-.323709.106325-1.126224.226151-1.783191.385606-2.114244.316903-2.751848-.502748-4.674657-.560375-1.314609-.93853-1.916465-1.484221-2.361823l-.000832-.000161c-.117143-.095594-.251884-.16245-.342926-.175102z" fill="#542c00" fill-opacity=".248062"/>
    <g aria-label="Nope, that doesn't exist." style="line-height:125%" font-weight="400" font-size="16.933332" font-family="RobinsHand" letter-spacing="0" word-spacing="0" stroke-width=".264583" text-anchor="middle">
      <path d="M87.485991 150.78069q0 .42333-.1016.89746-.169333.77894-.338666 1.55787-.0508.44027-.06773 1.1176t-.01693.74507q0 .54186.0508 1.4732.06773.93133.06773 1.20226 0 .4572-.01693.9144t-.03387.9144q0 .3048.118534.88054.118533.57573.118533.84666l-.0508.3048-.118533.16934-.186267.1524-.2032.0508q-.270933 0-.474133-.2032-.2032-.22014-.321734-.54187-.169333-.59267-.440266-1.10067-.270934-.508-.6604-1.10066-.728134-1.10067-1.456267-2.21827-1.202266-1.8288-1.947333-2.86173-1.0668-1.4732-1.540933-1.8288-.118534.52493-.118534 1.1176 0 .49106.06773.99906.06773.49107.186266 1.1176.118534.62654.186267 1.40547.169333 1.8796.220133 2.15053.169334.72814.237067 1.08374.135467.6604.135467 1.10066 0 .47414-.03387.64347-.03387.16933-.169333.49107-.524934-.3048-.728134-.762-.186266-.47414-.186266-1.10067 0-.49107.01693-.77893.01693-.3048.03387-.57574 0-1.18533-.237067-2.6416-.237067-1.45626-.491067-2.98026-.237066-1.54094-.237066-2.67547 0-.254.0508-.4572.0508-.22013.220133-.22013.491067 0 1.998133 2.20133 1.507067 2.20133 2.963334 4.3688 1.727199 2.57387 2.387599 3.0988.169334-.74507.169334-1.60867 0-.62653-.118534-1.86266-.118533-1.23614-.118533-1.86267 0-.3556.03387-.94827.0508-.59266.0508-.7112 0-.27093-.1016-.9144-.08467-.6604-.08467-.84666 0-.3048.186267-.6096.186266-.32174.491066-.32174.254 0 .423334.23707.186266.22013.186266.49107zM92.914183 159.94162q0 .8636-.474134 1.50707-.524933.7112-1.388533.7112-1.134533 0-2.099733-1.15147-.948267-1.15147-.948267-2.31987 0-.8636.592667-1.3716.6096-.52493 1.490133-.52493 1.151467 0 2.015067 1.016.8128.9652.8128 2.1336zm-.592667-.18627q0-.67733-.728133-1.4732-.728134-.79586-1.405467-.79586-.575733 0-.9144.42333-.338667.42333-.338667 1.016 0 .8128.508 1.54093.524934.7112 1.3208.7112.6604 0 1.100667-.37253.4572-.38947.4572-1.04987zM98.251886 159.45055q0 1.10067-.728133 1.59174-.6096.4064-1.710267.4064h-.423333q-.186267-.0339-.270933-.0339-.1016.38947-.135467.94827-.01693.5588-.01693.79586v.23707q0 .42333.135466 1.18533.135467.762.135467 1.13453 0 .6096-.541867.72814-.440266-1.20227-.592666-2.6416-.1524-1.43933-.1524-3.0988 0-1.10067.01693-2.57387.01693-1.49013.118533-1.60866.1016-.11854 1.388534-.23707.541866-.0508.778933-.0508.982133 0 1.540933 1.1684.4572.94827.4572 2.04893zm-.728133-.4064q0-.74506-.372533-1.40546-.440267-.77894-1.151467-.77894-.541867 0-.931333.38947-.389467.38947-.389467.94827 0 1.20226.118533 1.60866.270934.89747 1.1684.89747.745067 0 1.151467-.4572t.4064-1.20227zM105.00141 161.19469q0 .49106-1.2192.77893-.88054.2032-1.6764.2032-.93134 0-1.49014-.28787-.54186-.28786-1.117596-1.03293-.3556-.37253-.541866-.59267-.186267-.23706-.186267-.3556 0-.18626.169333-.38946.254-.32174.270934-.3556l.3048-.762q.321733-.762 1.253062-1.27.93134-.508 1.81187-.508.82973 0 1.35467.52493.52493.52493.52493 1.3716 0 1.25307-1.4732 1.69333-.8128.23707-2.50613.23707.27093.42333.62653.6604.37253.23707.8636.23707.508 0 1.30387-.32174.8128-.33866.99906-.33866.27094 0 .49107.13546.23707.13547.23707.37254zm-1.30387-2.5908q0-.47414-.37253-.8128-.37254-.33867-.84667-.33867-.67733 0-1.4732.54187-.77893.52493-.77893 1.1684 0 .508.67733.64346.27093.0508.62653.0508.7112 0 1.35467-.28786.8128-.3556.8128-.9652zM107.7544 161.75349q0 .54186-.13547 1.1176-.11853.59266-.3556 1.06679-.38947-.16933-.54187-.27093-.32173-.22013-.32173-.508 0-.18626.38947-.77893.18626-.28787.18626-.54187 0-.32173-.37253-.98213-.28787-.508-.32173-.57573l.37253-.0508q.57573 0 .8636.49106.23707.4064.23707 1.03294zM118.6084 159.11189q0 1.4732-.57574 2.3876-.4572.7112-1.1684.7112-1.49013 0-2.04893-1.89654-.33867-1.15146-.33867-3.11573-.508.1016-.99906.2032-.27094 0-.33867-.2032-.0677-.2032-.0677-.5588.77893-.1016.98213-.18627.47413-.2032.47413-.79586 0-.2032-.1016-.62654-.1016-.42333-.1016-.64346 0-.33867.16934-.49107.18626-.1524.54186-.18627.0508.18627.0677.508.0169.32174.0169.37254 0 .18626-.0169.3556v.33866q0 1.10067.54186 1.30387.89747.0677 1.54094.16933l1.1176.16934v.54186q-.3048 0-.93134-.0677-.62653-.0677-.94826-.0677-.54187 0-.82974.16933-.27093.1524-.27093.62653 0 .99907.23707 1.89654.3556 1.33773 1.0668 1.33773.6096 0 1.016-1.23613.42333-1.25307.93133-1.524zM123.84715 161.17775q0 .33867-.11854.52494-.11853.16933-.44026.16933l-.3048-.0508q.0847-.7112.0847-1.28693 0-1.03294-.254-1.6256-.37253-.8636-1.25306-.8636-.5588 0-.79587.3048t-.23707.88053q0 .32173.0508 1.016.0508.69427.0508 1.04987 0 .28786-.0847.54186-.0677.23707-.254.4064-.38947-.38946-.54187-1.13453-.1524-.762-.1524-1.6764 0-.32173.0169-.88053t.0169-.74507q0-.79587-.18627-2.54-.18627-1.74413-.18627-2.6416 0-.3556.11854-.508.11853-.1524.49106-.23707.13547.49107.18627 1.10067.0677.59267.0677 1.23613v.2032q0 .3048-.0169.6096v.74507q-.0169.28787-.0169.52493 0 .508.0847.8636t.32174.3556q.16933 0 .4064-.0508.5588-.11853.74506-.11853 1.2192 0 1.65947.88053.22013.44027.42333 1.9304.0508.33867.0847.59267t.0339.42333zM130.4612 161.48255q0 .254-.16933.54187-.16934.28787-.4064.28787-.27094 0-.52494-.84667-.0847-.3048-.16933-.6096-.42333.57573-1.1176.89747-.67733.3048-1.4224.3048-1.0668 0-1.6256-.6604-.54187-.67734-.54187-1.76107 0-1.10067.74507-1.86267.762-.77893 1.86267-.77893 1.1176 0 1.74413.49107.74507.57573 1.20227 2.52306.0508.23707.23706.84667.18627.6096.18627.62653zm-1.30387-2.032q0-.82973-.6096-1.27-.6096-.4572-1.49013-.4572-.77893 0-1.3716.67734-.59267.67733-.59267 1.45626 0 .7112.54187 1.08374.5588.37253 1.30387.37253.8636 0 1.50706-.49107.7112-.54186.7112-1.3716zM136.4347 159.11189q0 1.4732-.57573 2.3876-.4572.7112-1.1684.7112-1.49014 0-2.04894-1.89654-.33866-1.15146-.33866-3.11573-.508.1016-.99907.2032-.27093 0-.33867-.2032-.0677-.2032-.0677-.5588.77893-.1016.98213-.18627.47414-.2032.47414-.79586 0-.2032-.1016-.62654-.1016-.42333-.1016-.64346 0-.33867.16933-.49107.18627-.1524.54187-.18627.0508.18627.0677.508.0169.32174.0169.37254 0 .18626-.0169.3556v.33866q0 1.10067.54187 1.30387.89746.0677 1.54093.16933l1.1176.16934v.54186q-.3048 0-.93133-.0677-.62654-.0677-.94827-.0677-.54187 0-.82973.16933-.27094.1524-.27094.62653 0 .99907.23707 1.89654.3556 1.33773 1.0668 1.33773.6096 0 1.016-1.23613.42333-1.25307.93133-1.524zM77.847618 175.96347q0 .7112-.270933.89747-.186267.11853-.897467.11853-.135467 0-.694267.0847-.220133.0339-.423333.0339-1.286933 0-2.218267-.94827-.931333-.94827-.931333-2.2352 0-.88053.626533-1.50707.626534-.62653 1.524-.62653.508 0 1.0668.22013.440267.16934.982134.508.1016-.4064.1016-.8128 0-.38946-.1016-1.18533-.1016-.79586-.1016-1.2192 0-.33866.01693-.6096.03387-.27093.237067-.6604.270933.23707.372533.6096.118533.37254.118533.77894 0 1.3208.1524 2.81093.237067 1.8796.338667 2.82786l.1016.9144zm-1.134533-1.03293q0-.8128-.474134-1.55787-.541866-.84666-1.337733-.84666-.6096 0-1.1176.508-.508.508-.508 1.1176 0 .82973.745067 1.45626.745066.6096 1.591733.6096.5588 0 .829733-.3556.270934-.3556.270934-.93133zM83.306501 174.82894q0 .8636-.474133 1.50707-.524934.7112-1.388534.7112-1.134533 0-2.099733-1.15147-.948267-1.15147-.948267-2.31987 0-.8636.592667-1.3716.6096-.52493 1.490133-.52493 1.151467 0 2.015067 1.016.8128.9652.8128 2.1336zm-.592667-.18627q0-.67733-.728133-1.4732-.728133-.79586-1.405467-.79586-.575733 0-.9144.42333-.338666.42333-.338666 1.016 0 .8128.508 1.54093.524933.7112 1.3208.7112.6604 0 1.100666-.37253.4572-.38947.4572-1.04987zM90.168204 176.08201q0 .49106-1.2192.77893-.880533.2032-1.6764.2032-.931333 0-1.490133-.28787-.541867-.28786-1.1176-1.03293-.3556-.37253-.541867-.59267-.186266-.23706-.186266-.3556 0-.18626.169333-.38946.254-.32174.270933-.3556l.3048-.762q.321734-.762 1.253067-1.27t1.811867-.508q.829733 0 1.354666.52493.524933.52493.524933 1.3716 0 1.25307-1.4732 1.69333-.812799.23707-2.506133.23707.270934.42333.626534.6604.372533.23707.8636.23707.508 0 1.303866-.32174.8128-.33866.999067-.33866.270933 0 .491066.13546.237067.13547.237067.37254zm-1.303867-2.5908q0-.47414-.372533-.8128-.372533-.33867-.846666-.33867-.677334 0-1.4732.54187-.778934.52493-.778934 1.1684 0 .508.677334.64346.270933.0508.626533.0508.7112 0 1.354667-.28786.812799-.3556.812799-.9652zM94.614526 175.59094q0 .7112-.491066 1.04987-.474134.33866-1.2192.33866-.745067 0-1.439334-.37253-.812799-.44027-.812799-1.13453 0-.33867.372533-.33867.2032 0 1.151466.6604.4572.32173.846667.32173.321733 0 .508-.254.186267-.254.186267-.57573 0-.49107-1.507067-.79587-1.490133-.3048-1.490133-1.6256 0-.79586.778933-1.3208.778933-.54186 1.6256-.54186.6096 0 .829733.28787.237067.27093.237067.89746l-.0508.16933q-.643467-.27093-.762-.32173-.4572-.16933-.829733-.16933-.440267 0-.745067.28786-.287867.27094-.287867.7112 0 .42334 1.540934.88054 1.557866.44026 1.557866 1.84573zM99.941384 175.52321q0 .49106-.03387.72813-.01693.22013-.118533.62653-.491067-.16933-.677334-.47413-.169333-.32173-.169333-.79587 0-.37253.01693-.6096.01693-.23706.03387-.44026 0-.72814-.389467-1.25307-.389466-.54187-1.1176-.54187-.728133 0-1.016.52494-.220133.38946-.220133 1.1684 0 .3048.08467.67733.2032.9144.2032 1.13453 0 .7112-.6604.7112-.169334 0-.270934-.11853-.08467-.13547-.135466-.3048-.03387-.16933-.135467-1.15147-.186267-1.94733-.186267-2.31986 0-.4064.08467-.72814.08467-.32173.321733-.54186.2032.22013.4572.32173.254.0847.541867.0847.220133 0 .575733-.0169.3556-.0339.372534-.0339 1.253066 0 1.896533 1.10066.541867.93134.541867 2.25214zM102.86079 166.20988q0 .38946-.254 1.28693-.3048 1.04987-.5588 1.04987-.18626 0-.38946-.1524-.18627-.16934-.18627-.3556 0-.0677.42333-1.1684.44027-1.10067.57574-1.38854.16933.1524.27093.33867.11853.18627.11853.38947zM108.86842 173.99921q0 1.4732-.57573 2.3876-.4572.7112-1.1684.7112-1.49013 0-2.04893-1.89654-.33867-1.15146-.33867-3.11573-.508.1016-.99907.2032-.27093 0-.33866-.2032-.0677-.2032-.0677-.5588.77894-.1016.98214-.18626.47413-.2032.47413-.79587 0-.2032-.1016-.62653-.1016-.42334-.1016-.64347 0-.33867.16933-.49107.18627-.1524.54187-.18626.0508.18626.0677.508.0169.32173.0169.37253 0 .18627-.0169.3556v.33867q0 1.10066.54187 1.30386.89747.0677 1.54093.16933l1.1176.16934v.54186q-.3048 0-.93133-.0677t-.94827-.0677q-.54186 0-.82973.16933-.27093.1524-.27093.62653 0 .99907.23706 1.89654.3556 1.33773 1.0668 1.33773.6096 0 1.016-1.23613.42334-1.25307.93134-1.524zM120.56221 176.08201q0 .49106-1.2192.77893-.88053.2032-1.6764.2032-.93133 0-1.49013-.28787-.54187-.28786-1.1176-1.03293-.3556-.37253-.54187-.59267-.18626-.23706-.18626-.3556 0-.18626.16933-.38946.254-.32174.27093-.3556l.3048-.762q.32174-.762 1.25307-1.27.93133-.508 1.81187-.508.82973 0 1.35466.52493.52494.52493.52494 1.3716 0 1.25307-1.4732 1.69333-.8128.23707-2.50614.23707.27094.42333.62654.6604.37253.23707.8636.23707.508 0 1.30386-.32174.8128-.33866.99907-.33866.27093 0 .49107.13546.23706.13547.23706.37254zm-1.30386-2.5908q0-.47414-.37254-.8128-.37253-.33867-.84666-.33867-.67734 0-1.4732.54187-.77894.52493-.77894 1.1684 0 .508.67734.64346.27093.0508.62653.0508.7112 0 1.35467-.28786.8128-.3556.8128-.9652zM125.97373 176.67467q0 .1524-.13546.32174-.11854.1524-.28787.1524-.3048 0-.82973-.84667-.62653-.99907-1.04987-1.27-.38946.47413-.57573.79587-.27093.44026-.38947.89746-.37253-.16933-.52493-.3556-.1524-.18626-.1524-.37253 0-.18627.5588-.88053.57573-.7112.57573-1.016 0-.52494-1.08373-1.3716-1.0668-.8636-1.0668-1.28693 0-.13547.18627-.13547.49106 0 1.28693.8128.13547.13546 1.0668 1.23613.13547-.1016.9652-1.04987.6096-.7112 1.15146-.762 0 .6604-.72813 1.49014-.7112.8128-.7112 1.0668 0 .3556.8636 1.30386.88053.93134.88053 1.27zM127.75147 169.24094q0 .1524-.23707.27094-.23706.1016-.4064.1016-.254 0-.37253-.16934-.1016-.16933-.1016-.44026 0-.16934.16933-.27094.18627-.1016.27094-.1524.2032.1524.4064.28787.27093.22013.27093.37253zm.49107 7.366q0 .3048-.0847.49107-.0847.18626-.3556.18626-.27093 0-.44027-.11853-.16933-.11853-.16933-.47413.0169-.254.0169-.38947 0-1.0668-.0339-1.4732-.0169-.42333-.1016-1.18533-.1016-.59267-.18627-1.20227 0-.254.0677-.44027.0847-.2032.254-.4572.2032.1016.3556.254.1524.1524.16934.33867l.0508.94827q.22013 1.76106.4572 3.52213zM132.91296 175.59094q0 .7112-.49107 1.04987-.47413.33866-1.2192.33866-.74506 0-1.43933-.37253-.8128-.44027-.8128-1.13453 0-.33867.37254-.33867.2032 0 1.15146.6604.4572.32173.84667.32173.32173 0 .508-.254.18626-.254.18626-.57573 0-.49107-1.50706-.79587-1.49013-.3048-1.49013-1.6256 0-.79586.77893-1.3208.77893-.54186 1.6256-.54186.6096 0 .82973.28787.23707.27093.23707.89746l-.0508.16933q-.64347-.27093-.762-.32173-.4572-.16933-.82974-.16933-.44026 0-.74506.28786-.28787.27094-.28787.7112 0 .42334 1.54093.88054 1.55787.44026 1.55787 1.84573zM138.83249 173.99921q0 1.4732-.57574 2.3876-.4572.7112-1.1684.7112-1.49013 0-2.04893-1.89654-.33867-1.15146-.33867-3.11573-.508.1016-.99906.2032-.27094 0-.33867-.2032-.0677-.2032-.0677-.5588.77893-.1016.98213-.18626.47413-.2032.47413-.79587 0-.2032-.1016-.62653-.1016-.42334-.1016-.64347 0-.33867.16934-.49107.18626-.1524.54186-.18626.0508.18626.0677.508.0169.32173.0169.37253 0 .18627-.0169.3556v.33867q0 1.10066.54186 1.30386.89747.0677 1.54094.16933l1.1176.16934v.54186q-.3048 0-.93134-.0677-.62653-.0677-.94826-.0677-.54187 0-.82974.16933-.27093.1524-.27093.62653 0 .99907.23707 1.89654.3556 1.33773 1.0668 1.33773.6096 0 1.016-1.23613.42333-1.25307.93133-1.524zM142.14083 175.76027q0 .27094-.2032.49107t-.49106.22013q-.38947 0-.762-.33866-.37254-.33867-.37254-.72814 0-.28786.22014-.49106.23706-.22014.52493-.22014.38947 0 .72813.33867.3556.32173.3556.72813z" style="-inkscape-font-specification:RobinsHand;text-align:center"/>
    </g>
  </g>
  <g aria-label="404" style="line-height:125%" font-weight="400" font-size="50.799999" font-family="RobinsHand" letter-spacing="0" word-spacing="0" stroke-width=".264583">
    <path d="M38.428217 44.332963q.096347.487746.058714.93861-.01317.414357-.178761.858824-1.18098-.526881-1.817388-1.984847-.40006-.902855-.773403-2.792868l-.162585-.82307q-.355279-1.798561-.762112-2.415016-.595008-.927693-1.87534-.674783-.640166.126455-1.628075.416623-.993932.259683-1.176836.295813-.304841.060217-.524251.071884-.225432-.018816-.432423-.104623-.316509-.159193-1.337928-3.726582-.990935-3.57341-1.237824-4.823258.97549-.192694 1.546412.613063.437318.610433.684206 1.86028.066238.335325.156188.951029.08995.615703.12608.798608.427538 2.16437 1.242707 2.76351.705653.525755 1.925016.284888 1.707109-.337214 2.010061-2.170777.222416-1.279205-.259317-3.717931-.102369-.51823-.313503-1.42673-.211134-.908501-.27135-1.213342-.114412-.579197-.034252-.975115.104623-.432423.544195-.772642.55775 1.220115.896091 2.451897.368825 1.22576.693995 2.871901.319149 1.615656.523134 2.969.701905 4.675731.774165 5.04154.138499.701134 1.017277 2.744695.466674 1.079738.587107 1.68942zM52.789195 32.532549q.632276 3.200828-.118525 6.29478-.935583 3.922291-3.770603 4.482307-3.383733.668405-6.40845-3.580165-2.417289-3.41835-3.188062-7.320312-.698514-3.536154-.171267-7.441132.225432.018816.578822.04403.383873.019193.597262-.022959.426777-.084303 1.500493-.581462.610057-.278875.945382-.345114.792586-.156563 1.742863.004133.718823.111396 1.741736.47946 2.618249.908115 4.307302 3.045007 1.683032 2.106407 2.243047 4.941427zm-1.335653.45388q-.61421-3.109377-2.88171-5.448741-2.583632-2.657-5.571072-2.066876-2.16437.427538-2.68786 2.748096-.369565 1.65668.11819 4.125891.590123 2.98744 2.654774 6.063692 2.55654 3.8026 5.117203 3.29678 2.225338-.439582 3.055547-3.612566.688705-2.606582.194928-5.106277zM65.637641 38.958153q.096347.487746.058714.93861-.01317.414357-.178761.858824-1.18098-.526881-1.817388-1.984847-.40006-.902855-.773403-2.792868l-.162585-.82307q-.355279-1.798561-.762112-2.415016-.595008-.927693-1.87534-.674783-.640166.126455-1.628075.416623-.993932.259683-1.176836.295813-.304841.060217-.524251.071884-.225432-.018816-.432423-.104623-.316509-.159193-1.337928-3.726582-.990935-3.57341-1.237824-4.823258.97549-.192694 1.546412.613063.437318.610433.684206 1.86028.066238.335325.156188.951029.08995.615703.12608.798608.427538 2.16437 1.242707 2.76351.705653.525755 1.925016.284888 1.707109-.337214 2.010061-2.170777.222416-1.279204-.259317-3.717931-.102369-.51823-.313503-1.42673-.211134-.9085-.27135-1.213342-.114412-.579197-.034252-.975115.104623-.432423.544195-.772642.55775 1.220115.896091 2.451897.368825 1.22576.693995 2.871901.319149 1.615656.523134 2.969.701905 4.675731.774165 5.04154.138499.701134 1.017277 2.744695.466674 1.079738.587107 1.68942z" style="-inkscape-font-specification:RobinsHand"/>
  </g>
</svg>
