<?xml version="1.0" encoding="UTF-8" standalone="no"?>
<!-- Created with Inkscape (http://www.inkscape.org/) -->

<svg
   xmlns:dc="http://purl.org/dc/elements/1.1/"
   xmlns:cc="http://creativecommons.org/ns#"
   xmlns:rdf="http://www.w3.org/1999/02/22-rdf-syntax-ns#"
   xmlns:svg="http://www.w3.org/2000/svg"
   xmlns="http://www.w3.org/2000/svg"
   xmlns:sodipodi="http://sodipodi.sourceforge.net/DTD/sodipodi-0.dtd"
   xmlns:inkscape="http://www.inkscape.org/namespaces/inkscape"
   width="146.53752mm"
   height="166.07927mm"
   viewBox="0 0 146.53752 166.07927"
   version="1.1"
   id="svg8"
   inkscape:version="0.92.3 (2405546, 2018-03-11)"
   sodipodi:docname="homePhilLogo.svg">
  <defs
     id="defs2" />
  <sodipodi:namedview
     id="base"
     pagecolor="#ffffff"
     bordercolor="#666666"
     borderopacity="1.0"
     inkscape:pageopacity="0.0"
     inkscape:pageshadow="2"
     inkscape:zoom="0.7"
     inkscape:cx="13.579696"
     inkscape:cy="221.02945"
     inkscape:document-units="mm"
     inkscape:current-layer="layer1"
     showgrid="false"
     inkscape:window-width="1831"
     inkscape:window-height="1167"
     inkscape:window-x="78"
     inkscape:window-y="-11"
     inkscape:window-maximized="1"
     inkscape:measure-start="217.688,119.703"
     inkscape:measure-end="237.386,100.005" />
  <metadata
     id="metadata5">
    <rdf:RDF>
      <cc:Work
         rdf:about="">
        <dc:format>image/svg+xml</dc:format>
        <dc:type
           rdf:resource="http://purl.org/dc/dcmitype/StillImage" />
        <dc:title></dc:title>
      </cc:Work>
    </rdf:RDF>
  </metadata>
  <g
     inkscape:label="Layer 1"
     inkscape:groupmode="layer"
     id="layer1"
     transform="translate(6.3795284,-70.926172)">
    <flowRoot
       xml:space="preserve"
       id="flowRoot843"
       style="font-style:normal;font-weight:normal;font-size:40px;line-height:125%;font-family:sans-serif;letter-spacing:0px;word-spacing:0px;fill:#000000;fill-opacity:1;stroke:none;stroke-width:1px;stroke-linecap:butt;stroke-linejoin:miter;stroke-opacity:1"
       transform="scale(0.26458333)"><flowRegion
         id="flowRegion845"><rect
           id="rect847"
           width="431.42856"
           height="397.14285"
           x="-301.42856"
           y="498.23398" /></flowRegion><flowPara
         id="flowPara849" /></flowRoot>    <path
       style="fill:#ffffff;stroke-width:0.52459019;fill-opacity:1"
       d="m 334.47461,2.4472656 -61.97266,61.9609374 77.86914,77.882817 64.42188,-64.408208 -19.80274,-19.804687 -41.5,41.494141 L 334.58008,80.65625 372.85156,69.980469 344.48438,41.609375 334.13477,80.212891 315.22266,61.296875 354.27539,22.251953 Z m -77.47852,68.1210934 8.22461,93.005861 -93.00586,-8.24024 82.54297,82.55664 22.91992,-22.91601 -25.69726,-25.70117 48.28125,9.34961 -9.45117,-48.17383 25.69726,25.70117 23.0293,-23.02734 z m 255.29688,2.88086 -2.24219,0.203125 c -4.85208,0.433852 -7.37133,3.047275 -7.00781,7.273437 0.0926,1.078345 -0.1117,2.242499 -0.45703,2.587891 -0.34545,0.345373 -2.92373,1.545019 -5.72852,2.666016 -7.84055,3.133659 -10.31165,4.468347 -12.71094,6.867187 -4.20699,4.2063 -4.2362,8.237455 -0.10351,14.296875 4.02036,5.89452 3.99461,6.01515 -0.69922,3.52734 -2.28068,-1.20878 -4.33466,-2.3854 -4.56445,-2.61523 -0.57778,-0.57789 0.95494,-1.86418 -54.42969,45.7207 -27.32405,23.47601 -51.11853,43.66543 -52.87695,44.86524 -1.75834,1.19985 -3.10414,2.2728 -2.99024,2.38672 0.11388,0.11376 1.62497,1.12632 3.35938,2.24804 4.6975,3.03821 13.13317,9.79383 16.47656,13.19336 l 2.94726,2.99414 -5.91015,-2.99414 c -8.20274,-4.15434 -19.06959,-7.7081 -25.84375,-8.45312 -9.31286,-1.02426 -25.10837,1.17245 -36.54297,5.08203 -6.07793,2.07806 -13.757,6.07254 -17.67969,9.19726 -3.06155,2.43878 -181.68995,183.37976 -196.86523,199.41407 -9.747014,10.29879 -11.19418,12.00007 -12.697268,14.91601 -1.821634,3.5339 -1.867949,5.14854 -0.279296,9.94922 2.669072,8.06551 11.092724,20.3615 24.142574,35.24414 6.47285,7.38195 26.67247,26.9732 34.21289,33.18164 8.50027,6.9987 16.30594,12.48426 21.8086,15.32227 3.77913,1.9491 5.22976,2.39031 8.15625,2.48828 4.40749,0.1474 7.65346,-0.88028 12.19336,-3.86524 3.96177,-2.60477 -4.86186,6.0023 125.44922,-122.36523 43.78223,-43.12921 80.49939,-79.52305 81.59375,-80.87695 5.49271,-6.79465 10.30201,-16.7698 13.03125,-27.03125 0.94299,-3.54562 2.75939,-11.57626 4.03906,-17.84571 2.80603,-13.74784 4.94477,-20.26506 8.18945,-24.96679 2.04246,-2.95968 90.26127,-105.42028 93.81055,-108.95508 1.04708,-1.04262 1.76977,-1.24505 3.70508,-1.02735 6.47512,0.72843 11.81885,-4.53416 17.41992,-17.16406 l 1.7539,-3.95898 2.76368,-0.78125 c 3.15106,-0.89129 5.90137,-3.17973 6.07617,-5.05664 0.30614,-3.28505 -0.72144,-5.35856 -5.39649,-10.88867 -3.11096,-3.67996 -8.16345,-8.986495 -13.52539,-14.298832 -5.36194,-5.312361 -11.03258,-10.631513 -15.375,-14.335938 z M 502.61719,94.6875 c 0.88984,0.03208 1.87328,0.519576 2.77343,1.46875 0.1372,0.144454 0.27356,0.300709 0.40626,0.466797 1.56793,1.962187 1.22622,3.430303 -1.2793,5.521483 -2.83298,2.36453 -6.40886,3.5516 -8.89258,2.94922 -1.05407,-0.25565 -2.16213,-0.71993 -2.46094,-1.0332 -1.01389,-1.06315 -1.90918,-4.0284 -1.37695,-4.56055 0.2914,-0.29125 1.898,-0.392488 3.56836,-0.226562 3.31419,0.329234 3.87058,0.03568 4.66601,-2.462891 0.46245,-1.452464 1.45162,-2.164294 2.59571,-2.123047 z m -23.48828,29.44531 c 0.10623,-0.004 0.18995,0.0137 0.2539,0.0508 0.15345,0.0888 0.19727,0.29574 0.19727,0.62305 -1.9e-4,1.87053 -3.57365,6.04221 -14.63867,17.08984 -10.19078,10.17472 -26.75712,25.11971 -37.88477,34.17969 -8.41984,6.85535 -21.59089,16.37508 -23.88476,17.26172 -3.30344,1.27688 -3.36802,1.07103 -0.89258,-2.82227 2.00934,-3.16021 24.07755,-24.99623 34.79882,-34.43164 14.78223,-13.00924 36.017,-29.52441 40.3418,-31.37695 0.86154,-0.36901 1.39027,-0.56322 1.70899,-0.57422 z m -311.125,66.625 c -2.51533,0.005 -5.07892,0.17429 -7.69336,0.50781 -13.8695,1.70467 -26.21942,7.97129 -37.04883,18.79883 -12.60959,12.60742 -19.06328,26.92122 -19.36133,42.94141 -0.29804,15.87185 5.33709,29.59291 16.90625,41.16406 11.495,11.49698 25.2532,17.09803 41.27344,16.80274 15.94607,-0.36947 30.18724,-6.82027 42.72265,-19.35352 12.68376,-12.68158 19.17462,-26.95823 19.47266,-42.83008 0.29804,-15.87185 -5.30188,-29.55771 -16.79687,-41.05468 -2.59565,-2.5961 -5.78408,-5.19092 -9.56641,-7.78711 -9.03865,-6.14743 -19.00845,-9.21112 -29.9082,-9.18946 z m 184.36328,27.80274 c 3.2543,0.0205 6.53262,1.05788 10.29101,3.17383 1.24388,0.7003 2.01007,1.18252 2.53516,1.65624 0.5251,0.47373 0.80892,0.94169 1.08789,1.61524 0.88774,2.14371 0.49827,3.93174 -1.23047,5.66016 -1.91823,1.91792 -4.80068,1.90342 -8.3457,-0.0449 -2.48668,-1.36682 -6.15661,-1.7768 -7.13867,-0.79492 -0.18131,0.18142 -1.43666,0.4024 -2.79102,0.49024 -2.08648,0.1353 -2.70058,-0.0771 -4.02344,-1.40039 -3.16134,-3.16188 -1.43382,-7.52819 3.6836,-9.30664 2.03494,-0.70721 3.97906,-1.06113 5.93164,-1.04883 z m -188.61133,3.07812 c 7.71343,6.7e-4 14.5378,2.96647 20.4707,8.90039 6.00707,6.0081 9.0476,12.90771 9.1211,20.69532 0.0735,7.63927 -2.81994,14.38735 -8.67969,20.24609 -5.85975,5.85874 -12.64594,8.78777 -20.35938,8.78711 -7.71342,-0.149 -14.5378,-3.19108 -20.4707,-9.125 -6.00706,-6.0081 -9.04758,-12.83143 -9.12109,-20.4707 -0.0735,-7.78761 2.81994,-14.61001 8.67968,-20.46876 5.85975,-5.85874 12.64596,-8.71345 20.35938,-8.56445 z m 212.84766,9.52735 c 1.02232,-0.0351 2.03227,0.25296 2.65429,0.875 1.24404,1.24425 1.14762,4.04402 -0.18554,5.37695 -0.90265,0.90247 -1.72376,1.18656 -2.99024,1.03515 -0.96039,-0.11489 -2.03569,-0.49656 -2.38867,-0.8496 -1.24404,-1.24426 -1.1456,-4.04602 0.1875,-5.37891 0.66657,-0.66646 1.70033,-1.0235 2.72266,-1.05859 z m -51.55469,24.68164 36.70703,36.71289 -20.77344,20.76953 -5.03906,-5.03906 16.06055,-16.05664 -31.66993,-31.67383 z M 73.208984,263.66797 50.289062,286.58398 77.767578,314.06445 50.396484,341.42969 22.919922,313.94922 0,336.86523 l 77.869141,77.88282 22.919919,-22.91602 -45.498044,-45.50586 29.814453,2.44922 -2.44336,-29.81445 45.498051,45.50586 22.91796,-22.91602 z m 213.742186,29.67773 6.13086,1.41407 c -0.15753,4.55686 -0.94287,8.80026 -2.35742,12.72851 l -6.83594,-1.65039 c 1.57168,-3.7711 2.59071,-7.93532 3.0625,-12.49219 z m -10.13476,6.83399 11.78515,11.78711 c 4.55703,-1.41385 9.97994,-3.85019 16.26563,-7.30664 l 2.82617,6.1289 c -10e-5,1.25707 -0.62972,1.41362 -1.88672,0.47071 -3.92854,2.04241 -8.16953,3.77173 -12.72656,5.18554 l 7.30469,7.30664 -4.47852,4.47657 -4.71289,-4.7129 -10.60742,10.60547 6.59961,6.59961 -4.47852,4.47852 -6.59961,-6.59961 -23.10156,23.0957 -4.00586,-4.00586 23.10156,-23.09765 -5.42187,-5.42188 -5.42188,5.41992 c -7.85741,7.85609 -16.266,11.54835 -25.22265,11.07618 l 0.002,-6.59961 c 8.79957,-0.3137 15.94902,-3.2195 21.44922,-8.71875 l 5.1875,-5.18555 -6.59961,-6.59961 4.47851,-4.47852 6.59961,6.59961 10.60743,-10.60547 -5.41993,-5.41992 z m 4.94921,13.90625 -10.60742,10.60547 5.42188,5.42187 10.60742,-10.60547 z m 28.04883,1.18164 27.10352,27.10742 -4.48047,4.47852 -17.20312,-17.20704 -9.19336,8.24805 12.25586,12.25781 -31.11719,31.10938 c -1.10004,1.09984 -1.0979,2.20075 0.002,3.30078 l 0.70703,0.70703 c 0.62849,0.62857 1.80655,0.23626 3.53516,-1.17773 l 4.24414,-3.77149 2.82617,6.12696 -5.18555,3.77148 c -3.61432,2.67099 -6.521,2.90709 -8.7207,0.70703 l -3.29883,-3.29883 c -2.82818,-2.82867 -2.82867,-5.65814 0,-8.48633 l 0.70703,-0.70703 -20.74023,-10.37304 c -2.04282,0.7855 -2.59339,0.0789 -1.65039,-2.1211 l 2.83008,-6.1289 4.94922,3.53711 43.37109,-38.18164 -5.41992,-5.41993 z m 121.00391,21.58203 -22.91992,22.91601 77.86914,77.88282 56.85351,-56.84571 L 522.82031,361 488.88672,394.92773 Z m -129.49024,5.28711 -7.78124,6.83398 5.89257,1.65039 c -1.25759,5.97101 -3.22086,11.39273 -5.89257,16.26368 l 16.26562,-16.26172 z m -8.25195,7.30469 -20.03711,17.67773 13.20117,7.07227 6.83399,-6.83399 -6.36328,-2.12304 c 2.98606,-5.81375 5.10775,-11.07903 6.36523,-15.79297 z m -64.60937,10.39257 34.41015,34.41602 1.65039,0.23633 v 8.95508 l -2.12304,-0.70899 c -10.68512,-0.62944 -19.48272,-1.88527 -26.39649,-3.77148 l -5.42187,5.42187 23.5664,23.57031 -5.18554,5.1836 -23.56641,-23.57031 -18.38672,18.38281 c -2.51437,2.51391 -5.02903,2.51437 -7.54297,0 l -6.83398,-6.83594 4.00586,-6.36523 5.42187,5.42383 c 0.62849,0.62857 1.25618,0.62849 1.88477,0 l 16.0293,-16.02735 -24.27344,-24.2793 5.18359,-5.18359 24.27539,24.27734 10.60742,-10.60546 3.77149,5.1875 c 5.34247,1.25752 10.52833,1.88435 15.55664,1.88476 l -31.10938,-31.11523 z m 168.66797,10.69336 -22.91993,22.91407 77.86914,77.88281 22.91993,-22.91406 z m -33.80665,33.80078 -22.91992,22.91602 27.47657,27.48242 -27.3711,27.36524 -27.47656,-27.48242 -22.91992,22.91601 77.86914,77.88281 22.91992,-22.91601 -45.49805,-45.50586 29.81641,2.45117 -2.44531,-29.81641 45.49804,45.50586 22.91993,-22.91601 z m -253.46484,40.82422 c 5.27127,0.35564 22.93502,14.41802 41.17774,32.85938 1.34196,1.35662 2.68774,2.74031 4.03125,4.14062 11.19775,11.67066 16.09088,17.34283 21.6582,25.1211 11.72184,16.37695 4.76022,15.89607 -15.99805,-1.10742 -5.7323,-4.69554 -29.39296,-27.90021 -35.02148,-34.34571 -12.11358,-13.87181 -18.96597,-24.4367 -17.07422,-26.32812 0.26695,-0.26691 0.68126,-0.37664 1.22656,-0.33985 z m 176.64649,54.00196 c -1.34082,0.006 -2.6938,0.0974 -4.05665,0.27343 -10.82859,1.33409 -22.65812,8.4162 -35.49023,21.2461 l -31.59766,31.59179 77.86915,77.88282 22.91992,-22.91602 -21.13672,-21.13867 9.79101,-9.78906 c 11.79367,-11.79164 18.32217,-23.28712 19.58399,-34.48633 1.26182,-11.34754 -2.52051,-21.43501 -11.3457,-30.26172 -8.30607,-8.30749 -17.15143,-12.4421 -26.53711,-12.40234 z m -6.41797,29.02929 c 3.7417,-0.0909 7.23591,1.48536 10.48047,4.73047 7.2678,7.26906 7.08145,15.46593 -0.5586,24.58789 l -2.55859,2.78125 -9.12305,9.1211 -23.25,-23.25391 9.3457,-9.34375 c 5.6326,-5.63162 10.8533,-8.50612 15.66407,-8.62305 z"
       transform="matrix(0.26458333,0,0,0.26458333,-6.3795284,70.278666)"
       id="path826"
       inkscape:connector-curvature="0" />
  </g>
</svg>
