<svg xmlns="http://www.w3.org/2000/svg" xmlns:xlink="http://www.w3.org/1999/xlink" width="495.178" height="68.266" viewBox="0 0 131.016 18.062">
  <defs>
    <linearGradient id="a">
      <stop offset="0" stop-color="gray"/>
      <stop offset="1" stop-color="#fff"/>
    </linearGradient>
    <linearGradient xlink:href="#a" id="b" gradientUnits="userSpaceOnUse" x1="135.305" y1="660.252" x2="135.714" y2="560.02" gradientTransform="matrix(.48068 0 0 .48068 131.99607 -250.9451)"/>
  </defs>
  <g>
    <path d="M117.63688408-.00003323c-1.3640001 0-2.44790403.41801493-3.17190276 1.21801492-.72400138.80000001-1.07280464 1.95327375-1.07280464 3.36827367 0 2.02300016.77804788 3.5604912 3.0530465 5.56349121v.00103347c.87000127.7600001 1.42180104 1.36011125 1.75080021 1.89911125.3299993.53999986.44700083 1.0152868.44700083 1.59628681 0 .56799996-.12524066.90295782-.30023893 1.09295771-.17400078.19000016-.42556956.27905319-.80356962.27905319-.37800006 0-.63008742-.08908663-.8040882-.28008665-.17499827-.1899999-.30023893-.5239243-.30023893-1.09192425v-1.50998704h-3.11609149v1.33893795c0 1.41499992.356373 2.5698239 1.090373 3.36982402.73299986.79999986 1.82790782 1.21594783 3.20290931 1.21594783 1.37599897 0 2.4699412-.41598157 3.2039412-1.21698156.73399999-.79999985 1.08985705-1.95382397 1.08985705-3.36982402 0-2.02200003-.77804524-3.5599742-3.0530465-5.56297422-.86999863-.7600001-1.4218328-1.36014459-1.7518321-1.90014471a2.84699987 2.84699987 0 0 1-.44596895-1.59577008c0-.57199993.11718674-.91911171.28318652-1.11311158.16499965-.19400013.3965315-.2831873.77153119-.2831873.37499968 0 .60707922.0901873.773079.2831873.1650023.19399987.28215464.54111165.28215464 1.11311158v.9968395h3.11609148v-.82579041c0-1.41499992-.3493192-2.56727366-1.07332058-3.36827367-.72399873-.79999999-1.80686813-1.21801492-3.17086823-1.21801492zM89.09595578.0010003c-1.37499884 0-2.4699068.41594786-3.20290666 1.21594787-.734.8-1.0898597 1.95382414-1.0898597 3.36982418v8.88939012c0 1.41499992.3558597 2.56882404 1.0898597 3.36982403.73299987.79999985 1.82790782 1.21594782 3.20290667 1.21594782 1.37600161 0 2.47094397-.41698143 3.20394384-1.21698129.734-.80000012 1.08985705-1.95382424 1.08985705-3.36982402V7.76590989h-4.33772442v3.01894087h1.22111435v2.8623608c0 .56799996-.12424054.90195796-.30023893 1.09295798-.17400079.1899999-.42505362.27905292-.80305368.27905292-.37800006 0-.63008477-.0900865-.80408556-.28008665-.17500091-.1899999-.299723-.52392429-.299723-1.09192425V4.41623973c0-.56799996.12479088-.91146074.3017894-1.10846072.17600104-.19599986.42701947-.28887163.80201916-.28887163.37499968 0 .62502064.0929051.80201916.28990509.17600103.19600012.30127345.5394273.30127345 1.10742726v2.11976978h3.11661007V4.58625536c0-1.41499992-.35585706-2.5683072-1.08985705-3.36930719C91.56689976.41694816 90.4719574.0010003 89.09595579.0010003zm37.65097694 0c-1.3640001 0-2.44790403.41701492-3.17190276 1.21801493-.72300126.8-1.0722887 1.95275694-1.0722887 3.36775712 0 2.0229999.77701336 3.56100767 3.05201462 5.56400769l.00103452.00103372c.86799838.75999984 1.42228259 1.360111 1.75028163 1.899111.3299993.54000012.44700083 1.01428693.44700083 1.5962868 0 .56799996-.12524066.90195796-.30023893 1.09295798-.17400078.1899999-.42605374.27905292-.80305368.27905292-.37800006 0-.62960323-.0900865-.8046015-.28008665-.17400078-.1899999-.29920705-.52392429-.29920705-1.09192425v-1.50998703h-3.11609413v1.33893794c0 1.41499992.35534112 2.56882404 1.08934112 3.36982403.73299987.79999985 1.82794222 1.21594782 3.20394119 1.21594782 1.37500149 0 2.46994384-.41698143 3.20394384-1.21698129.73299987-.80000012 1.08882253-1.95382424 1.08882253-3.36982402 0-2.02300016-.7770451-3.56000807-3.0530465-5.56400795-.8689985-.7600001-1.4217984-1.36014459-1.75080021-1.90014471a2.84699987 2.84699987 0 0 1-.44596631-1.59473662c0-.57199993.1166364-.92011157.28163605-1.11311157.16499965-.19399987.39704744-.28422078.77204713-.28422078.3759998 0 .60807935.0902209.773079.28422078.1650023.19399986.28215464.54111164.28215464 1.11311157v.9968395h3.11609148v-.82630688c0-1.41500018-.34828732-2.56675714-1.07228605-3.36775712-.72399874-.80000001-1.80790266-1.21801493-3.17190276-1.21801493zM66.22084009.04802591v17.81908807h3.2349504v-7.25021192h.74620788l1.64486357 7.25021192h3.35225355l-1.9998819-8.1922744a3.77800011 3.77800011 0 0 0 1.23351804-1.62574238c.28100105-.71699997.41341193-1.62400195.41341193-2.72800206 0-1.78500003-.32538231-3.11987487-1.04438042-3.98787487C73.08178227.46422028 71.92218626.04802591 70.4081884.04802591h-4.18734831zm28.71094444 0v17.81908807h3.23597963v-7.25021192h.74621053l1.64486093 7.25021192h3.3522562l-1.9998819-8.1922744A3.76799991 3.76799991 0 0 0 103.144212 8.0490972c.28199853-.71699997.41392787-1.62400195.41392787-2.72800206 0-1.78500003-.32538231-3.11987487-1.04438306-3.98787487-.71999823-.86899999-1.87959424-1.28519436-3.39359475-1.28519436h-4.18837754zM0 .19582068v17.67025984h3.26285365V.19582068H0zm4.6017916 0v17.67025984h2.99413589V7.2181392l2.83600589 10.64897478h3.26905496V.19582068h-2.9698479v8.4899309L8.48217948.19582068H4.6017916zm10.47017418 0v17.67025984h3.26285365v-7.05694178h3.46697596V7.7912316h-3.46697596V3.21476145h4.42040707V.19582068h-7.68326072zm8.39381252 0v17.67025984h3.26337118V.19582068H23.4657783zm4.60230727 0v17.67025984h2.99413695V7.2181392l2.83497137 10.64897478h3.26957381V.19582068h-2.96984817v8.4899309L31.94692407.19582068h-3.8788385zm10.46914072 0v17.67025984h3.26285603V.19582068H38.5372263zm3.84473102 0v3.01894077h2.8081029v14.65235253h3.26285339V3.21476145h2.80913213V.19582068H42.3819573zm9.46196605 0v17.67025984h7.9018539v-3.01790715h-4.64003239V10.4179476h3.68815042V7.40004046h-3.68711854v-4.185279h4.6400324V.19582067h-7.90288579zm24.21301992 0v17.67025984h7.9018539v-3.01790715h-4.6400324V10.4179476h3.68815043V7.40004046h-3.6871159v-4.185279h4.64002975V.19582067h-7.90288578zm28.71197632 0v17.67025984h7.9018539v-3.01790715h-4.63951645V10.4179476h3.68763448V7.40004046h-3.68711854v-4.185279h4.6400324V.19582067h-7.9028858zM69.45579048 3.11812625h.66610784c.6000016 0 .93407814.15000966 1.11207943.40100958l.0020664.00310065.0020664.00258393c.18100167.24399982.32401177.82115649.32401177 1.70015652 0 .9780001-.13612564 1.6308626-.31212403 1.9068625-.17700116.26999993-.47901545.41599586-1.0330139.41599586h-.76016203l-.00103188-4.42970904zm28.71197368 0h.66611048c.6000016 0 .9340464.15000966 1.11104491.40100958l.00310092.00310065.0020664.00258393c.18100167.24399982.32401177.82115649.32401177 1.70015652 0 .9780001-.13612564 1.6308626-.31212667 1.9068625-.17699852.26999993-.48001294.41599586-1.03301126.41599586h-.76016203l-.00103452-4.42970904z" style="line-height:125%;shape-padding:0;isolation:auto;mix-blend-mode:normal" color="#000" white-space="normal" overflow="visible" fill="#000020"/>
    <path transform="matrix(.26458 0 0 .26458 0 -.00003323)" d="M336.73633 1.0820312c-9.96738 0-15.13477 5.9076032-15.13477 16.2441408v33.59375c0 10.336538 5.16739 16.242187 15.13477 16.242187 9.96738 0 15.13672-5.905649 15.13672-16.242187V30.431641h-14.21289v9.228515h4.61328v11.90625c0 4.614526-2.0296 6.275391-5.25977 6.275391-3.23017 0-5.25976-1.660865-5.25976-6.275391V16.679688c0-4.614526 2.02959-6.367188 5.25976-6.367188s5.25977 1.752662 5.25977 6.367188v6.921874h9.59961v-6.27539c0-10.3365376-5.16934-16.2441407-15.13672-16.2441408zm107.86719 0c-9.87507 0-14.95118 5.9076032-14.95118 16.2441408 0 7.383241 2.67727 12.735406 11.16797 20.210937 6.64493 5.814301 8.67578 9.322483 8.67578 14.029297 0 4.614526-2.03155 6.275391-5.26171 6.275391-3.23017 0-5.25977-1.660865-5.25977-6.275391v-4.615234h-9.59766v3.96875c0 10.336538 5.16737 16.242187 15.13477 16.242187 9.96736 0 15.13672-5.905649 15.13672-16.242187 0-7.383242-2.67723-12.735406-11.16797-20.210938-6.64489-5.814302-8.67578-9.32248-8.67578-14.029296 0-4.614526 1.846-6.367188 5.07617-6.367188s5.07617 1.752662 5.07617 6.367188v2.677734h9.59766v-2.03125c0-10.3365376-5.07607-16.2441407-14.95117-16.2441408zm34.42968 0c-9.87506 0-14.95117 5.9076032-14.95117 16.2441408 0 7.383241 2.67528 12.735406 11.16602 20.210937 6.64493 5.814301 8.67578 9.322483 8.67578 14.029297 0 4.614526-2.0296 6.275391-5.25977 6.275391-3.23017 0-5.26172-1.660865-5.26172-6.275391v-4.615234h-9.59765v3.96875c0 10.336538 5.16936 16.242187 15.13672 16.242187 9.96739 0 15.13476-5.905649 15.13476-16.242187 0-7.383242-2.67723-12.735406-11.16797-20.210938-6.64493-5.814302-8.67382-9.32248-8.67382-14.029296 0-4.614526 1.846-6.367188 5.07617-6.367188s5.07617 1.752662 5.07617 6.367188v2.677734h9.59766v-2.03125c0-10.3365376-5.07608-16.2441407-14.95118-16.2441408zm-227.66406.1796876V66.423828h10.05078V39.025391h4.77539l6.21875 27.398437h10.41016l-7.39063-30.28125c2.25311-1.562209 3.87571-3.605337 4.86719-6.128906.99148-2.523569 1.48633-5.828285 1.48633-9.914063 0-6.609667-1.23004-11.4011942-3.69336-14.3749996-2.46364-2.9744464-6.46046-4.4628906-11.98828-4.4628906h-14.73633zm108.51367 0V66.423828h10.04883V39.025391h4.77734l6.21875 27.398437h10.41016l-7.39062-30.28125c2.25342-1.562209 3.87602-3.605337 4.86718-6.128906.99147-2.523569 1.48633-5.828285 1.48633-9.914063 0-6.609667-1.23199-11.4011942-3.69531-14.3749996-2.46365-2.9744464-6.45851-4.4628906-11.98633-4.4628906h-14.73633zM1.0976562 1.8222656V66.423828H11.25V1.8222656H1.0976562zm17.3925778 0V66.423828h9.136719V19.632812h.183594l12.458984 46.791016h10.429688V1.8222656h-9.044922V40.490234h-.183594L31.226562 1.8222656H18.490234zm39.56836 0V66.423828h10.15039V39.751953h13.105469v-9.228515H68.208984V11.050781h16.705078V1.8222656H58.058594zm31.724609 0V66.423828h10.152344V1.8222656H89.783203zm17.392577 0V66.423828h9.13672V19.632812h.18359l12.45899 46.791016h10.42969V1.8222656h-9.04493V40.490234h-.18359L119.91211 1.8222656h-12.73633zm39.56836 0V66.423828h10.15039V1.8222656h-10.15039zm14.53125 0v9.2285154h10.61328v55.373047h10.15235V11.050781h10.61328V1.8222656h-31.37891zm35.75977 0V66.423828h27.68554v-9.228516h-17.53515V38.275391h13.9375v-9.228516h-13.9375V11.050781h17.53515V1.8222656h-27.68554zm91.50781 0V66.423828h27.6875v-9.228516h-17.53516V38.275391h13.93555v-9.228516h-13.93555V11.050781h17.53516V1.8222656h-27.6875zm108.51367 0V66.423828h27.6875v-9.228516h-17.53516V38.275391h13.93555v-9.228516h-13.93555V11.050781h17.53516V1.8222656h-27.6875zM261.41992 10.681641h3.60352c2.46364 0 4.16251.660552 5.09375 1.982421.96136 1.291747 1.4414 3.649536 1.4414 7.074219 0 3.785513-.45012 6.384638-1.35156 7.796875-.90112 1.381794-2.50891 2.072266-4.82226 2.072266h-3.96485V10.681641zm108.51172 0h3.60547c2.46332 0 4.16221.660552 5.09375 1.982421.96136 1.291747 1.44141 3.649536 1.44141 7.074219 0 3.785513-.45015 6.384638-1.35157 7.796875-.90112 1.381794-2.50891 2.072266-4.82226 2.072266h-3.9668V10.681641z" style="line-height:125%;" fill="url(#b)"/>
  </g>
</svg>
