<svg xmlns="http://www.w3.org/2000/svg" width="523.25" height="523.4" viewBox="0 0 138.44 138.48"><path d="M53.54 0a12.55 12.55 0 0 0-12.55 12.55A12.55 12.55 0 0 0 53.54 25.1a12.55 12.55 0 0 0 12.55-12.55A12.55 12.55 0 0 0 53.54 0zM34.89 23.48C33.59 23.48 0 39.36 0 39.98c0 .18.81 1.82 1.8 3.64 1 1.82 3.07 5.84 4.62 8.92l2.8 5.6-1.69 2.45-1.68 2.45-.44 12.59c-.23 6.92-.68 21.71-.98 32.87-.31 11.15-.66 22.46-.79 25.13l-.22 4.85h9.49L17.38 122c2.47-9.07 5.31-19.65 6.33-23.5l1.84-7.02 1.2 1.37a464 464 0 0 1 5.9 7.19c2.6 3.2 5.3 6.49 6 7.3 1.6 1.86 1.72 2.67 2.46 16.07.3 5.58.65 11.26.77 12.62l.2 2.46H50.7l.22-1.67c.1-.92.37-4.85.58-8.73.21-3.88.57-9.52.8-12.53.56-7.33.53-8.8-.15-10.05a561.02 561.02 0 0 1-8.97-17.72c.05-.06 7.28 4.67 16.06 10.5 14.63 9.74 15.91 10.67 15.49 11.26a62.36 62.36 0 0 0-7.53 13.42c-1.12 2.65-5.46 14.73-5.46 15.2 0 .2 11.56.32 27.83.32h27.83l2.99-3.44c9.46-10.9 18.49-22.23 18.04-22.64-.18-.16-3.18-2.36-6.67-4.9-3.49-2.54-9.36-6.85-13.05-9.58-11.1-8.21-16.8-10.44-23.5-9.17-3.96.74-7.67 3.32-10.3 7.16-1.03 1.48-1.3 2.17-1.12 2.78.13.45 1.1 3.25 2.16 6.24 1.05 2.99 1.87 5.56 1.82 5.7-.1.27-20.88-13.9-29.09-19.83l-4.23-3.05-.76-8.94c-.42-4.92-1.4-17.12-2.18-27.11-.78-10-1.5-18.66-1.6-19.27-.16-.98-.57-1.3-3.79-2.97a92.23 92.23 0 0 1-5.9-3.35c-3.07-1.98-4.4-2.63-5.33-2.63zM20.5 38c.44-.08-.23 1.2-3.52 6.9-1.49 2.56-2.8 4.67-2.91 4.67-.12 0-1.18-1.5-2.36-3.35-1.98-3.07-2.1-3.37-1.5-3.7a458.89 458.89 0 0 1 10.29-4.52zm23.44 21.98c.27 0 .56 3 1.03 10.58.29 4.66.61 9.14.72 9.97.15 1.12.08 1.5-.27 1.5-.7 0-7.32-4.7-7.32-5.2 0-.23 1.24-3.96 2.77-8.29l2.95-8.38c.04-.12.08-.18.12-.18z" fill="#fff"/></svg>